<svg xmlns="http://www.w3.org/2000/svg" viewBox="0 0 500 500"><g id="freepik--background-simple--inject-8"><path d="M355.89,197.61c-23.73-50.24-66.89-4.34-96.09-40.48-17.65-21.83-16.71-41.89-41.71-53-17.4-7.71-36.81-5.15-55.38-14.46-31.75-15.93-72-23.46-84.13,29.57-5.07,22.13-4,52.52,15.46,78,16.6,21.68,39.48,11.69,57.15,28.47,33.78,32.09,6.9,102,56.29,121.42,43.39,17,62.76-43.26,106.94-24.5,33.11,14.06,87.2,51.47,107-15.75,8.44-28.66-4.76-50.53-21.84-64.18C376,223.89,371.46,230.58,355.89,197.61Z" style="fill:#00C6FF"></path><path d="M355.89,197.61c-23.73-50.24-66.89-4.34-96.09-40.48-17.65-21.83-16.71-41.89-41.71-53-17.4-7.71-36.81-5.15-55.38-14.46-31.75-15.93-72-23.46-84.13,29.57-5.07,22.13-4,52.52,15.46,78,16.6,21.68,39.48,11.69,57.15,28.47,33.78,32.09,6.9,102,56.29,121.42,43.39,17,62.76-43.26,106.94-24.5,33.11,14.06,87.2,51.47,107-15.75,8.44-28.66-4.76-50.53-21.84-64.18C376,223.89,371.46,230.58,355.89,197.61Z" style="fill:#fff;opacity:0.9"></path></g><g id="freepik--Shadow--inject-8"><ellipse id="freepik--path--inject-8" cx="250" cy="416.24" rx="193.89" ry="11.32" style="fill:#f5f5f5"></ellipse></g><g id="freepik--character-2--inject-8"><path d="M287.59,185.14l-1.23,1.63c-.4.52-.82,1-1.23,1.51-.81,1-1.68,2-2.54,2.92a76.74,76.74,0,0,1-5.59,5.52c-1,.89-2,1.76-3.11,2.61s-2.24,1.66-3.46,2.46a27.73,27.73,0,0,1-9,4l-.35.08a5.09,5.09,0,0,1-1,.13,11.69,11.69,0,0,1-4.77-.84,14.77,14.77,0,0,1-3-1.61,26.29,26.29,0,0,1-4-3.47,51.48,51.48,0,0,1-5.56-7.07c-1.57-2.4-3-4.82-4.28-7.29a79.74,79.74,0,0,1-3.52-7.6,4,4,0,0,1,6.73-4.14l.09.1,5.15,5.82c1.73,1.92,3.46,3.81,5.22,5.58a52.38,52.38,0,0,0,5.22,4.72,12.27,12.27,0,0,0,2.27,1.43,1.17,1.17,0,0,0,.54.14s-.23-.19-.85-.19l-1.37.22a20.4,20.4,0,0,0,3.78-2.48,59.82,59.82,0,0,0,4.51-4.13c1.49-1.53,3-3.13,4.47-4.79l2.18-2.51,2.08-2.45.25-.29a8,8,0,0,1,12.47,10Z" style="fill:#263238"></path><path d="M236.47,175.62c-3.86.6-7.53-5.66-7.53-5.66l-2.89-3.44a3.12,3.12,0,0,1,0-4l2.49-2.9a3.12,3.12,0,0,1,4.44-.29l3.31,3a5.57,5.57,0,0,1,1.38,1.91l1.29,3a7.17,7.17,0,0,1-1.18,7.57l-.24.28A1.91,1.91,0,0,1,236.47,175.62Z" style="fill:#ffc3bd"></path><path d="M330.6,318.84c-4.89-36.22-6.82-57.71-10-75.72l-30.81-.46S303.62,300.42,310.2,324,354,406.14,354,406.14l8.18-4.86S339.4,346.27,330.6,318.84Z" style="fill:#263238"></path><path d="M348.53,415.24s6.16-7.53,6.06-10.08l6.78-4,3.73,7.45-3.27,2-1-.31-.71,1.32c-3.38,2-8.82,5.06-11.35,5.53A2,2,0,0,1,348.53,415.24Z" style="fill:#263238"></path><path d="M319.26,170.2c-10.89-1.35-26.46-1.23-36.9.58a12.64,12.64,0,0,0-10.25,10.63c-2.2,15.76-.31,43.31,1.1,71,23.83,8.16,49-.11,49-.11.87-5.6-1.08-23.93-2.4-33.71,2-10.11,6.14-21.68,8.9-35.1A11,11,0,0,0,319.26,170.2Z" style="fill:#263238"></path><path d="M291.18,169.72a11.19,11.19,0,0,0-2.65,6.05c-1.12,6.4.15,16.27,3.52,27.58,3.23-9.11,10.18-21.17,14.46-28.17,2-3.32,3.43-5.51,3.56-5.71h0A39.31,39.31,0,0,0,291.18,169.72Z" style="fill:#00C6FF"></path><path d="M308.48,149.39l-12.4,10.17c1.6,4.27,2.11,8.71-4.9,10.42-1.75,2.32,1.34,5,4.24,6.18,4.68-.58,11.27-2.14,14.12-6C308.64,167,307.28,155.7,308.48,149.39Z" style="fill:#ffc3bd"></path><path d="M292.46,173.59a9.35,9.35,0,0,0,2.57,3.88c1.89,0,4.66-2.13,4.66-2.13s-1.07-3-2.57-3.61C293.28,172.67,292.46,173.59,292.46,173.59Z" style="fill:#fff"></path><path d="M296.78,176.16a2.77,2.77,0,0,0-2.09-.53c-2.48,3.53-4.06,9-5.59,15.32a105.12,105.12,0,0,0,2.95,12.4,99.64,99.64,0,0,1,4.82-11A65.61,65.61,0,0,1,296.78,176.16Z" style="fill:#fff"></path><path d="M303.31,153.63l-7.23,5.92a15.87,15.87,0,0,1,.87,3.06c2.8.2,6.7-2.63,6.88-5.19A10.52,10.52,0,0,0,303.31,153.63Z" style="opacity:0.2"></path><path d="M289.9,132.56c-4,2.32-1.93,4.63-1.93,4.63s-1.71,4.6.56,7.77C299.17,132.22,289.9,132.56,289.9,132.56Z" style="fill:#263238"></path><path d="M310.26,142.45c-1.13,7.78-1.4,12.39-5.68,16.05-6.46,5.49-15.82,1-17-7-1.1-7.18.93-18.7,8.86-21.11A10.84,10.84,0,0,1,310.26,142.45Z" style="fill:#ffc3bd"></path><path d="M310.08,147.31c-5,.52-4.07-7.71-2.36-9.33-4.88.09-3.94-3.17-3.34-4.37-8.13,1.71-13.88,2.07-17.55-2-2.72-3-5.61.36-6.47-2.78,2,1.07,5.61-4.28,8.05-2.06s4.87-5.54,8.56-2.22c5,4.45,18.12-7.67,16.92,5.69,6.85,5.77-2.36,9.42-1.76,15.55C310.25,148.6,310.08,147.31,310.08,147.31Z" style="fill:#263238"></path><path d="M311.26,131.9a.51.51,0,0,1-.5-.43.5.5,0,0,1,.43-.56,7.13,7.13,0,0,0,4-2.78,3.33,3.33,0,0,0,.49-2.84.51.51,0,0,1,.35-.62.49.49,0,0,1,.61.34,4.38,4.38,0,0,1-.61,3.66,8,8,0,0,1-4.72,3.23Z" style="fill:#263238"></path><path d="M312.9,148.49a6.82,6.82,0,0,1-3.78,3.58c-2.24.84-3.59-1.12-3.15-3.35.4-2,2-4.84,4.38-4.72A3.09,3.09,0,0,1,312.9,148.49Z" style="fill:#ffc3bd"></path><path d="M298.59,142.73c-.06.64-.44,1.13-.85,1.09s-.72-.59-.66-1.23.43-1.12.85-1.08S298.64,142.1,298.59,142.73Z" style="fill:#263238"></path><path d="M291,142.55c-.06.64-.44,1.12-.85,1.08s-.72-.58-.66-1.22.43-1.12.85-1.09S291,141.91,291,142.55Z" style="fill:#263238"></path><path d="M293.26,143.4a22.27,22.27,0,0,1-3.5,5.17,3.71,3.71,0,0,0,3,.86Z" style="fill:#ed847e"></path><path d="M301.19,140.82a.4.4,0,0,0,.19,0,.38.38,0,0,0,.21-.49,3.78,3.78,0,0,0-2.54-2.32.37.37,0,0,0-.44.29.38.38,0,0,0,.29.45h0a3,3,0,0,1,2,1.86A.39.39,0,0,0,301.19,140.82Z" style="fill:#263238"></path><path d="M288.17,140.12a.38.38,0,0,0,.35-.06,2.93,2.93,0,0,1,2.65-.52.37.37,0,0,0,.48-.23.38.38,0,0,0-.22-.48,3.72,3.72,0,0,0-3.36.63.38.38,0,0,0-.08.53A.46.46,0,0,0,288.17,140.12Z" style="fill:#263238"></path><path d="M310.08,169.46h0c-.13.2-1.55,2.39-3.56,5.71a15.81,15.81,0,0,1-7.25,3.8c.41-1.34-.79-5.86-2.12-7.25A35.46,35.46,0,0,0,310.08,169.46Z" style="fill:#00C6FF"></path><path d="M310.08,169.46h0c-.13.2-1.55,2.39-3.56,5.71a15.81,15.81,0,0,1-7.25,3.8c.41-1.34-.79-5.86-2.12-7.25A35.46,35.46,0,0,0,310.08,169.46Z" style="fill:#fff;opacity:0.30000000000000004"></path><path d="M297.12,171.73a11.54,11.54,0,0,0-6.23,6.63,4.27,4.27,0,0,1-2.36-2.59,11.19,11.19,0,0,1,2.65-6.05C291.9,170.64,293.88,171.55,297.12,171.73Z" style="fill:#00C6FF"></path><path d="M297.12,171.73a11.54,11.54,0,0,0-6.23,6.63,4.27,4.27,0,0,1-2.36-2.59,11.19,11.19,0,0,1,2.65-6.05C291.9,170.64,293.88,171.55,297.12,171.73Z" style="fill:#fff;opacity:0.30000000000000004"></path><path d="M326.85,174.84c2,2.28,3.71,4.47,5.45,6.8s3.38,4.68,4.94,7.17a77.82,77.82,0,0,1,4.46,7.85,47.1,47.1,0,0,1,1.95,4.46,27.83,27.83,0,0,1,1.49,5.53l.08.49a6,6,0,0,1-.29,3,29.26,29.26,0,0,1-4.84,8.32,37.53,37.53,0,0,1-2.89,3.22c-1,1-2,2-3,2.85a64.16,64.16,0,0,1-6.47,4.85,57.72,57.72,0,0,1-7,4A4,4,0,0,1,316,227l.18-.19c1.55-1.68,3.26-3.49,4.8-5.26s3.08-3.57,4.45-5.39a45.88,45.88,0,0,0,3.64-5.42,18.14,18.14,0,0,0,2-4.93l-.21,3.45a18.79,18.79,0,0,0-1-2.35c-.49-.94-1-2-1.66-3s-1.29-2.07-2-3.11-1.42-2.1-2.17-3.15c-1.51-2.09-3.07-4.21-4.68-6.3l-4.8-6.19-.1-.13a8,8,0,0,1,12.34-10.18Z" style="fill:#263238"></path><path d="M320,231.71a1.82,1.82,0,0,0-.37-1.2l-2.18-3a1.86,1.86,0,0,0-1.86-.74l-3.1.58a21.35,21.35,0,0,0-8.35,3.55l-.82.58a3.11,3.11,0,0,0-.7,4.39l2.27,3.07a3.11,3.11,0,0,0,3.92.92l4-2.06S319.77,235.61,320,231.71Z" style="fill:#ffc3bd"></path><path d="M318.29,225.73a14.52,14.52,0,0,0-4.37.09c-.89,2.29,2.89,9.18,4.83,10.38,1.24-.29,4.06-2.71,4.06-2.71C321.15,231.28,319.43,227.42,318.29,225.73Z" style="fill:#00C6FF"></path><path d="M241.78,174a14.38,14.38,0,0,0-.57-4.33c-2.37-.63-8.8,3.88-9.78,5.94.42,1.2,3.14,3.74,3.14,3.74C236.59,177.45,240.23,175.31,241.78,174Z" style="fill:#00C6FF"></path><polygon points="353.64 406.66 362.88 401.51 360.77 395.79 350.5 402.75 353.64 406.66" style="fill:#00C6FF"></polygon><path d="M300.33,322.1c2.2-36.54,6.42-61,4.66-79l-30.77-.46s3.12,58,5,82.12,12.28,83.76,12.28,83.76h9.52S303.67,350.38,300.33,322.1Z" style="fill:#263238"></path><path d="M276.06,413.58s15.47-3.34,16.45-5.58h7.89l.25,8.32h-6.43l-.78-.76-1.2.76c-3.93,0-14.24-.15-16.74-1A1.76,1.76,0,0,1,276.06,413.58Z" style="fill:#263238"></path><polygon points="291.02 408.81 301.62 409.1 302.11 403.1 289.81 403.84 291.02 408.81" style="fill:#00C6FF"></polygon><path d="M295.7,151.72a7.38,7.38,0,0,1-1.22-.06.2.2,0,0,1-.16-.25.22.22,0,0,1,.25-.18,6.19,6.19,0,0,0,5.09-1.59.21.21,0,1,1,.3.28A6.46,6.46,0,0,1,295.7,151.72Z" style="fill:#263238"></path></g><g id="freepik--Graphic--inject-8"><rect x="348.46" y="310.77" width="8.28" height="1" style="fill:#00C6FF"></rect><rect x="362.87" y="310.77" width="18.6" height="1" style="fill:#00C6FF"></rect><path d="M387.52,270.25h-116L252.82,304.8a2.3,2.3,0,0,0,2,3.39H387.52l9.48-19Z" style="fill:#00C6FF"></path><path d="M257.47,102.84a84,84,0,0,1,76.18,78.93,2.29,2.29,0,0,0,3.32,1.94l14.09-7a3.69,3.69,0,0,1,3.39,0l13.83,6.91a2.3,2.3,0,0,0,3.33-2.16A121.93,121.93,0,0,0,257.18,64.79l-9.37,18.74Z" style="fill:#00C6FF"></path><path d="M257.47,102.84a84,84,0,0,1,76.18,78.93,2.29,2.29,0,0,0,3.32,1.94l14.09-7a3.69,3.69,0,0,1,3.39,0l13.83,6.91a2.3,2.3,0,0,0,3.33-2.16A121.93,121.93,0,0,0,257.18,64.79l-9.37,18.74Z" style="fill:#fff;opacity:0.6000000000000001"></path><path d="M166.35,178.81a84,84,0,0,1,78.94-76.18,2.3,2.3,0,0,0,1.93-3.32l-7.05-14.09a3.83,3.83,0,0,1,0-3.4L247.09,68a2.31,2.31,0,0,0-2.17-3.33A122,122,0,0,0,128.29,179.08L147,188.45Z" style="fill:#00C6FF"></path><path d="M166.35,178.81a84,84,0,0,1,78.94-76.18,2.3,2.3,0,0,0,1.93-3.32l-7.05-14.09a3.83,3.83,0,0,1,0-3.4L247.09,68a2.31,2.31,0,0,0-2.17-3.33A122,122,0,0,0,128.29,179.08L147,188.45Z" style="fill:#fff;opacity:0.4"></path><path d="M242.32,269.92h0A84,84,0,0,1,166.13,191a2.29,2.29,0,0,0-3.31-1.94l-14.08,7a3.81,3.81,0,0,1-1.71.41,3.76,3.76,0,0,1-1.69-.41l-13.84-6.91a2.31,2.31,0,0,0-3.33,2.16,121.39,121.39,0,0,0,33.45,78.91H103l9.6,19.21L103.34,308H242.6L252,289.23Z" style="fill:#00C6FF"></path><path d="M242.32,269.92h0A84,84,0,0,1,166.13,191a2.29,2.29,0,0,0-3.31-1.94l-14.08,7a3.81,3.81,0,0,1-1.71.41,3.76,3.76,0,0,1-1.69-.41l-13.84-6.91a2.31,2.31,0,0,0-3.33,2.16,121.39,121.39,0,0,0,33.45,78.91H103l9.6,19.21L103.34,308H242.6L252,289.23Z" style="fill:#fff;opacity:0.2"></path><path d="M333.44,193.94v0a84,84,0,0,1-78.93,76.17,2.3,2.3,0,0,0-1.94,3.32l7,14.09a3.81,3.81,0,0,1,0,3.39l-6.91,13.83a2.3,2.3,0,0,0,2.16,3.33A121.93,121.93,0,0,0,371.49,193.66l-18.74-9.37Z" style="fill:#00C6FF"></path><path d="M333.44,193.94v0a84,84,0,0,1-78.93,76.17,2.3,2.3,0,0,0-1.94,3.32l7,14.09a3.81,3.81,0,0,1,0,3.39l-6.91,13.83a2.3,2.3,0,0,0,2.16,3.33A121.93,121.93,0,0,0,371.49,193.66l-18.74-9.37Z" style="fill:#fff;opacity:0.8"></path></g><g id="freepik--character-1--inject-8"><path d="M249.05,184.35l-5.47-15.65-8.32.77a39.59,39.59,0,0,0-7-7.85l1.71-8.18L215,146.24l-5.34,6.43a39.28,39.28,0,0,0-10.52-.6l-4.57-7-15.65,5.47.77,8.32a39.59,39.59,0,0,0-7.85,7l-8.19-1.71-7.2,14.94,6.44,5.34a39.28,39.28,0,0,0-.6,10.52l-7,4.57,5.47,15.65,8.31-.77a39.73,39.73,0,0,0,7,7.86l-1.71,8.18,14.94,7.2,5.34-6.44a39.21,39.21,0,0,0,10.51.6l4.58,7,15.65-5.47-.77-8.31a40,40,0,0,0,7.85-7l8.18,1.71,7.2-14.94-6.43-5.33a39.3,39.3,0,0,0,.6-10.52Zm-40.84,24.84a18.26,18.26,0,1,1,11.21-23.26A18.27,18.27,0,0,1,208.21,209.19Z" style="fill:#00C6FF"></path><path d="M148.1,194.24c-.47.74-1,1.71-1.59,2.58s-1.06,1.82-1.57,2.75c-1,1.85-2,3.73-2.94,5.64a114,114,0,0,0-5,11.72c-.63,1.58,0,.64-.73-.35-.34-.41-.56-.4-.44-.33a2.16,2.16,0,0,0,.72.25,22,22,0,0,0,5.63.2c4.15-.25,8.54-.88,12.8-1.57H155a2.24,2.24,0,0,1,1.2,4.29,72,72,0,0,1-13.2,4.07c-1.16.22-2.35.41-3.6.53a19.4,19.4,0,0,1-4,0,10.86,10.86,0,0,1-2.5-.57,6.68,6.68,0,0,1-3.09-2.26,6,6,0,0,1-1-2.2,6.79,6.79,0,0,1-.14-2.11,8.39,8.39,0,0,1,.3-1.58l.24-.84a91.1,91.1,0,0,1,4.72-13.05c.94-2.11,2-4.19,3.09-6.22q.84-1.53,1.74-3c.62-1,1.2-1.95,2-3a4.5,4.5,0,0,1,7.47,5Z" style="fill:#7f3e3b"></path><path d="M165.09,219.65,163,221.38a3.13,3.13,0,0,1-2.82.63l-4.61-1.21a5.89,5.89,0,0,1-4-3.62l-.41-1.1c3.26-3.11,9.07-4.08,9.07-4.08l1.63-.45a2.62,2.62,0,0,1,3.3,1.75l1,3.21A3,3,0,0,1,165.09,219.65Z" style="fill:#7f3e3b"></path><path d="M153.87,161.07c1.44,5.31,3.2,15-.25,18.58,0,0-2.65,5,13,4.17,11-.56,3.49-4.17,3.49-4.17-6-1.42-6.2-5.81-5.47-9.93Z" style="fill:#7f3e3b"></path><path d="M130.79,383.15l-10.15-3.74c-.89,7.84-4.07,19.81-4.07,19.81l7.12,3S128.43,387.92,130.79,383.15Z" style="fill:#7f3e3b"></path><path d="M125.35,414c-5.43-4-5-3.78-8-6.12-2.55-2-3.39-2.13-5.46-3.72-1.73-1.32-.56-3,1.26-4.68.69-.63,1.56-1.33,2.55-2.24a1.62,1.62,0,0,1,2.06-.1l6.36,4.65a1.86,1.86,0,0,1,.75,1.49,11.37,11.37,0,0,0,3.72,8.17C131.29,414,127.52,415.59,125.35,414Z" style="fill:#263238"></path><path d="M174.76,236s-10.69,55.05-19,80.7c-8.7,27-21.42,56.93-27.19,74.48-1.79.23-6.9-1.9-9.4-4,0,0,3.81-46,16.85-69.8C134.72,247.94,147.92,236,147.92,236Z" style="fill:#00C6FF"></path><path d="M174.76,236s-10.69,55.05-19,80.7c-8.7,27-21.42,56.93-27.19,74.48-1.79.23-6.9-1.9-9.4-4,0,0,3.81-46,16.85-69.8C134.72,247.94,147.92,236,147.92,236Z" style="opacity:0.30000000000000004"></path><path d="M154.9,256.6l11,21c-2.52,11-5.32,22.47-8,31.79C149.93,287,154.9,256.6,154.9,256.6Z" style="opacity:0.2"></path><path d="M130.77,387.87a23,23,0,0,0-.72,3.66.7.7,0,0,1-.93.59c-3.9-1-9-4-10.67-5a.9.9,0,0,1-.44-.87l.45-3.52a.71.71,0,0,1,1-.52l10.72,4.64A.91.91,0,0,1,130.77,387.87Z" style="fill:#263238"></path><path d="M183.65,387.86l-9.75.72c1.6,7.78,3.27,20.06,3.27,20.06h7.74S183.53,393.19,183.65,387.86Z" style="fill:#7f3e3b"></path><path d="M193.1,416.32c-6.73,0-6.25-.1-10-.23-3.24-.11-4,.29-6.62.23-2.17,0-2.09-2.12-1.41-4.52.25-.92.62-2,1-3.31a1.75,1.75,0,0,1,1.69-1.3h7.88a1.69,1.69,0,0,1,1.43.75,10.34,10.34,0,0,0,7.5,4.39C198.15,412.82,195.79,416.32,193.1,416.32Z" style="fill:#263238"></path><path d="M183.06,236s1.22,48,2.31,77.85-1.25,82.68-1.25,82.68c-.22,1.45-7.83.87-9.12,0,0,0-14.55-42.8-9-79.83-19.48-48-13.86-79.52-13.86-79.52Z" style="fill:#00C6FF"></path><path d="M183.06,236s1.22,48,2.31,77.85-1.25,82.68-1.25,82.68c-.22,1.45-7.83.87-9.12,0,0,0-14.55-42.8-9-79.83-19.48-48-13.86-79.52-13.86-79.52Z" style="opacity:0.30000000000000004"></path><path d="M185.16,392.47c0,1,.09,2.75.18,4a.82.82,0,0,1-.72.86,54.21,54.21,0,0,1-10.07-.11.73.73,0,0,1-.66-.6l-.68-3.53a.82.82,0,0,1,.78-1l10.39-.42A.74.74,0,0,1,185.16,392.47Z" style="fill:#263238"></path><path d="M149.8,227.58a70.1,70.1,0,0,1-1,8.37H182.7l.36-8.63S156.9,225.84,149.8,227.58Z" style="fill:#7f3e3b"></path><path d="M186.32,192.34a144,144,0,0,1-.24,15.64c-.28,6.8,1,8.46,0,19.6-3.72,2.17-28.19,2.09-40.22.53.73-9.63,1.62-16.12-4.9-37.79-1.51-5,1.86-9.85,7.25-10.37,1.44-.13,3-.25,4.53-.32a122.81,122.81,0,0,1,16.51,0c1.79.15,3.65.37,5.43.6C181.06,181.07,186.12,186.32,186.32,192.34Z" style="fill:#263238"></path><path d="M235.84,217.59l-1.35-2.35a3.19,3.19,0,0,0-2.44-1.56l-4.74-.45a5.89,5.89,0,0,0-5,2l-.77.9c2,4,7.12,7,7.12,7l1.37,1a2.63,2.63,0,0,0,3.7-.5l2-2.69A3,3,0,0,0,235.84,217.59Z" style="fill:#7f3e3b"></path><path d="M189.41,194.77l.44.68c.19.29.37.59.59.89.42.6.89,1.19,1.37,1.78a45.86,45.86,0,0,0,3.16,3.42c1.13,1.09,2.32,2.15,3.57,3.16s2.56,2,3.89,2.88l-.78-.36a57.88,57.88,0,0,0,5.62,1.72c2,.51,4,1,6,1.5l6.13,1.46c2.05.5,4.11,1,6.15,1.49h0a2.24,2.24,0,0,1-.55,4.42c-2.17,0-4.3-.1-6.44-.2s-4.28-.29-6.43-.49-4.29-.46-6.45-.8a49.92,49.92,0,0,1-6.7-1.41,2.72,2.72,0,0,1-.58-.24l-.21-.12c-.81-.47-1.63-.92-2.44-1.4s-1.61-1-2.38-1.55a43.21,43.21,0,0,1-4.52-3.52,39.26,39.26,0,0,1-4.08-4.17c-.63-.76-1.24-1.54-1.82-2.38-.29-.41-.58-.85-.85-1.3-.14-.23-.27-.45-.41-.71s-.25-.44-.46-.88a4.48,4.48,0,0,1,7.82-4.35Z" style="fill:#7f3e3b"></path><path d="M176.16,180.72c6.6,1.75,12.26,7.41,20,18.58-1.08,4.56-11,9.83-11,9.83S164.5,188.55,176.16,180.72Z" style="fill:#263238"></path><path d="M171.15,151.21c.24.69.81,1.14,1.26,1s.61-.79.36-1.48-.81-1.15-1.26-1S170.9,150.52,171.15,151.21Z" style="fill:#263238"></path><path d="M171.33,149.82l1.47-.94S172.42,150.41,171.33,149.82Z" style="fill:#263238"></path><path d="M171.67,152.5a21.59,21.59,0,0,0,4,3.71,2.9,2.9,0,0,1-2.28,1.15Z" style="fill:#630f0f"></path><path d="M170.1,145.48a.37.37,0,0,0,.25-.17.43.43,0,0,0-.16-.58,4.53,4.53,0,0,0-3.95-.45.39.39,0,0,0-.18.55.46.46,0,0,0,.58.21,3.59,3.59,0,0,1,3.12.39A.46.46,0,0,0,170.1,145.48Z" style="fill:#263238"></path><path d="M147.46,155.12c3.3,8.08,4.52,11.56,10.14,14.61,8.45,4.58,17.7-.65,16.89-9.41-.72-7.88-6-19.76-15.22-20.77A11.18,11.18,0,0,0,147.46,155.12Z" style="fill:#7f3e3b"></path><path d="M166.22,154.93c2.71,5.94,2.36,22.78-12.77,17.56s-14.07-13.43-10-20c-8.21-7.35,2.4-13.18,12.15-15.83S173.91,136.39,166.22,154.93Z" style="fill:#263238"></path><path d="M151.4,154.41a6.46,6.46,0,1,1-7.62-5A6.48,6.48,0,0,1,151.4,154.41Z" style="fill:#00C6FF"></path><path d="M146.65,164.88c3-6,.56-13.46-4.09-18.28-8.8-9.13-21-3.13-17.6,5.9,4,10.77-17.08,21.84-4.79,28.22,12,6.25,32-4.77,26.38-15.62C146.58,165,146.62,165,146.65,164.88Z" style="fill:#263238"></path><path d="M162.86,155.37a6,6,0,0,0,4,2.8c2,.32,2.66-2,1.77-4.24-.81-2-2.84-4.55-4.73-3.85S161.66,153.47,162.86,155.37Z" style="fill:#7f3e3b"></path><path d="M147.84,180c-5.92.91-8.29,2.71-13.12,14.6,2.19,4.43,12.46,8.68,12.46,8.68S154,187.92,147.84,180Z" style="fill:#263238"></path><path d="M183.12,238.55a163.09,163.09,0,0,1-36.49-.08.83.83,0,0,1-.63-1.16c.3-.7.59-1.4.88-2.1a.78.78,0,0,1,.79-.48,160.09,160.09,0,0,0,35.08,0,.79.79,0,0,1,.85.73c.07.73.15,1.45.22,2.18A.82.82,0,0,1,183.12,238.55Z" style="fill:#263238"></path></g></svg>