<svg xmlns="http://www.w3.org/2000/svg" viewBox="0 0 500 500"><g id="freepik--background-simple--inject-15"><path d="M104.44,342.55C108,352.23,117,359.78,127,362.34c15,3.87,30-5,45-9.07,26.64-7.23,54.73.79,81.34,8.11s55.47,13.88,81.25,4c22.13-8.46,38.36-27.91,49.58-48.77,21.3-39.65,27.59-85.52,30.71-130.42,1.39-20,2.16-40.65-4.17-59.71S389.54,90,369.83,86.17c-18.92-3.69-38.06,5.57-53.35,17.31s-28.55,26.27-45.24,35.91c-24.32,14-54,16.38-81.75,12.05-17.18-2.68-45.83-35.25-75-23.21C83.46,141,69.94,249.3,104.44,342.55Z" style="fill:#00C6FF"></path><path d="M104.44,342.55C108,352.23,117,359.78,127,362.34c15,3.87,30-5,45-9.07,26.64-7.23,54.73.79,81.34,8.11s55.47,13.88,81.25,4c22.13-8.46,38.36-27.91,49.58-48.77,21.3-39.65,27.59-85.52,30.71-130.42,1.39-20,2.16-40.65-4.17-59.71S389.54,90,369.83,86.17c-18.92-3.69-38.06,5.57-53.35,17.31s-28.55,26.27-45.24,35.91c-24.32,14-54,16.38-81.75,12.05-17.18-2.68-45.83-35.25-75-23.21C83.46,141,69.94,249.3,104.44,342.55Z" style="fill:#fff;opacity:0.9"></path></g><g id="freepik--Shadows--inject-15"><g id="freepik--Shadow--inject-214--inject-15"><ellipse id="freepik--path--inject-214--inject-15" cx="250" cy="410.07" rx="193.89" ry="11.32" style="fill:#f5f5f5"></ellipse></g></g><g id="freepik--Plants--inject-15"><path d="M391.11,335.67c-10,7.71-12.89,24.6-13.4,36.5,0,1.09-1.73,1.09-1.69,0,.53-12.6,3.4-29.61,14.24-38,.86-.67,1.71.8.85,1.46Z" style="fill:#263238"></path><path d="M367.89,327c2.55-.29,4.7,2.32,5.81,4.23,5.75,9.95,3.53,25,2.44,35.65-.11,1.07-1.81,1.08-1.7,0,1.06-10.39,3-23.93-1.7-33.81-.81-1.69-2.53-4.64-4.85-4.37-1.08.12-1.07-1.57,0-1.7Z" style="fill:#263238"></path><path d="M361.69,340.7c10.7-2.64,12,21.09,12.35,26.21.07,1.09-1.62,1.08-1.69,0-.43-6.93-.77-16.85-5.78-22.4-1-1.12-2.77-2.59-4.43-2.17-1.06.26-1.51-1.38-.45-1.64Z" style="fill:#263238"></path><path d="M393.41,352.22c-8.85-6.56-11.73,10.66-12.22,15.63-.11,1.07-1.8,1.08-1.69,0,.55-5.63,1.41-15.84,7.91-18.2a7.57,7.57,0,0,1,6.85,1.11c.87.64,0,2.11-.85,1.46Z" style="fill:#263238"></path><path d="M358.21,355.33a6.27,6.27,0,0,1,5.27-1.92c5.4.9,6.89,9,7.71,13.27.21,1.07-1.42,1.52-1.63.45-.71-3.64-4.11-16.72-10.15-10.61a.85.85,0,0,1-1.2-1.19Z" style="fill:#263238"></path><path d="M390.08,410.82H364.49A20.71,20.71,0,0,1,357.14,395c0-7.26,4.08-29,4.08-29h32.13s4.08,21.77,4.08,29A20.71,20.71,0,0,1,390.08,410.82Z" style="fill:#263238"></path><path d="M394.16,360.57c-7.72,0-15.28-3.13-16.87-7s3.36-7,11.08-7a29.93,29.93,0,0,1,7.37.94,21.58,21.58,0,0,1,6.6-.94c7.72,0,15.27,3.13,16.87,7s-3.36,7-11.08,7Z" style="fill:#00C6FF"></path><path d="M394.16,360.57c-7.72,0-15.28-3.13-16.87-7s3.36-7,11.08-7a29.93,29.93,0,0,1,7.37.94,21.58,21.58,0,0,1,6.6-.94c7.72,0,15.27,3.13,16.87,7s-3.36,7-11.08,7Z" style="opacity:0.1"></path><path d="M343.79,345.61c-6.31,0-8.87-2.56-5.71-5.72s10.83-5.71,17.15-5.71a13.37,13.37,0,0,1,4.94.77,29.92,29.92,0,0,1,6.49-.77c6.31,0,8.87,2.56,5.71,5.71s-10.83,5.72-17.14,5.72Z" style="fill:#00C6FF"></path><path d="M401.86,339.89c-7.95,0-17.6-3.22-21.58-7.19s-.75-7.19,7.2-7.19a38.07,38.07,0,0,1,8.16,1,16.9,16.9,0,0,1,6.22-1c7.94,0,17.6,3.22,21.57,7.19s.75,7.19-7.19,7.19Z" style="fill:#00C6FF"></path><path d="M401.86,339.89c-7.95,0-17.6-3.22-21.58-7.19s-.75-7.19,7.2-7.19a38.07,38.07,0,0,1,8.16,1,16.9,16.9,0,0,1,6.22-1c7.94,0,17.6,3.22,21.57,7.19s.75,7.19-7.19,7.19Z" style="fill:#fff;opacity:0.2"></path><path d="M357.7,330.61c-4,0-6.53-1.61-5.7-3.6s4.71-3.59,8.68-3.59a10.86,10.86,0,0,1,3.39.48,15.22,15.22,0,0,1,3.8-.48c4,0,6.52,1.61,5.7,3.59s-4.71,3.6-8.68,3.6Z" style="fill:#00C6FF"></path><path d="M357.7,330.61c-4,0-6.53-1.61-5.7-3.6s4.71-3.59,8.68-3.59a10.86,10.86,0,0,1,3.39.48,15.22,15.22,0,0,1,3.8-.48c4,0,6.52,1.61,5.7,3.59s-4.71,3.6-8.68,3.6Z" style="fill:#fff;opacity:0.30000000000000004"></path><path d="M353.12,359.37c-4,0-7.86-1.61-8.68-3.59s1.73-3.6,5.7-3.6a15.22,15.22,0,0,1,3.8.49,10.84,10.84,0,0,1,3.39-.49c4,0,7.86,1.61,8.68,3.6s-1.73,3.59-5.7,3.59Z" style="fill:#00C6FF"></path><path d="M353.12,359.37c-4,0-7.86-1.61-8.68-3.59s1.73-3.6,5.7-3.6a15.22,15.22,0,0,1,3.8.49,10.84,10.84,0,0,1,3.39-.49c4,0,7.86,1.61,8.68,3.6s-1.73,3.59-5.7,3.59Z" style="opacity:0.2"></path><path d="M360.49,370c.43-2.44.73-4,.73-4h32.13s.3,1.59.73,4Z" style="fill:#00C6FF"></path><path d="M359.09,336.34s-8.81,2.94-11.6,7.78C347.49,344.12,347.93,337.07,359.09,336.34Z" style="fill:#fafafa"></path><path d="M363.24,324.81a13,13,0,0,0-3.69,3.18A4.5,4.5,0,0,1,363.24,324.81Z" style="fill:#fafafa"></path><path d="M397.43,328s9.55,3.5,15.43,10.11A19.84,19.84,0,0,0,397.43,328Z" style="fill:#fafafa"></path><path d="M397.43,349.26a24,24,0,0,1,10,7.79S405.66,350.43,397.43,349.26Z" style="fill:#e6e6e6"></path><path d="M354.09,354.11a4.7,4.7,0,0,1,2.5,3.82A8.43,8.43,0,0,1,354.09,354.11Z" style="fill:#fafafa"></path><path d="M107.55,221a3.36,3.36,0,0,1,3.57-1.78,3.53,3.53,0,0,1,2.66,3.09,3,3,0,0,1,3.4-.09,3.38,3.38,0,0,1,1.36,3.28,2.51,2.51,0,0,1,3.63.74,2.81,2.81,0,0,1-1.11,3.72,1.8,1.8,0,0,1-.09,3.58,1.94,1.94,0,0,1,1.78,1.7,2,2,0,0,1-1.34,2.11,1.63,1.63,0,0,1,.39,2.52,1.47,1.47,0,0,1-2.32-.73.48.48,0,0,1-.76.12.54.54,0,0,1,.15-.8.9.9,0,0,1-1.54-.39c.3,1.6-1.61,3.12-3,2.35a1.36,1.36,0,0,1-.89,1.82,3,3,0,0,1-2.16-.42,4.77,4.77,0,0,0-2.12-.71,6.5,6.5,0,0,0-1.89.52,5.71,5.71,0,0,1-5.78-1.52,2.45,2.45,0,0,1-4.11-.63A1.85,1.85,0,0,1,95.78,241,1.82,1.82,0,0,1,94,239.68c0,.35,0,.7-.05,1.06-1.43.34-2.85-1.52-2.24-2.93a2.25,2.25,0,0,1-2.13-1.95,2.32,2.32,0,0,1,1.59-2.45,4.33,4.33,0,0,1-.08-8.22,2.06,2.06,0,0,1,2,.27,1.25,1.25,0,0,1,0,1.87,4,4,0,0,1,1.7-4.47,3.53,3.53,0,0,1,4.46.95,2.24,2.24,0,0,1,0-2.47,2,2,0,0,1,2.23-.75,2.23,2.23,0,0,1,2.41-1.83,2.33,2.33,0,0,1,1.82,2.49,1.13,1.13,0,0,1,2-.39C108.34,220.69,107.55,221,107.55,221Z" style="fill:#00C6FF"></path><g style="opacity:0.4"><path d="M107.15,231.71a2,2,0,0,1,1.53-.37,1.41,1.41,0,0,1,1.12,1,1.09,1.09,0,0,1-.75,1.26c-.64.16-1.28-.37-1.93-.28a4.31,4.31,0,0,0-.67.21,3.33,3.33,0,0,1-2.64-.94,3,3,0,0,1-.73-.7,1,1,0,0,1-.08-1,1.28,1.28,0,0,1,1.28-.42,5.14,5.14,0,0,1,2.6,1.09c0-.15,0-.3-.08-.45Z" style="fill:#fafafa"></path><path d="M93.56,230.9a2.69,2.69,0,0,1,.82-.43.75.75,0,0,1,.61,1.36,2.46,2.46,0,0,1-1.19.41c-.43.06-1,.08-1.19-.3a.75.75,0,0,1,.2-.86,2.26,2.26,0,0,1,.85-.42Z" style="fill:#fafafa"></path><path d="M115,223.84a3,3,0,0,1,1.74,2.07c.06.28,0,.63-.19.78a.8.8,0,0,1-.59,0l-2.49-.59a3.43,3.43,0,0,1,1.12.59,1.22,1.22,0,0,1,.43,1.14,1.16,1.16,0,0,1-1.15.78,2.5,2.5,0,0,1-1.37-.55,1.76,1.76,0,0,1-.87-1.27c0-.54.67-1,1.08-.69a9.22,9.22,0,0,1-2.67-1.21,2.48,2.48,0,0,1-.78-.73,1,1,0,0,1-.07-1c.85-1.55,1.92.72,2.44.92C112.64,224.46,113.76,223.31,115,223.84Z" style="fill:#fafafa"></path><path d="M118.89,230.43a.85.85,0,0,1-.22.86.53.53,0,0,1-.8-.16,2.77,2.77,0,0,1,1.5.84c.34.47.26,1.28-.29,1.46a1.32,1.32,0,0,1-1-.23,18.28,18.28,0,0,1-2.56-1.69c.24.57-.35,1.22-1,1.27a3,3,0,0,1-1.73-.6c-.65-.4-1.39-1-1.22-1.75a1.27,1.27,0,0,1,1.61-.74,3.66,3.66,0,0,1,1.55,1.19c-.34-.5.15-1.26.76-1.34a1.84,1.84,0,0,1,1.56.72c-.69-.38-.85-1.37.08-1.49C117.72,228.7,118.74,229.93,118.89,230.43Z" style="fill:#fafafa"></path><path d="M99.91,228.21a1,1,0,1,1,.5,1.92,1.6,1.6,0,0,1,1.06.55.86.86,0,0,1,.22.62.76.76,0,0,1-.75.57,2.2,2.2,0,0,1-1-.27,1.84,1.84,0,0,1,1,.27.62.62,0,0,1,.14.88.83.83,0,0,1-.8.09,3.91,3.91,0,0,1-1.62-.92,1.61,1.61,0,0,1-1.37.58.94.94,0,0,1-.78-1.12,1,1,0,0,1,.84-.61,2.66,2.66,0,0,1,1.08.17,2,2,0,0,1-.86-1c-.13-.42.15-1,.59-.94s.74.7,1.13.94C99.76,229.54,98.86,228.6,99.91,228.21Z" style="fill:#fafafa"></path><path d="M108.77,226.16a2,2,0,0,1,.71,1.8,2.07,2.07,0,0,1-1.06,1.84,1.7,1.7,0,0,1-2.19-1.32,2.4,2.4,0,0,1,1.34-2.4A1.31,1.31,0,0,1,108.77,226.16Z" style="fill:#fafafa"></path><path d="M102.49,225.36l-.23.2a1.12,1.12,0,1,1,0,1.4,1.68,1.68,0,0,1-2-.37,1.28,1.28,0,0,1,.27-1.87,1,1,0,0,1,1.5.89l.27-.3Z" style="fill:#fafafa"></path><path d="M95.57,226.48a3.68,3.68,0,0,1,1.07,1.5,1.24,1.24,0,0,1-.71,1.53c-.6.15-1.17-.35-1.52-.86a1.87,1.87,0,0,1-.36-1.58c.17-.53.94-.84,1.32-.43Z" style="fill:#fafafa"></path><path d="M105.55,222.84a1,1,0,0,1,1.41-.39,1.25,1.25,0,0,1,.44,1.47,1.57,1.57,0,0,1-1.28.92c-.68.08-1.49-.47-1.33-1.14a1.49,1.49,0,0,1-1.31.49,3.53,3.53,0,0,1-1.35-.51c-.57-.33-1.18-.84-1.12-1.49a1.16,1.16,0,0,1,1.07-1,2,2,0,0,1,1.44.54,11.88,11.88,0,0,0,.92.83,1.15,1.15,0,0,0,1.16.17Z" style="fill:#fafafa"></path></g><polygon points="97.02 253.73 114.19 253.73 115.87 236.43 95.34 236.43 97.02 253.73" style="fill:#00C6FF"></polygon><polygon points="97.02 253.73 114.19 253.73 115.87 236.43 95.34 236.43 97.02 253.73" style="opacity:0.30000000000000004"></polygon><polygon points="94.01 237.32 117.37 237.32 117.79 235.02 93.59 235.02 94.01 237.32" style="fill:#fafafa"></polygon></g><g id="freepik--Desk--inject-15"><path d="M123.31,264.58h7.52l.22,144.06a2.74,2.74,0,0,1-2.73,2.74h0a2.73,2.73,0,0,1-2.73-2.7Z" style="fill:#263238"></path><path d="M123.31,264.58h7.52l.22,144.06a2.74,2.74,0,0,1-2.73,2.74h0a2.73,2.73,0,0,1-2.73-2.7Z" style="fill:#fff;opacity:0.2"></path><path d="M82.18,264.58h7.53l.21,144.06a2.73,2.73,0,0,1-2.73,2.74h0a2.73,2.73,0,0,1-2.73-2.7Z" style="fill:#263238"></path><path d="M82.18,264.58h7.53l.21,144.06a2.73,2.73,0,0,1-2.73,2.74h0a2.73,2.73,0,0,1-2.73-2.7Z" style="fill:#fff;opacity:0.2"></path><path d="M302.19,264.58h7.53l.21,144.06a2.73,2.73,0,0,1-2.73,2.74h0a2.73,2.73,0,0,1-2.73-2.7Z" style="fill:#263238"></path><path d="M302.19,264.58h7.53l.21,144.06a2.73,2.73,0,0,1-2.73,2.74h0a2.73,2.73,0,0,1-2.73-2.7Z" style="fill:#fff;opacity:0.2"></path><path d="M261.07,264.58h7.52l.22,144.06a2.74,2.74,0,0,1-2.73,2.74h0a2.74,2.74,0,0,1-2.74-2.7Z" style="fill:#263238"></path><path d="M261.07,264.58h7.52l.22,144.06a2.74,2.74,0,0,1-2.73,2.74h0a2.74,2.74,0,0,1-2.74-2.7Z" style="fill:#fff;opacity:0.2"></path><polygon points="82.48 291.58 309.01 289.88 309.01 264.58 82.43 264.58 82.48 291.58" style="fill:#00C6FF"></polygon><polygon points="123.31 264.77 123.73 291.26 82.48 291.58 82.43 264.58 123.31 264.77" style="opacity:0.30000000000000004"></polygon><path d="M317.83,258.51h0c0-3.41-1.27-6.17-2.83-6.18H79c-1.56,0-2.83,2.77-2.83,6.18h0c0,3.4,1.27,6.16,2.83,6.18H315C316.56,264.67,317.83,261.91,317.83,258.51Z" style="fill:#263238"></path><path d="M317.83,258.51h0c0-3.41-1.27-6.17-2.83-6.18H79c-1.56,0-2.83,2.77-2.83,6.18h0c0,3.4,1.27,6.16,2.83,6.18H315C316.56,264.67,317.83,261.91,317.83,258.51Z" style="fill:#fff;opacity:0.1"></path><path d="M137.09,258.51h0c0-3.41-1.27-6.17-2.84-6.18H79c-1.56,0-2.83,2.77-2.83,6.18h0c0,3.4,1.27,6.16,2.83,6.18h55.24C135.82,264.67,137.08,261.91,137.09,258.51Z" style="opacity:0.30000000000000004"></path></g><g id="freepik--speech-bubble--inject-15"><path d="M231.08,135.57a2.73,2.73,0,0,1-2.73-2.73v-6.73H227a3.51,3.51,0,0,1-3.51-3.51V90.73a3.51,3.51,0,0,1,3.5-3.49h49.74a3.5,3.5,0,0,1,3.5,3.5V122.6a3.51,3.51,0,0,1-3.51,3.51h-32.5L232.72,135A2.7,2.7,0,0,1,231.08,135.57ZM227,88.24a2.51,2.51,0,0,0-2.5,2.49V122.6a2.52,2.52,0,0,0,2.51,2.51h2.32v7.73a1.73,1.73,0,0,0,1.73,1.73,1.77,1.77,0,0,0,1-.34l11.79-9.12h32.84a2.52,2.52,0,0,0,2.51-2.51V90.74a2.5,2.5,0,0,0-2.5-2.5H227Z" style="fill:#00C6FF"></path><rect x="242.98" y="83.26" width="6.23" height="0.76" style="fill:#00C6FF"></rect><path d="M220.08,92.24h-.77V88.48a5.24,5.24,0,0,1,5.24-5.23h13.89V84H224.55a4.47,4.47,0,0,0-4.47,4.47Z" style="fill:#00C6FF"></path><circle cx="240.65" cy="106.11" r="3.3" style="fill:#00C6FF"></circle><path d="M255.08,106.11a3.31,3.31,0,1,1-3.31-3.3A3.31,3.31,0,0,1,255.08,106.11Z" style="fill:#00C6FF"></path><circle cx="262.9" cy="106.11" r="3.3" style="fill:#00C6FF"></circle></g><g id="freepik--character-1--inject-15"><path d="M142,186.47l4-.19,5.57,61.57h-4.21c-2.11-.2-2.6-2.56-3.19-7l-3.9-43C139.29,187.66,141,186.47,142,186.47Z" style="fill:#00C6FF"></path><path d="M142,186.47l4-.19,5.57,61.57h-4.21c-2.11-.2-2.6-2.56-3.19-7l-3.9-43C139.29,187.66,141,186.47,142,186.47Z" style="opacity:0.30000000000000004"></path><path d="M148.29,247.85h83.44a1.63,1.63,0,0,0,1.49-1.93L228,188.21a2,2,0,0,0-1.85-1.93H142.71a1.63,1.63,0,0,0-1.49,1.93l5.22,57.71A2,2,0,0,0,148.29,247.85Z" style="fill:#00C6FF"></path><polygon points="151.49 240.56 227.27 240.56 223.07 192.52 147.29 192.52 151.49 240.56" style="fill:#00C6FF"></polygon><path d="M152.53,244.32h74.68a3.46,3.46,0,0,0,3.5-3.84l-4.18-47.74a4.27,4.27,0,0,0-4.17-3.83H147.68a3.47,3.47,0,0,0-3.5,3.83l4.18,47.74A4.27,4.27,0,0,0,152.53,244.32Z" style="fill:#263238"></path><polygon points="151.49 240.56 227.27 240.56 223.07 192.52 147.29 192.52 151.49 240.56" style="fill:#00C6FF"></polygon><polygon points="151.49 240.56 227.27 240.56 223.07 192.52 147.29 192.52 151.49 240.56" style="fill:#fff;opacity:0.4"></polygon><polygon points="173.29 188.93 158.49 244.3 163.47 244.3 178.11 188.93 173.29 188.93" style="fill:#fff;opacity:0.1;isolation:isolate"></polygon><polygon points="180.98 188.93 166.18 244.3 176.05 244.3 190.69 188.93 180.98 188.93" style="fill:#fff;opacity:0.1;isolation:isolate"></polygon><path d="M158.21,206.85a3.33,3.33,0,0,1-3.37,3.84,4.47,4.47,0,0,1-4.31-3.84A3.33,3.33,0,0,1,153.9,203,4.47,4.47,0,0,1,158.21,206.85Z" style="fill:#00C6FF"></path><path d="M158.21,206.85a3.33,3.33,0,0,1-3.37,3.84,4.47,4.47,0,0,1-4.31-3.84A3.33,3.33,0,0,1,153.9,203,4.47,4.47,0,0,1,158.21,206.85Z" style="opacity:0.30000000000000004"></path><path d="M154.84,210.69A3.46,3.46,0,0,0,157,210l-.36-1.2a1.1,1.1,0,0,0-1-.79h-.46l-.06-.5a1.42,1.42,0,0,0,.67-1.47,1.78,1.78,0,0,0-1.64-1.61,1.33,1.33,0,0,0-1.24,1.61,1.88,1.88,0,0,0,1,1.47l.06.5h-.46a.82.82,0,0,0-.84.79l-.07,1.2A4.29,4.29,0,0,0,154.84,210.69Z" style="fill:#fff"></path><path d="M161,206.12h15.1c.7,0,.56-1.08-.13-1.08H160.81c-.69,0-.56,1.08.14,1.08Z" style="fill:#fff"></path><path d="M161.26,208.66h19.9c.46,0,.37-.72-.09-.72h-19.9c-.46,0-.38.72.09.72Z" style="fill:#fff"></path><path d="M184.9,208.3a.72.72,0,0,1-.74.84,1,1,0,0,1-.95-.84.73.73,0,0,1,.74-.85A1,1,0,0,1,184.9,208.3Z" style="fill:#263238"></path><path d="M184.9,208.3a.72.72,0,0,1-.74.84,1,1,0,0,1-.95-.84.73.73,0,0,1,.74-.85A1,1,0,0,1,184.9,208.3Z" style="fill:#fff;opacity:0.5"></path><polygon points="147.29 192.52 147.66 196.82 223.44 196.82 223.07 192.52 147.29 192.52" style="fill:#00C6FF"></polygon><path d="M150.77,194.43a.79.79,0,0,1-.8.87,1,1,0,0,1-.94-.87.78.78,0,0,1,.79-.86A1,1,0,0,1,150.77,194.43Z" style="fill:#fff"></path><path d="M153.05,194.43a.78.78,0,0,1-.79.87,1,1,0,0,1-.94-.87.78.78,0,0,1,.79-.86A1,1,0,0,1,153.05,194.43Z" style="fill:#fff"></path><path d="M155.34,194.43a.79.79,0,0,1-.79.87,1,1,0,0,1-1-.87.78.78,0,0,1,.79-.86A1,1,0,0,1,155.34,194.43Z" style="fill:#fff"></path><rect x="145.72" y="248.02" width="88.68" height="4.7" rx="1.81" style="fill:#00C6FF"></rect><rect x="145.72" y="248.02" width="88.68" height="4.7" rx="1.81" style="opacity:0.30000000000000004"></rect><path d="M179.47,248h87.95a0,0,0,0,1,0,0v1.07a3.62,3.62,0,0,1-3.62,3.62h-80.7a3.62,3.62,0,0,1-3.62-3.62V248A0,0,0,0,1,179.47,248Z" style="fill:#00C6FF"></path><path d="M179.47,248h87.95a0,0,0,0,1,0,0v1.07a3.62,3.62,0,0,1-3.62,3.62h-80.7a3.62,3.62,0,0,1-3.62-3.62V248A0,0,0,0,1,179.47,248Z" style="fill:#fff;opacity:0.4"></path><path d="M219.1,248.15a2.36,2.36,0,0,0,2.35,2.35h10.76a2.35,2.35,0,0,0,2.35-2.35Z" style="opacity:0.30000000000000004"></path><polygon points="227.27 240.67 151.55 240.67 151.14 235.99 226.86 235.99 227.27 240.67" style="fill:#00C6FF"></polygon><polygon points="217.12 238.63 164.52 238.63 164.49 238.21 217.09 238.21 217.12 238.63" style="fill:#fff"></polygon><path d="M218.61,238.65c0,.2-.11.36-.41.36a.75.75,0,0,1-.43-.13l.08-.16a.52.52,0,0,0,.33.11c.15,0,.23-.06.22-.17s-.08-.17-.31-.17h-.27v-.6h.65v.17H218v.26h.11C218.45,238.32,218.59,238.46,218.61,238.65Z" style="fill:#fff"></path><path d="M218.68,238.27a.12.12,0,0,1,.12-.13.13.13,0,0,1,.14.13.11.11,0,0,1-.11.13A.14.14,0,0,1,218.68,238.27Zm.06.6a.11.11,0,0,1,.12-.13.14.14,0,0,1,.14.13.12.12,0,0,1-.12.13A.13.13,0,0,1,218.74,238.87Z" style="fill:#fff"></path><path d="M219.09,238.44c0-.36.15-.57.41-.57s.48.21.52.57-.15.57-.42.57A.55.55,0,0,1,219.09,238.44Zm.72,0c0-.27-.14-.39-.29-.39s-.25.12-.22.39.14.39.29.39S219.83,238.71,219.81,238.44Z" style="fill:#fff"></path><path d="M220.15,238.44c0-.36.15-.57.42-.57a.55.55,0,0,1,.51.57c0,.36-.15.57-.41.57S220.19,238.8,220.15,238.44Zm.72,0c0-.27-.14-.39-.29-.39s-.24.12-.22.39.14.39.29.39S220.89,238.71,220.87,238.44Z" style="fill:#fff"></path><path d="M153.9,238.82l0,.17h-.82v-.13l.4-.42a.3.3,0,0,0,.11-.23c0-.1-.08-.16-.22-.16a.29.29,0,0,0-.25.12l-.15-.12a.46.46,0,0,1,.4-.18c.24,0,.41.12.42.32a.41.41,0,0,1-.15.35l-.27.28Z" style="fill:#fff"></path><path d="M154,238.27a.11.11,0,0,1,.11-.13.14.14,0,0,1,.15.13.12.12,0,0,1-.12.13A.13.13,0,0,1,154,238.27Zm.05.6a.11.11,0,0,1,.12-.13.14.14,0,0,1,.14.13.12.12,0,0,1-.12.13A.14.14,0,0,1,154,238.87Z" style="fill:#fff"></path><path d="M155.2,238.65c0,.2-.11.36-.41.36a.75.75,0,0,1-.43-.13l.08-.16a.52.52,0,0,0,.33.11c.15,0,.23-.06.22-.17s-.08-.17-.31-.17h-.27v-.6h.65l0,.17h-.48v.26h.11C155,238.32,155.18,238.46,155.2,238.65Z" style="fill:#fff"></path><path d="M155.3,238.44c0-.36.14-.57.41-.57a.55.55,0,0,1,.51.57c0,.36-.15.57-.41.57S155.33,238.8,155.3,238.44Zm.71,0c0-.27-.14-.39-.29-.39s-.24.12-.22.39.14.39.29.39S156,238.71,156,238.44Z" style="fill:#fff"></path><path d="M225.78,240.09h-3.33l-.3-3.34h3.34Zm-2.83-.56h2.23L225,237.3h-2.23Z" style="fill:#fff"></path><polygon points="187.35 237.84 157.28 237.84 157.38 238.99 187.45 238.99 187.35 237.84" style="fill:#263238"></polygon><path d="M188.45,238.38a1,1,0,0,1-1,1.06,1.19,1.19,0,0,1-1.15-1.06,1,1,0,0,1,1-1.06A1.18,1.18,0,0,1,188.45,238.38Z" style="fill:#263238"></path><path d="M188.45,238.38a1,1,0,0,1-1,1.06,1.19,1.19,0,0,1-1.15-1.06,1,1,0,0,1,1-1.06A1.18,1.18,0,0,1,188.45,238.38Z" style="fill:#fff"></path><path d="M217.36,163.85a16.72,16.72,0,0,1,12.4,9.67c4.1,8.78,7.37,21.53,10.44,22.87s16.51-11.89,16.51-11.89-2.74-8.75,1.36-10.12,3.28-7.49,7.11-6.2,6,6.75,5.74,9.76-7.38,9.84-7.38,9.84-12.85,22.86-26,20.77-20.21-32.74-20.21-32.74S213.67,163.38,217.36,163.85Z" style="fill:#eec8c0"></path><path d="M221,187.07c2.88,7.76,5.25,13.37,10.72,18.35-5.92-9.51-5.28-26.54-5.28-26.54Z" style="opacity:0.1"></path><path d="M172.41,166.56a140.05,140.05,0,0,1,14.25-3.29l.16.13.25.24,2.11,1.62,5.74,3.45,4.71.74,4.56-1.11,2.92-4.06.54-2.34v-.07a42.67,42.67,0,0,1,14.88,3.33,5.06,5.06,0,0,1,2.92,4.3,151.15,151.15,0,0,0,2,16.1c1.9,11.22-3.92,36.33-6.18,45.38A5.1,5.1,0,0,1,217,234.8a150.27,150.27,0,0,1-38.85.25,5.1,5.1,0,0,1-4.44-5c-.16-14.37-3.67-46.47-5-58A5.12,5.12,0,0,1,172.41,166.56Z" style="fill:#00C6FF"></path><path d="M172.41,166.56a140.05,140.05,0,0,1,14.25-3.29l.16.13.25.24,2.11,1.62,5.74,3.45,4.71.74,4.56-1.11,2.92-4.06.54-2.34v-.07a42.67,42.67,0,0,1,14.88,3.33,5.06,5.06,0,0,1,2.92,4.3,151.15,151.15,0,0,0,2,16.1c1.9,11.22-3.92,36.33-6.18,45.38A5.1,5.1,0,0,1,217,234.8a150.27,150.27,0,0,1-38.85.25,5.1,5.1,0,0,1-4.44-5c-.16-14.37-3.67-46.47-5-58A5.12,5.12,0,0,1,172.41,166.56Z" style="fill:#263238"></path><path d="M187.08,126c-1.87,5.44-5,11.36-3.64,16.95s7.39,10.78,12.85,12.59c6.33,2.11,13.7,4.39,18.39-.37,2.32-2.35,1-7.09-1.16-9.6a8.17,8.17,0,0,0-9-2.22,22.33,22.33,0,0,0-.54-8.56,14.05,14.05,0,0,0-5.86-9C195,123.79,188.29,122.51,187.08,126Z" style="fill:#263238"></path><path d="M189.08,162.86c3.71-3.9,2.22-21.4,2.22-21.4l10.86,7.37s.64,10.83,3.23,12.92c.61.49,1.51.07,2.23.12l-.66,2.76-2,3.42-2.78,2h-4.11L194.36,169,190.15,166l-3.44-2.77C187.51,163.12,188.54,163.42,189.08,162.86Z" style="fill:#eec8c0"></path><path d="M203.11,156.08c-7.14-.81-10.42-4.52-11.91-7.45l.31-2.92,10.85,7.37Z" style="opacity:0.1"></path><path d="M187.05,134.47c2.29,9,3.07,12.87,8.56,16.67,8.27,5.73,18.84.93,19.29-8.57.4-8.57-3.42-21.92-13-23.79a12.68,12.68,0,0,0-14.81,15.69Z" style="fill:#eec8c0"></path><path d="M202,134.1c.15.74.65,1.27,1.13,1.18s.77-.77.64-1.51-.66-1.27-1.14-1.19S201.94,133.39,202,134.1Z" style="fill:#263238"></path><path d="M210.43,132.52c.14.76.65,1.27,1.13,1.19s.77-.78.63-1.52-.65-1.27-1.13-1.17S210.29,131.78,210.43,132.52Z" style="fill:#263238"></path><path d="M210.85,131.1l1.68-.85S211.89,131.82,210.85,131.1Z" style="fill:#263238"></path><path d="M208.09,134.36a20.66,20.66,0,0,0,3.56,4.24,3.31,3.31,0,0,1-2.56,1Z" style="fill:#ed893e"></path><path d="M198.35,133.05a.43.43,0,0,0,.41-.32,5.22,5.22,0,0,1,3.08-2.85.45.45,0,0,0,.28-.57.43.43,0,0,0-.55-.28h0a6,6,0,0,0-3.65,3.46.44.44,0,0,0,.3.54h0A.32.32,0,0,0,198.35,133.05Z" style="fill:#263238"></path><path d="M212.21,128.18a.49.49,0,0,0,.39-.24.45.45,0,0,0-.18-.6,4.35,4.35,0,0,0-4.1-.18.42.42,0,0,0-.19.56l0,0a.42.42,0,0,0,.59.18h0a3.55,3.55,0,0,1,3.2.19A.58.58,0,0,0,212.21,128.18Z" style="fill:#263238"></path><path d="M202.46,132.74l1.69-.85S203.5,133.4,202.46,132.74Z" style="fill:#263238"></path><path d="M215.76,116.78a7.23,7.23,0,0,1,2.88,7.51c-.34,1.24-1.07,2.41-1.13,3.7a2.67,2.67,0,0,0,2.44,2.8,16.83,16.83,0,0,1-6.17-.09c-2-.53-3.87-2-3.94-3.86a19.44,19.44,0,0,1,.23-2,2,2,0,0,0-.77-1.84c-1.11-.73-2.58.06-3.92.23-2.45.33-4.87-1.94-4.57-4.09S207,110.22,215.76,116.78Z" style="fill:#263238"></path><path d="M206.68,113.68c3.28,1.81,12.07,10.88-11.65,9.39,0,0,.05,14.83-7.4,16.84l-19.52-3.22S175.87,96.66,206.68,113.68Z" style="fill:#263238"></path><path d="M170.69,127.69c-1.87,5.43-5,11.36-3.64,16.95s7.39,10.77,12.85,12.59c6.33,2.11,13.7,4.39,18.39-.37,2.31-2.36,1-7.09-1.16-9.61a8.17,8.17,0,0,0-9-2.21,22.32,22.32,0,0,0-.54-8.56,14.08,14.08,0,0,0-5.86-9.06C178.58,125.47,171.9,124.2,170.69,127.69Z" style="fill:#263238"></path><path d="M185.9,142a6.74,6.74,0,0,0,4,3.1c2.27.58,3.37-1.46,2.7-3.59-.62-1.91-2.53-4.52-4.79-4.2a3,3,0,0,0-2.44,3.48A3.14,3.14,0,0,0,185.9,142Z" style="fill:#eec8c0"></path><path d="M209.87,142.18a9.13,9.13,0,0,1-7.39,0s-.3,4.55,5.1,4.18c.57,0,2.29-.3,2.29-.3A9.55,9.55,0,0,1,209.87,142.18Z" style="fill:#263238"></path><path d="M202.72,143.75a4.72,4.72,0,0,1-.24-1.57,9.64,9.64,0,0,0,6.14.46v1.49S205.05,144.76,202.72,143.75Z" style="fill:#fff"></path><path d="M203.23,144.75a11.37,11.37,0,0,1,1.19-.07,7.91,7.91,0,0,1,4.81,1.47c-.55.08-1.31.18-1.65.21C205.17,146.52,203.9,145.71,203.23,144.75Z" style="fill:#c13b37"></path><path d="M209.7,161.87s-2.54-.86-3.56,0c0,0,.19,6.59-5.13,7.42s-13.49-6.38-13.49-6.38a4.91,4.91,0,0,0-3.56.56l20.91,22.79C213.26,177.44,209.7,161.87,209.7,161.87Z" style="fill:#00C6FF"></path><path d="M171.41,188.34c-2-2.73-6.13-14.08-1.63-20.24S201.41,199,201.41,199c4.58-2.27,25.85-9.4,25.85-9.4s.71-7.43,3.84-9.24,4.57-6.57,7.23-3.75,5.78,10.64,1.68,13.6a89.91,89.91,0,0,1-8.21,5.22S215.43,207,203.54,211,179.81,199.68,171.41,188.34Z" style="fill:#eec8c0"></path><path d="M171.41,188.34c-2-2.73-6.13-14.08-1.63-20.24S201.41,199,201.41,199c4.58-2.27,25.85-9.4,25.85-9.4s.71-7.43,3.84-9.24,4.57-6.57,7.23-3.75,5.78,10.64,1.68,13.6a89.91,89.91,0,0,1-8.21,5.22S215.43,207,203.54,211,179.81,199.68,171.41,188.34Z" style="fill:#fff;opacity:0.1"></path><path d="M171.41,188.34c-2-2.73-6.13-14.08-1.63-20.24S201.41,199,201.41,199c4.58-2.27,25.85-9.4,25.85-9.4s.71-7.43,3.84-9.24,4.57-6.57,7.23-3.75,5.78,10.64,1.68,13.6a89.91,89.91,0,0,1-8.21,5.22S215.43,207,203.54,211,179.81,199.68,171.41,188.34Z" style="fill:#fff;opacity:0.1"></path><path d="M222.59,237.07,221.31,231s-33.25,3.45-47.44.29l-1.85,5.8Z" style="fill:#263238"></path><path d="M189.83,146.75A1.81,1.81,0,1,1,188,145,1.8,1.8,0,0,1,189.83,146.75Z" style="fill:#fff"></path></g><g id="freepik--character-2--inject-15"><g id="freepik--Character--inject-15"><path d="M302.22,162.28a27,27,0,0,1-3.88,6c1.19,1.23,3.4.77,3.4.77Z" style="fill:#a02724"></path><path d="M327.34,173.6l-6.65,5-9.08,6.75a9.22,9.22,0,0,1,.83,3.3c.29,2.52.58,4.39-5.05,5.86a3.17,3.17,0,0,0-2.42,2.45c-.24,1.49.64,3.3,5.8,4.26a23.79,23.79,0,0,0,14.65-2.27c2.21-1.07,2.23-2.39,1.34-4.62C324.09,187.91,325.54,179.86,327.34,173.6Z" style="fill:#ff8b7b"></path><path d="M300.46,161.58c-.2.78,0,1.5.38,1.6s.89-.45,1.09-1.23,0-1.5-.38-1.61S300.65,160.79,300.46,161.58Z" style="fill:#263238"></path><path d="M306.36,160.4a.5.5,0,0,1-.43-.25,4.86,4.86,0,0,0-4-2.4.5.5,0,0,1,0-1h0a5.92,5.92,0,0,1,4.88,2.9.52.52,0,0,1-.19.69A.54.54,0,0,1,306.36,160.4Z" style="fill:#263238"></path><path d="M300.41,172.64a14.62,14.62,0,0,0,6.83,11,13.46,13.46,0,0,0,4.19,1.73A12.44,12.44,0,0,0,321.86,183c5.79-4.38,6.46-10.31,8.47-20.27a14.12,14.12,0,0,0-17-16.67C303,148.54,299.51,163.27,300.41,172.64Z" style="fill:#ff8b7b"></path><path d="M307.24,183.61a13.46,13.46,0,0,0,4.19,1.73l.18,0-.63-2S310.12,184.77,307.24,183.61Z" style="opacity:0.2"></path><path d="M333.23,169.9c-1.68,3.43-3.76,6.87-6.93,9-1.17.8-10.05.21-10.05.21.09-3-3.73-13.4-5.57-16.89-.58,1.43.24,3.39-.49,4.71-1-.19-18.79-6.59-10.95-19.38,5.54-9,20.4-9.82,26.57-.92a7.5,7.5,0,0,1,7.43,2.22,12.39,12.39,0,0,1,3,7.44C336.69,161,335.29,165.66,333.23,169.9Z" style="fill:#263238"></path></g><path d="M316.77,164.78a9.29,9.29,0,0,1-2.87,6c-2.14,2-4.82-.12-5.15-3-.3-2.57.95-6.33,3.56-7.23S317,162,316.77,164.78Z" style="fill:#ff8b7b"></path><polygon points="230.76 389.53 221.55 385.01 228.36 362.57 239.58 368.83 230.76 389.53" style="fill:#ff8b7b"></polygon><polygon points="242 362.67 230.19 355.86 225.51 372.03 236.17 377.05 242 362.67" style="opacity:0.2;isolation:isolate"></polygon><path d="M221,383.22l10.55,4.87a.86.86,0,0,1,.41,1.09l-3.45,10.25a1.91,1.91,0,0,1-2.45,1.24c-3.64-1.77-5.31-2.83-9.94-5-2.86-1.31-9.37-4.42-13.43-5.89s-2.38-6.24-.52-6.05c8.37.89,13.29.69,16.93-.58A2.54,2.54,0,0,1,221,383.22Z" style="fill:#263238"></path><path d="M215.57,383.92a13.11,13.11,0,0,0,2.61.72.21.21,0,0,0,.23-.1.24.24,0,0,0,.06-.25c-.21-.34-2.13-3.3-3.47-3.35a.85.85,0,0,0-.77.4,1.33,1.33,0,0,0-.24,1.34A2.8,2.8,0,0,0,215.57,383.92Zm2.2.16c-1.83-.44-3.07-1-3.32-1.6a.86.86,0,0,1,.2-.84.45.45,0,0,1,.38-.22C215.73,381.44,217,382.91,217.77,384.08Z" style="fill:#00C6FF"></path><path d="M218.19,384.64l.11,0a.29.29,0,0,0,.2-.14c0-.12,1.43-2.75.86-4.07a1.18,1.18,0,0,0-.81-.71.91.91,0,0,0-1.08.33c-.66.94-.08,3.52.62,4.48A.16.16,0,0,0,218.19,384.64Zm.34-4.39a.7.7,0,0,1,.39.4,5.33,5.33,0,0,1-.66,3.27,4.92,4.92,0,0,1-.4-3.57c0-.13.21-.24.55-.14Z" style="fill:#00C6FF"></path><path d="M300.92,273.54s-54.28-9.34-61.11,20.35c-5.27,20.79-7.82,29.25-14.53,75.35l14.33,3.23s23.1-47.22,24.45-67.3c16.2,2.74,53.06,10.42,60.91-3.29a65.74,65.74,0,0,0,7.75-22.52Z" style="fill:#00C6FF"></path><g style="opacity:0.30000000000000004"><path d="M300.92,273.54s-54.28-9.34-61.11,20.35c-5.27,20.79-7.82,29.25-14.53,75.35l14.33,3.23s23.1-47.22,24.45-67.3c16.2,2.74,53.06,10.42,60.91-3.29a65.74,65.74,0,0,0,7.75-22.52Z"></path></g><polygon points="241.44 375.66 223.09 369.24 224.81 360.93 243.63 368.58 241.44 375.66" style="fill:#00C6FF"></polygon><polygon points="192.77 386.21 183.09 380.84 192.71 362.25 204.64 367.1 192.77 386.21" style="fill:#ff8b7b"></polygon><polygon points="207.97 361.38 197.34 352.84 190.25 368.11 200.01 374.7 207.97 361.38" style="opacity:0.2;isolation:isolate"></polygon><path d="M184.08,378.49l9.69,6.42A.85.85,0,0,1,194,386l-5,9.61a1.9,1.9,0,0,1-2.61.85c-3.33-2.3-4.81-3.6-9.07-6.43-2.62-1.73-8.58-5.79-12.37-7.87s-1.4-6.52.41-6.05c8.14,2.15,13,2.71,16.82,2A2.54,2.54,0,0,1,184.08,378.49Z" style="fill:#263238"></path><path d="M178.61,378.35a13,13,0,0,0,2.47,1.1.2.2,0,0,0,.24-.06.23.23,0,0,0,.1-.23c-.15-.38-1.6-3.59-2.92-3.84a.87.87,0,0,0-.83.27,1.39,1.39,0,0,0-.44,1.29A2.87,2.87,0,0,0,178.61,378.35Zm2.15.49c-1.74-.72-2.88-1.42-3-2.08a.87.87,0,0,1,.33-.81.44.44,0,0,1,.4-.15C179.15,375.92,180.14,377.56,180.76,378.84Z" style="fill:#00C6FF"></path><path d="M181.09,379.46l.1,0a.26.26,0,0,0,.22-.1c.05-.11,1.83-2.5,1.47-3.89a1.18,1.18,0,0,0-.69-.83.91.91,0,0,0-1.12.16c-.79.83-.62,3.46-.07,4.52A.18.18,0,0,0,181.09,379.46Zm1-4.29a.71.71,0,0,1,.33.46,5.23,5.23,0,0,1-1.16,3.12,4.87,4.87,0,0,1,.16-3.58c.05-.12.25-.2.57-.06Z" style="fill:#00C6FF"></path><path d="M283.81,270.65c-.38-.07-59.51-16.06-69.31,17.44-13.44,40.77-23.41,75.38-23.41,75.38l11.6,8.41s29.59-40.94,34-69c18.48-2.08,62.64,14.11,70.49.41,6.43-11.2,6.74-27.54,6.74-27.54Z" style="fill:#00C6FF"></path><path d="M283.81,270.65c-.38-.07-59.51-16.06-69.31,17.44-13.44,40.77-23.41,75.38-23.41,75.38l11.6,8.41s29.59-40.94,34-69c18.48-2.08,62.64,14.11,70.49.41,6.43-11.2,6.74-27.54,6.74-27.54Z" style="opacity:0.30000000000000004"></path><polygon points="204.41 374.04 188.72 363.54 191.26 356.82 208.12 366.02 204.41 374.04" style="fill:#00C6FF"></polygon><path d="M338.8,202.24c-1,4-2.21,7.95-3.52,11.9S332.47,222,330.71,226a64,64,0,0,1-6.61,11.68,27.09,27.09,0,0,1-5.45,5.66,17.1,17.1,0,0,1-4.2,2.38,13.87,13.87,0,0,1-2.67.72l-.73.12c-.38,0-.8.06-1.17.06a9.74,9.74,0,0,1-1.87-.21,13,13,0,0,1-2.65-.85,15.7,15.7,0,0,1-2-1,30.82,30.82,0,0,1-3.06-2.17C298.6,241,292.26,231,287.75,224l5.37-4.48c5.82,5.27,11.73,10.69,17.65,15.32,1.52,1.08-4.89-3.25-3.46-2.33a16.55,16.55,0,0,0,2,1.07c.57.26,1.13.39,1,.29a1.21,1.21,0,0,0-.38-.06,3.09,3.09,0,0,0-.43,0h0a1.39,1.39,0,0,0,.21-.1,5.69,5.69,0,0,0,.93-.68,17,17,0,0,0,2.65-3.15,54.66,54.66,0,0,0,4.76-9.41c1.46-3.48,2.65-7,3.8-10.69s2.22-7.37,3.19-11.15S339.84,198.22,338.8,202.24Z" style="fill:#00C6FF"></path><path d="M338.8,202.24c-1,4-2.21,7.95-3.52,11.9S332.47,222,330.71,226a64,64,0,0,1-6.61,11.68,27.09,27.09,0,0,1-5.45,5.66,17.1,17.1,0,0,1-4.2,2.38,13.87,13.87,0,0,1-2.67.72l-.73.12c-.38,0-.8.06-1.17.06a9.74,9.74,0,0,1-1.87-.21,13,13,0,0,1-2.65-.85,15.7,15.7,0,0,1-2-1,30.82,30.82,0,0,1-3.06-2.17C298.6,241,292.26,231,287.75,224l5.37-4.48c5.82,5.27,11.73,10.69,17.65,15.32,1.52,1.08-4.89-3.25-3.46-2.33a16.55,16.55,0,0,0,2,1.07c.57.26,1.13.39,1,.29a1.21,1.21,0,0,0-.38-.06,3.09,3.09,0,0,0-.43,0h0a1.39,1.39,0,0,0,.21-.1,5.69,5.69,0,0,0,.93-.68,17,17,0,0,0,2.65-3.15,54.66,54.66,0,0,0,4.76-9.41c1.46-3.48,2.65-7,3.8-10.69s2.22-7.37,3.19-11.15S339.84,198.22,338.8,202.24Z" style="fill:#fff;opacity:0.6000000000000001"></path><path d="M293.52,220.12l-5.13-10.89-9.75,5.57s6.31,10.11,9.86,9.11Z" style="fill:#ff8b7b"></path><path d="M280.43,206.65,276,208.5a1.72,1.72,0,0,0-.59,2.79l3.31,3.46,9.75-5.57-6.73-2.54A1.74,1.74,0,0,0,280.43,206.65Z" style="fill:#ff8b7b"></path><path d="M243.58,240.16l-10.5-1.28-3.49,11s12,.3,14-2.94Z" style="fill:#ff8b7b"></path><path d="M225.25,242.63l-2,4.19a2,2,0,0,0,1.66,2.8l4.65.29,3.49-11-6.79,2.76A2,2,0,0,0,225.25,242.63Z" style="fill:#ff8b7b"></path><path d="M342.14,201.66c-.47-2.44-4.1-5.41-6.56-5.82l-1.63-.28a90.71,90.71,0,0,0-9.94-1,178.63,178.63,0,0,0-20,0c-3.09.29-6.12.79-8.53,1.26h-.09a6.26,6.26,0,0,0-4.94,5.94c-.23,7.55-.81,22.89-2.17,38-1.05,11.81-3.38,23.32-4.43,31.32l48.92,8.26c3.3-9.28,4.44-17.67,7.49-34.91C342.05,234.06,344.09,211.7,342.14,201.66Z" style="fill:#00C6FF"></path><path d="M342.14,201.66c-.47-2.44-4.1-5.41-6.56-5.82l-1.63-.28a90.71,90.71,0,0,0-9.94-1,178.63,178.63,0,0,0-20,0c-3.09.29-6.12.79-8.53,1.26h-.09a6.26,6.26,0,0,0-4.94,5.94c-.23,7.55-.81,22.89-2.17,38-1.05,11.81-3.38,23.32-4.43,31.32l48.92,8.26c3.3-9.28,4.44-17.67,7.49-34.91C342.05,234.06,344.09,211.7,342.14,201.66Z" style="fill:#fff;opacity:0.6000000000000001"></path><path d="M295.23,197a7.8,7.8,0,0,1,4,10.33c-4,9-10.7,23.19-13.58,28.17-1.09,1.76-2.19,3.52-3.42,5.28-.61.89-1.3,1.76-2,2.67-.4.45-.72.87-1.19,1.35l-.67.7-.38.39a9.87,9.87,0,0,1-3.73,2.17,17.09,17.09,0,0,1-2.24.57,24.48,24.48,0,0,1-3.73.31c-2.16,0-17,1.33-24.58-1.32l-.4-8.17c7.56.6,20.75-3.49,22.45-3.67a13.91,13.91,0,0,0,2-.41,3,3,0,0,0,.62-.26c.07,0,0-.08-.31.13a1.83,1.83,0,0,0-.31.24l.11-.14.31-.37c.21-.22.45-.58.68-.87.45-.62.91-1.29,1.37-2,.91-1.42,1.79-3,2.66-4.59,1.73-3.19,3.33-6.57,4.89-10,1.1-2.42,4.36-9.78,7.13-16.37A7.81,7.81,0,0,1,295.23,197Z" style="fill:#00C6FF"></path><path d="M288.6,228.79c.14,4.47.08,3,.24,7.71,13.06-18.07,9.7-30.62,9.7-30.62Z" style="opacity:0.2;isolation:isolate"></path><path d="M295.23,197a7.8,7.8,0,0,1,4,10.33c-4,9-10.7,23.19-13.58,28.17-1.09,1.76-2.19,3.52-3.42,5.28-.61.89-1.3,1.76-2,2.67-.4.45-.72.87-1.19,1.35l-.67.7-.38.39a9.87,9.87,0,0,1-3.73,2.17,17.09,17.09,0,0,1-2.24.57,24.48,24.48,0,0,1-3.73.31c-2.16,0-17,1.33-24.58-1.32l-.4-8.17c7.56.6,20.75-3.49,22.45-3.67a13.91,13.91,0,0,0,2-.41,3,3,0,0,0,.62-.26c.07,0,0-.08-.31.13a1.83,1.83,0,0,0-.31.24l.11-.14.31-.37c.21-.22.45-.58.68-.87.45-.62.91-1.29,1.37-2,.91-1.42,1.79-3,2.66-4.59,1.73-3.19,3.33-6.57,4.89-10,1.1-2.42,4.36-9.78,7.13-16.37A7.81,7.81,0,0,1,295.23,197Z" style="fill:#fff;opacity:0.6000000000000001"></path><path d="M309.92,162a7.86,7.86,0,0,0-2.65,5.46c-.13,2.77,2.56,3.52,4.89,2.22,2.12-1.18,4.71-4,3.73-6.56S311.88,160.26,309.92,162Z" style="fill:#fab27b"></path><path d="M318.82,166.32c-.2,4.54-2.94,8.11-7.48,7.91s-7-4-6.76-8.54,2.95-8.11,7.49-7.91S319,161.78,318.82,166.32Z" style="fill:#00C6FF"></path><path d="M318.82,166.32c-.2,4.54-2.94,8.11-7.48,7.91s-7-4-6.76-8.54,2.95-8.11,7.49-7.91S319,161.78,318.82,166.32Z" style="fill:#fff;opacity:0.7000000000000001"></path><path d="M316.73,166.23c-.15,3.21-2.08,5.72-5.29,5.58s-4.91-2.82-4.76-6,2.07-5.72,5.28-5.58S316.87,163,316.73,166.23Z" style="fill:#00C6FF"></path><path d="M316.73,166.23c-.15,3.21-2.08,5.72-5.29,5.58s-4.91-2.82-4.76-6,2.07-5.72,5.28-5.58S316.87,163,316.73,166.23Z" style="fill:#fff;opacity:0.30000000000000004"></path><path d="M311.47,157c.93-3.82,4.61-14,12.24-15.42a2.16,2.16,0,0,1,2,.72l.91,1a2.19,2.19,0,0,1-.6,3.35,23.6,23.6,0,0,0-10.7,11.53,1.6,1.6,0,0,1-1.88.92l-.85-.23A1.59,1.59,0,0,1,311.47,157Z" style="fill:#00C6FF"></path><path d="M311.47,157c.93-3.82,4.61-14,12.24-15.42a2.16,2.16,0,0,1,2,.72l.91,1a2.19,2.19,0,0,1-.6,3.35,23.6,23.6,0,0,0-10.7,11.53,1.6,1.6,0,0,1-1.88.92l-.85-.23A1.59,1.59,0,0,1,311.47,157Z" style="fill:#fff;opacity:0.2"></path><rect x="251.26" y="268.75" width="6.5" height="27.74" style="fill:#263238"></rect><rect x="251.26" y="268.75" width="6.5" height="27.74" style="fill:#263238"></rect><path d="M276.59,277.22a67,67,0,0,0-44.19,0,6.27,6.27,0,0,1-7.78-3h0c-1.33-2.8.45-6.43,4.06-7.69a78.21,78.21,0,0,1,51.61,0c3.6,1.25,5.38,4.89,4.06,7.69h0A6.3,6.3,0,0,1,276.59,277.22Z" style="fill:#263238"></path><path d="M276.59,277.22a67,67,0,0,0-44.19,0,6.27,6.27,0,0,1-7.78-3h0c-1.33-2.8.45-6.43,4.06-7.69a78.21,78.21,0,0,1,51.61,0c3.6,1.25,5.38,4.89,4.06,7.69h0A6.3,6.3,0,0,1,276.59,277.22Z" style="fill:#263238;opacity:0.4"></path><path d="M269.81,407.94a5.06,5.06,0,1,1-5.06-5.06,5.06,5.06,0,0,1,5.06,5.06Z" style="fill:#263238"></path><path d="M344.11,407.94a5.06,5.06,0,1,0,5.05-5.06,5,5,0,0,0-5.05,5.06Z" style="fill:#263238"></path><path d="M300.29,406.32a5.06,5.06,0,1,0,5-5.06,5.06,5.06,0,0,0-5,5.06Z" style="fill:#263238"></path><path d="M360.19,401.14a2.47,2.47,0,0,1-2.5,2l-52.75-.72-49.41,1.12a2.46,2.46,0,0,1-.54-4.87l27-5.24a46.57,46.57,0,0,1,8.49-.79h29a46.3,46.3,0,0,1,8.48.79l30.32,4.86A2.45,2.45,0,0,1,360.19,401.14Z" style="fill:#263238"></path><rect x="295.96" y="348.6" width="17.94" height="51.65" style="fill:#263238"></rect><rect x="298.54" y="315.88" width="12.79" height="32.98" style="fill:#263238"></rect><polygon points="298.54 321.99 311.33 325.21 311.33 315.88 298.54 315.88 298.54 321.99" style="opacity:0.2;isolation:isolate"></polygon><path d="M299.79,292.41v23.32h-68.1a8.36,8.36,0,0,1-7.2-12.64,21.76,21.76,0,0,1,18.71-10.68Z" style="fill:#00C6FF"></path><path d="M299.79,292.41v23.32h-68.1a8.36,8.36,0,0,1-7.2-12.64,21.76,21.76,0,0,1,18.71-10.68Z" style="fill:#fff;opacity:0.2"></path><path d="M313.5,206.05a14.57,14.57,0,0,0-.33,2.28l-7.49,107H295.35l7.48-107a2.13,2.13,0,0,1,0-.25Z" style="fill:#00C6FF"></path><path d="M313.5,206.05a14.57,14.57,0,0,0-.33,2.28l-7.49,107H295.35l7.48-107a2.13,2.13,0,0,1,0-.25Z" style="fill:#fff;opacity:0.2"></path><path d="M361,315.75v.12h-1.74A12.5,12.5,0,0,0,361,315.75Z" style="fill:#263238"></path><path d="M384,205.37l.12-12.72a14.09,14.09,0,0,0-3.52-9.58l-7.51-8.47-2.69-21.19a6.44,6.44,0,0,0-6.5-5.68H345.24a7.67,7.67,0,0,0-7,4.75l-9.41,22.79-15.56,9.19a16.63,16.63,0,0,0-7.81,10.69l-2.84,13,.22,0,10.64-2a14.57,14.57,0,0,0-.33,2.28l-7.49,107h58.57a12.65,12.65,0,0,0,1.75-.12h0a13.2,13.2,0,0,0,11.16-12l6.7-95.89a15.74,15.74,0,0,0,0-2.06Zm-48.95-8.09L316.84,199l-.79.08,2.52-8.28L331.08,185l4.17-1.94.66,1.94.11.33.61,1.79Zm35.78.22h0l-2.23-.58c0-.7-.08-1.42-.12-2.13-.23-4-.42-7.7-.42-7.7l.27-1.31.56-2.75,8.08,7.78v8.28Z" style="fill:#00C6FF"></path></g></svg>