<svg xmlns="http://www.w3.org/2000/svg" viewBox="0 0 500 500"><g id="freepik--background-simple--inject-2"><path d="M236.23,86.86c134.06-3.33,117.5,97.34,102.07,139.85S400,238.89,400,314c0,91.74-256.35,120.83-319.25,36.92s16.61-120.83,54.59-116.36,4.75-35.8,9.5-82.79S191.13,88,236.23,86.86Z" style="fill:#00C6FF"></path><path d="M236.23,86.86c134.06-3.33,117.5,97.34,102.07,139.85S400,238.89,400,314c0,91.74-256.35,120.83-319.25,36.92s16.61-120.83,54.59-116.36,4.75-35.8,9.5-82.79S191.13,88,236.23,86.86Z" style="fill:#fff;opacity:0.9"></path></g><g id="freepik--Shadow--inject-2"><ellipse id="freepik--path--inject-2" cx="250" cy="416.24" rx="193.89" ry="11.32" style="fill:#f5f5f5"></ellipse></g><g id="freepik--Blocks--inject-2"><path d="M150.73,385.09h10.37a.66.66,0,0,1,.66.66v6.16a0,0,0,0,1,0,0H150.07a0,0,0,0,1,0,0v-6.16A.66.66,0,0,1,150.73,385.09Z" style="fill:#00C6FF"></path><path d="M150.73,385.09h10.37a.66.66,0,0,1,.66.66v6.16a0,0,0,0,1,0,0H150.07a0,0,0,0,1,0,0v-6.16A.66.66,0,0,1,150.73,385.09Z" style="opacity:0.4;isolation:isolate"></path><path d="M121.17,385.09h10.37a.66.66,0,0,1,.66.66v6.16a0,0,0,0,1,0,0H120.51a0,0,0,0,1,0,0v-6.16A.66.66,0,0,1,121.17,385.09Z" style="fill:#00C6FF"></path><path d="M121.17,385.09h10.37a.66.66,0,0,1,.66.66v6.16a0,0,0,0,1,0,0H120.51a0,0,0,0,1,0,0v-6.16A.66.66,0,0,1,121.17,385.09Z" style="opacity:0.4;isolation:isolate"></path><path d="M136,385.09h10.37a.66.66,0,0,1,.66.66v6.16a0,0,0,0,1,0,0H135.29a0,0,0,0,1,0,0v-6.16A.66.66,0,0,1,136,385.09Z" style="fill:#00C6FF"></path><path d="M136,385.09h10.37a.66.66,0,0,1,.66.66v6.16a0,0,0,0,1,0,0H135.29a0,0,0,0,1,0,0v-6.16A.66.66,0,0,1,136,385.09Z" style="opacity:0.30000000000000004;isolation:isolate"></path><path d="M115.21,388.57h51.85a.61.61,0,0,1,.61.61v27.38a0,0,0,0,1,0,0H114.61a0,0,0,0,1,0,0V389.17A.61.61,0,0,1,115.21,388.57Z" style="fill:#00C6FF"></path><path d="M140.49,388.57h26.57a.61.61,0,0,1,.61.61v27.38a0,0,0,0,1,0,0H139.89a0,0,0,0,1,0,0V389.17A.61.61,0,0,1,140.49,388.57Z" style="opacity:0.2;isolation:isolate"></path><path d="M178.16,385.09h10.38a.66.66,0,0,1,.66.66v6.16a0,0,0,0,1,0,0H177.5a0,0,0,0,1,0,0v-6.16A.66.66,0,0,1,178.16,385.09Z" style="fill:#00C6FF"></path><path d="M178.16,385.09h10.38a.66.66,0,0,1,.66.66v6.16a0,0,0,0,1,0,0H177.5a0,0,0,0,1,0,0v-6.16A.66.66,0,0,1,178.16,385.09Z" style="opacity:0.4;isolation:isolate"></path><path d="M148.6,385.09H159a.66.66,0,0,1,.66.66v6.16a0,0,0,0,1,0,0H147.94a0,0,0,0,1,0,0v-6.16A.66.66,0,0,1,148.6,385.09Z" style="fill:#00C6FF"></path><path d="M148.6,385.09H159a.66.66,0,0,1,.66.66v6.16a0,0,0,0,1,0,0H147.94a0,0,0,0,1,0,0v-6.16A.66.66,0,0,1,148.6,385.09Z" style="opacity:0.4;isolation:isolate"></path><path d="M163.38,385.09h10.38a.66.66,0,0,1,.66.66v6.16a0,0,0,0,1,0,0H162.72a0,0,0,0,1,0,0v-6.16A.66.66,0,0,1,163.38,385.09Z" style="fill:#00C6FF"></path><path d="M163.38,385.09h10.38a.66.66,0,0,1,.66.66v6.16a0,0,0,0,1,0,0H162.72a0,0,0,0,1,0,0v-6.16A.66.66,0,0,1,163.38,385.09Z" style="opacity:0.30000000000000004;isolation:isolate"></path><path d="M142.64,388.57H194.5a.61.61,0,0,1,.61.61v27.38a0,0,0,0,1,0,0H142a0,0,0,0,1,0,0V389.17A.61.61,0,0,1,142.64,388.57Z" style="fill:#00C6FF"></path><path d="M167.92,388.57H194.5a.61.61,0,0,1,.61.61v27.38a0,0,0,0,1,0,0H167.32a0,0,0,0,1,0,0V389.17A.61.61,0,0,1,167.92,388.57Z" style="opacity:0.2;isolation:isolate"></path><path d="M205.59,385.09H216a.66.66,0,0,1,.66.66v6.16a0,0,0,0,1,0,0H204.93a0,0,0,0,1,0,0v-6.16A.66.66,0,0,1,205.59,385.09Z" style="fill:#00C6FF"></path><path d="M205.59,385.09H216a.66.66,0,0,1,.66.66v6.16a0,0,0,0,1,0,0H204.93a0,0,0,0,1,0,0v-6.16A.66.66,0,0,1,205.59,385.09Z" style="opacity:0.4;isolation:isolate"></path><path d="M176,385.09h10.37a.66.66,0,0,1,.66.66v6.16a0,0,0,0,1,0,0H175.38a0,0,0,0,1,0,0v-6.16A.66.66,0,0,1,176,385.09Z" style="fill:#00C6FF"></path><path d="M176,385.09h10.37a.66.66,0,0,1,.66.66v6.16a0,0,0,0,1,0,0H175.38a0,0,0,0,1,0,0v-6.16A.66.66,0,0,1,176,385.09Z" style="opacity:0.4;isolation:isolate"></path><path d="M190.81,385.09h10.37a.66.66,0,0,1,.66.66v6.16a0,0,0,0,1,0,0H190.15a0,0,0,0,1,0,0v-6.16A.66.66,0,0,1,190.81,385.09Z" style="fill:#00C6FF"></path><path d="M190.81,385.09h10.37a.66.66,0,0,1,.66.66v6.16a0,0,0,0,1,0,0H190.15a0,0,0,0,1,0,0v-6.16A.66.66,0,0,1,190.81,385.09Z" style="opacity:0.30000000000000004;isolation:isolate"></path><path d="M170.07,388.57h51.85a.61.61,0,0,1,.61.61v27.38a0,0,0,0,1,0,0H169.47a0,0,0,0,1,0,0V389.17A.61.61,0,0,1,170.07,388.57Z" style="fill:#00C6FF"></path><path d="M195.35,388.57h26.57a.61.61,0,0,1,.61.61v27.38a0,0,0,0,1,0,0H194.75a0,0,0,0,1,0,0V389.17A.61.61,0,0,1,195.35,388.57Z" style="opacity:0.2;isolation:isolate"></path><path d="M233,385.09H243.4a.66.66,0,0,1,.66.66v6.16a0,0,0,0,1,0,0H232.36a0,0,0,0,1,0,0v-6.16A.66.66,0,0,1,233,385.09Z" style="fill:#00C6FF"></path><path d="M233,385.09H243.4a.66.66,0,0,1,.66.66v6.16a0,0,0,0,1,0,0H232.36a0,0,0,0,1,0,0v-6.16A.66.66,0,0,1,233,385.09Z" style="opacity:0.4;isolation:isolate"></path><path d="M203.46,385.09h10.37a.66.66,0,0,1,.66.66v6.16a0,0,0,0,1,0,0H202.81a0,0,0,0,1,0,0v-6.16A.66.66,0,0,1,203.46,385.09Z" style="fill:#00C6FF"></path><path d="M203.46,385.09h10.37a.66.66,0,0,1,.66.66v6.16a0,0,0,0,1,0,0H202.81a0,0,0,0,1,0,0v-6.16A.66.66,0,0,1,203.46,385.09Z" style="opacity:0.4;isolation:isolate"></path><path d="M218.24,385.09h10.37a.66.66,0,0,1,.66.66v6.16a0,0,0,0,1,0,0H217.58a0,0,0,0,1,0,0v-6.16A.66.66,0,0,1,218.24,385.09Z" style="fill:#00C6FF"></path><path d="M218.24,385.09h10.37a.66.66,0,0,1,.66.66v6.16a0,0,0,0,1,0,0H217.58a0,0,0,0,1,0,0v-6.16A.66.66,0,0,1,218.24,385.09Z" style="opacity:0.30000000000000004;isolation:isolate"></path><path d="M197.5,388.57h51.85a.61.61,0,0,1,.61.61v27.38a0,0,0,0,1,0,0H196.9a0,0,0,0,1,0,0V389.17A.61.61,0,0,1,197.5,388.57Z" style="fill:#00C6FF"></path><path d="M222.78,388.57h26.57a.61.61,0,0,1,.61.61v27.38a0,0,0,0,1,0,0H222.18a0,0,0,0,1,0,0V389.17A.61.61,0,0,1,222.78,388.57Z" style="opacity:0.2;isolation:isolate"></path><path d="M260.45,385.09h10.37a.66.66,0,0,1,.66.66v6.16a0,0,0,0,1,0,0H259.79a0,0,0,0,1,0,0v-6.16A.66.66,0,0,1,260.45,385.09Z" style="fill:#00C6FF"></path><path d="M260.45,385.09h10.37a.66.66,0,0,1,.66.66v6.16a0,0,0,0,1,0,0H259.79a0,0,0,0,1,0,0v-6.16A.66.66,0,0,1,260.45,385.09Z" style="opacity:0.4;isolation:isolate"></path><path d="M230.89,385.09h10.37a.66.66,0,0,1,.66.66v6.16a0,0,0,0,1,0,0H230.24a0,0,0,0,1,0,0v-6.16A.66.66,0,0,1,230.89,385.09Z" style="fill:#00C6FF"></path><path d="M230.89,385.09h10.37a.66.66,0,0,1,.66.66v6.16a0,0,0,0,1,0,0H230.24a0,0,0,0,1,0,0v-6.16A.66.66,0,0,1,230.89,385.09Z" style="opacity:0.4;isolation:isolate"></path><path d="M245.67,385.09H256a.66.66,0,0,1,.66.66v6.16a0,0,0,0,1,0,0H245a0,0,0,0,1,0,0v-6.16A.66.66,0,0,1,245.67,385.09Z" style="fill:#00C6FF"></path><path d="M245.67,385.09H256a.66.66,0,0,1,.66.66v6.16a0,0,0,0,1,0,0H245a0,0,0,0,1,0,0v-6.16A.66.66,0,0,1,245.67,385.09Z" style="opacity:0.30000000000000004;isolation:isolate"></path><path d="M224.94,388.57h51.85a.61.61,0,0,1,.61.61v27.38a0,0,0,0,1,0,0H224.33a0,0,0,0,1,0,0V389.17A.61.61,0,0,1,224.94,388.57Z" style="fill:#00C6FF"></path><path d="M250.22,388.57h26.57a.61.61,0,0,1,.61.61v27.38a0,0,0,0,1,0,0H249.61a0,0,0,0,1,0,0V389.17A.61.61,0,0,1,250.22,388.57Z" style="opacity:0.2;isolation:isolate"></path><path d="M150.32,356.49h10.37a.66.66,0,0,1,.66.66v6.16a0,0,0,0,1,0,0H149.66a0,0,0,0,1,0,0v-6.16A.66.66,0,0,1,150.32,356.49Z" style="fill:#00C6FF"></path><path d="M150.32,356.49h10.37a.66.66,0,0,1,.66.66v6.16a0,0,0,0,1,0,0H149.66a0,0,0,0,1,0,0v-6.16A.66.66,0,0,1,150.32,356.49Z" style="opacity:0.4;isolation:isolate"></path><path d="M120.76,356.49h10.37a.66.66,0,0,1,.66.66v6.16a0,0,0,0,1,0,0H120.1a0,0,0,0,1,0,0v-6.16A.66.66,0,0,1,120.76,356.49Z" style="fill:#00C6FF"></path><path d="M120.76,356.49h10.37a.66.66,0,0,1,.66.66v6.16a0,0,0,0,1,0,0H120.1a0,0,0,0,1,0,0v-6.16A.66.66,0,0,1,120.76,356.49Z" style="opacity:0.4;isolation:isolate"></path><path d="M135.54,356.49h10.37a.66.66,0,0,1,.66.66v6.16a0,0,0,0,1,0,0H134.88a0,0,0,0,1,0,0v-6.16A.66.66,0,0,1,135.54,356.49Z" style="fill:#00C6FF"></path><path d="M135.54,356.49h10.37a.66.66,0,0,1,.66.66v6.16a0,0,0,0,1,0,0H134.88a0,0,0,0,1,0,0v-6.16A.66.66,0,0,1,135.54,356.49Z" style="opacity:0.30000000000000004;isolation:isolate"></path><path d="M114.8,360h51.85a.61.61,0,0,1,.61.61V388a0,0,0,0,1,0,0H114.19a0,0,0,0,1,0,0V360.58A.61.61,0,0,1,114.8,360Z" style="fill:#00C6FF"></path><path d="M140.08,360h26.57a.61.61,0,0,1,.61.61V388a0,0,0,0,1,0,0H139.47a0,0,0,0,1,0,0V360.58A.61.61,0,0,1,140.08,360Z" style="opacity:0.2;isolation:isolate"></path><path d="M177.75,356.49h10.37a.66.66,0,0,1,.66.66v6.16a0,0,0,0,1,0,0H177.09a0,0,0,0,1,0,0v-6.16A.66.66,0,0,1,177.75,356.49Z" style="fill:#00C6FF"></path><path d="M177.75,356.49h10.37a.66.66,0,0,1,.66.66v6.16a0,0,0,0,1,0,0H177.09a0,0,0,0,1,0,0v-6.16A.66.66,0,0,1,177.75,356.49Z" style="opacity:0.4;isolation:isolate"></path><path d="M148.19,356.49h10.37a.66.66,0,0,1,.66.66v6.16a0,0,0,0,1,0,0H147.53a0,0,0,0,1,0,0v-6.16A.66.66,0,0,1,148.19,356.49Z" style="fill:#00C6FF"></path><path d="M148.19,356.49h10.37a.66.66,0,0,1,.66.66v6.16a0,0,0,0,1,0,0H147.53a0,0,0,0,1,0,0v-6.16A.66.66,0,0,1,148.19,356.49Z" style="opacity:0.4;isolation:isolate"></path><path d="M163,356.49h10.37a.66.66,0,0,1,.66.66v6.16a0,0,0,0,1,0,0H162.31a0,0,0,0,1,0,0v-6.16A.66.66,0,0,1,163,356.49Z" style="fill:#00C6FF"></path><path d="M163,356.49h10.37a.66.66,0,0,1,.66.66v6.16a0,0,0,0,1,0,0H162.31a0,0,0,0,1,0,0v-6.16A.66.66,0,0,1,163,356.49Z" style="opacity:0.30000000000000004;isolation:isolate"></path><path d="M142.23,360h51.85a.61.61,0,0,1,.61.61V388a0,0,0,0,1,0,0H141.62a0,0,0,0,1,0,0V360.58A.61.61,0,0,1,142.23,360Z" style="fill:#00C6FF"></path><path d="M167.51,360h26.57a.61.61,0,0,1,.61.61V388a0,0,0,0,1,0,0H166.9a0,0,0,0,1,0,0V360.58A.61.61,0,0,1,167.51,360Z" style="opacity:0.2;isolation:isolate"></path><path d="M205.18,356.49h10.37a.66.66,0,0,1,.66.66v6.16a0,0,0,0,1,0,0H204.52a0,0,0,0,1,0,0v-6.16A.66.66,0,0,1,205.18,356.49Z" style="fill:#00C6FF"></path><path d="M205.18,356.49h10.37a.66.66,0,0,1,.66.66v6.16a0,0,0,0,1,0,0H204.52a0,0,0,0,1,0,0v-6.16A.66.66,0,0,1,205.18,356.49Z" style="opacity:0.4;isolation:isolate"></path><path d="M175.62,356.49H186a.66.66,0,0,1,.66.66v6.16a0,0,0,0,1,0,0H175a0,0,0,0,1,0,0v-6.16A.66.66,0,0,1,175.62,356.49Z" style="fill:#00C6FF"></path><path d="M175.62,356.49H186a.66.66,0,0,1,.66.66v6.16a0,0,0,0,1,0,0H175a0,0,0,0,1,0,0v-6.16A.66.66,0,0,1,175.62,356.49Z" style="opacity:0.4;isolation:isolate"></path><path d="M190.4,356.49h10.38a.66.66,0,0,1,.66.66v6.16a0,0,0,0,1,0,0H189.74a0,0,0,0,1,0,0v-6.16A.66.66,0,0,1,190.4,356.49Z" style="fill:#00C6FF"></path><path d="M190.4,356.49h10.38a.66.66,0,0,1,.66.66v6.16a0,0,0,0,1,0,0H189.74a0,0,0,0,1,0,0v-6.16A.66.66,0,0,1,190.4,356.49Z" style="opacity:0.30000000000000004;isolation:isolate"></path><path d="M169.66,360h51.85a.61.61,0,0,1,.61.61V388a0,0,0,0,1,0,0H169.05a0,0,0,0,1,0,0V360.58A.61.61,0,0,1,169.66,360Z" style="fill:#00C6FF"></path><path d="M194.94,360h26.57a.61.61,0,0,1,.61.61V388a0,0,0,0,1,0,0H194.33a0,0,0,0,1,0,0V360.58A.61.61,0,0,1,194.94,360Z" style="opacity:0.2;isolation:isolate"></path><path d="M232.61,356.49H243a.66.66,0,0,1,.66.66v6.16a0,0,0,0,1,0,0H231.95a0,0,0,0,1,0,0v-6.16A.66.66,0,0,1,232.61,356.49Z" style="fill:#00C6FF"></path><path d="M232.61,356.49H243a.66.66,0,0,1,.66.66v6.16a0,0,0,0,1,0,0H231.95a0,0,0,0,1,0,0v-6.16A.66.66,0,0,1,232.61,356.49Z" style="opacity:0.4;isolation:isolate"></path><path d="M203,356.49h10.37a.66.66,0,0,1,.66.66v6.16a0,0,0,0,1,0,0H202.39a0,0,0,0,1,0,0v-6.16A.66.66,0,0,1,203,356.49Z" style="fill:#00C6FF"></path><path d="M203,356.49h10.37a.66.66,0,0,1,.66.66v6.16a0,0,0,0,1,0,0H202.39a0,0,0,0,1,0,0v-6.16A.66.66,0,0,1,203,356.49Z" style="opacity:0.4;isolation:isolate"></path><path d="M217.83,356.49H228.2a.66.66,0,0,1,.66.66v6.16a0,0,0,0,1,0,0H217.17a0,0,0,0,1,0,0v-6.16A.66.66,0,0,1,217.83,356.49Z" style="fill:#00C6FF"></path><path d="M217.83,356.49H228.2a.66.66,0,0,1,.66.66v6.16a0,0,0,0,1,0,0H217.17a0,0,0,0,1,0,0v-6.16A.66.66,0,0,1,217.83,356.49Z" style="opacity:0.30000000000000004;isolation:isolate"></path><path d="M197.09,360h51.85a.61.61,0,0,1,.61.61V388a0,0,0,0,1,0,0H196.48a0,0,0,0,1,0,0V360.58A.61.61,0,0,1,197.09,360Z" style="fill:#00C6FF"></path><path d="M222.37,360h26.57a.61.61,0,0,1,.61.61V388a0,0,0,0,1,0,0H221.76a0,0,0,0,1,0,0V360.58A.61.61,0,0,1,222.37,360Z" style="opacity:0.2;isolation:isolate"></path><path d="M260,356.49h10.37a.66.66,0,0,1,.66.66v6.16a0,0,0,0,1,0,0H259.38a0,0,0,0,1,0,0v-6.16A.66.66,0,0,1,260,356.49Z" style="fill:#00C6FF"></path><path d="M260,356.49h10.37a.66.66,0,0,1,.66.66v6.16a0,0,0,0,1,0,0H259.38a0,0,0,0,1,0,0v-6.16A.66.66,0,0,1,260,356.49Z" style="opacity:0.4;isolation:isolate"></path><path d="M230.48,356.49h10.37a.66.66,0,0,1,.66.66v6.16a0,0,0,0,1,0,0H229.82a0,0,0,0,1,0,0v-6.16A.66.66,0,0,1,230.48,356.49Z" style="fill:#00C6FF"></path><path d="M230.48,356.49h10.37a.66.66,0,0,1,.66.66v6.16a0,0,0,0,1,0,0H229.82a0,0,0,0,1,0,0v-6.16A.66.66,0,0,1,230.48,356.49Z" style="opacity:0.4;isolation:isolate"></path><path d="M245.26,356.49h10.37a.66.66,0,0,1,.66.66v6.16a0,0,0,0,1,0,0H244.6a0,0,0,0,1,0,0v-6.16A.66.66,0,0,1,245.26,356.49Z" style="fill:#00C6FF"></path><path d="M245.26,356.49h10.37a.66.66,0,0,1,.66.66v6.16a0,0,0,0,1,0,0H244.6a0,0,0,0,1,0,0v-6.16A.66.66,0,0,1,245.26,356.49Z" style="opacity:0.30000000000000004;isolation:isolate"></path><path d="M224.52,360h51.85a.61.61,0,0,1,.61.61V388a0,0,0,0,1,0,0H223.91a0,0,0,0,1,0,0V360.58A.61.61,0,0,1,224.52,360Z" style="fill:#00C6FF"></path><path d="M249.8,360h26.57a.61.61,0,0,1,.61.61V388a0,0,0,0,1,0,0H249.19a0,0,0,0,1,0,0V360.58A.61.61,0,0,1,249.8,360Z" style="opacity:0.2;isolation:isolate"></path><path d="M149.9,327.9h10.38a.66.66,0,0,1,.66.66v6.16a0,0,0,0,1,0,0H149.24a0,0,0,0,1,0,0v-6.16A.66.66,0,0,1,149.9,327.9Z" style="fill:#00C6FF"></path><path d="M149.9,327.9h10.38a.66.66,0,0,1,.66.66v6.16a0,0,0,0,1,0,0H149.24a0,0,0,0,1,0,0v-6.16A.66.66,0,0,1,149.9,327.9Z" style="opacity:0.4;isolation:isolate"></path><path d="M120.34,327.9h10.37a.66.66,0,0,1,.66.66v6.16a0,0,0,0,1,0,0H119.68a0,0,0,0,1,0,0v-6.16A.66.66,0,0,1,120.34,327.9Z" style="fill:#00C6FF"></path><path d="M120.34,327.9h10.37a.66.66,0,0,1,.66.66v6.16a0,0,0,0,1,0,0H119.68a0,0,0,0,1,0,0v-6.16A.66.66,0,0,1,120.34,327.9Z" style="opacity:0.4;isolation:isolate"></path><path d="M135.12,327.9h10.37a.66.66,0,0,1,.66.66v6.16a0,0,0,0,1,0,0H134.46a0,0,0,0,1,0,0v-6.16A.66.66,0,0,1,135.12,327.9Z" style="fill:#00C6FF"></path><path d="M135.12,327.9h10.37a.66.66,0,0,1,.66.66v6.16a0,0,0,0,1,0,0H134.46a0,0,0,0,1,0,0v-6.16A.66.66,0,0,1,135.12,327.9Z" style="opacity:0.30000000000000004;isolation:isolate"></path><path d="M114.38,331.38h51.85a.61.61,0,0,1,.61.61v27.38a0,0,0,0,1,0,0H113.77a0,0,0,0,1,0,0V332A.61.61,0,0,1,114.38,331.38Z" style="fill:#00C6FF"></path><path d="M139.66,331.38h26.57a.61.61,0,0,1,.61.61v27.38a0,0,0,0,1,0,0H139.05a0,0,0,0,1,0,0V332A.61.61,0,0,1,139.66,331.38Z" style="opacity:0.2;isolation:isolate"></path><path d="M177.33,327.9H187.7a.66.66,0,0,1,.66.66v6.16a0,0,0,0,1,0,0H176.67a0,0,0,0,1,0,0v-6.16A.66.66,0,0,1,177.33,327.9Z" style="fill:#00C6FF"></path><path d="M177.33,327.9H187.7a.66.66,0,0,1,.66.66v6.16a0,0,0,0,1,0,0H176.67a0,0,0,0,1,0,0v-6.16A.66.66,0,0,1,177.33,327.9Z" style="opacity:0.4;isolation:isolate"></path><path d="M147.77,327.9h10.37a.66.66,0,0,1,.66.66v6.16a0,0,0,0,1,0,0H147.11a0,0,0,0,1,0,0v-6.16A.66.66,0,0,1,147.77,327.9Z" style="fill:#00C6FF"></path><path d="M147.77,327.9h10.37a.66.66,0,0,1,.66.66v6.16a0,0,0,0,1,0,0H147.11a0,0,0,0,1,0,0v-6.16A.66.66,0,0,1,147.77,327.9Z" style="opacity:0.4;isolation:isolate"></path><path d="M162.55,327.9h10.37a.66.66,0,0,1,.66.66v6.16a0,0,0,0,1,0,0H161.89a0,0,0,0,1,0,0v-6.16A.66.66,0,0,1,162.55,327.9Z" style="fill:#00C6FF"></path><path d="M162.55,327.9h10.37a.66.66,0,0,1,.66.66v6.16a0,0,0,0,1,0,0H161.89a0,0,0,0,1,0,0v-6.16A.66.66,0,0,1,162.55,327.9Z" style="opacity:0.30000000000000004;isolation:isolate"></path><path d="M141.81,331.38h51.85a.61.61,0,0,1,.61.61v27.38a0,0,0,0,1,0,0H141.2a0,0,0,0,1,0,0V332A.61.61,0,0,1,141.81,331.38Z" style="fill:#00C6FF"></path><path d="M167.09,331.38h26.57a.61.61,0,0,1,.61.61v27.38a0,0,0,0,1,0,0H166.48a0,0,0,0,1,0,0V332A.61.61,0,0,1,167.09,331.38Z" style="opacity:0.2;isolation:isolate"></path><path d="M204.76,327.9h10.37a.66.66,0,0,1,.66.66v6.16a0,0,0,0,1,0,0H204.1a0,0,0,0,1,0,0v-6.16A.66.66,0,0,1,204.76,327.9Z" style="fill:#00C6FF"></path><path d="M204.76,327.9h10.37a.66.66,0,0,1,.66.66v6.16a0,0,0,0,1,0,0H204.1a0,0,0,0,1,0,0v-6.16A.66.66,0,0,1,204.76,327.9Z" style="opacity:0.4;isolation:isolate"></path><path d="M175.2,327.9h10.37a.66.66,0,0,1,.66.66v6.16a0,0,0,0,1,0,0H174.54a0,0,0,0,1,0,0v-6.16A.66.66,0,0,1,175.2,327.9Z" style="fill:#00C6FF"></path><path d="M175.2,327.9h10.37a.66.66,0,0,1,.66.66v6.16a0,0,0,0,1,0,0H174.54a0,0,0,0,1,0,0v-6.16A.66.66,0,0,1,175.2,327.9Z" style="opacity:0.4;isolation:isolate"></path><path d="M190,327.9h10.37a.66.66,0,0,1,.66.66v6.16a0,0,0,0,1,0,0H189.32a0,0,0,0,1,0,0v-6.16A.66.66,0,0,1,190,327.9Z" style="fill:#00C6FF"></path><path d="M190,327.9h10.37a.66.66,0,0,1,.66.66v6.16a0,0,0,0,1,0,0H189.32a0,0,0,0,1,0,0v-6.16A.66.66,0,0,1,190,327.9Z" style="opacity:0.30000000000000004;isolation:isolate"></path><path d="M169.24,331.38h51.85a.61.61,0,0,1,.61.61v27.38a0,0,0,0,1,0,0H168.63a0,0,0,0,1,0,0V332A.61.61,0,0,1,169.24,331.38Z" style="fill:#00C6FF"></path><path d="M194.52,331.38h26.57a.61.61,0,0,1,.61.61v27.38a0,0,0,0,1,0,0H193.91a0,0,0,0,1,0,0V332A.61.61,0,0,1,194.52,331.38Z" style="opacity:0.2;isolation:isolate"></path><path d="M232.19,327.9h10.37a.66.66,0,0,1,.66.66v6.16a0,0,0,0,1,0,0H231.53a0,0,0,0,1,0,0v-6.16A.66.66,0,0,1,232.19,327.9Z" style="fill:#00C6FF"></path><path d="M232.19,327.9h10.37a.66.66,0,0,1,.66.66v6.16a0,0,0,0,1,0,0H231.53a0,0,0,0,1,0,0v-6.16A.66.66,0,0,1,232.19,327.9Z" style="opacity:0.4;isolation:isolate"></path><path d="M202.63,327.9H213a.66.66,0,0,1,.66.66v6.16a0,0,0,0,1,0,0H202a0,0,0,0,1,0,0v-6.16A.66.66,0,0,1,202.63,327.9Z" style="fill:#00C6FF"></path><path d="M202.63,327.9H213a.66.66,0,0,1,.66.66v6.16a0,0,0,0,1,0,0H202a0,0,0,0,1,0,0v-6.16A.66.66,0,0,1,202.63,327.9Z" style="opacity:0.4;isolation:isolate"></path><path d="M217.41,327.9h10.37a.66.66,0,0,1,.66.66v6.16a0,0,0,0,1,0,0H216.75a0,0,0,0,1,0,0v-6.16A.66.66,0,0,1,217.41,327.9Z" style="fill:#00C6FF"></path><path d="M217.41,327.9h10.37a.66.66,0,0,1,.66.66v6.16a0,0,0,0,1,0,0H216.75a0,0,0,0,1,0,0v-6.16A.66.66,0,0,1,217.41,327.9Z" style="opacity:0.30000000000000004;isolation:isolate"></path><path d="M196.67,331.38h51.85a.61.61,0,0,1,.61.61v27.38a0,0,0,0,1,0,0H196.06a0,0,0,0,1,0,0V332A.61.61,0,0,1,196.67,331.38Z" style="fill:#00C6FF"></path><path d="M221.95,331.38h26.57a.61.61,0,0,1,.61.61v27.38a0,0,0,0,1,0,0H221.34a0,0,0,0,1,0,0V332A.61.61,0,0,1,221.95,331.38Z" style="opacity:0.2;isolation:isolate"></path><path d="M259.62,327.9H270a.66.66,0,0,1,.66.66v6.16a0,0,0,0,1,0,0H259a0,0,0,0,1,0,0v-6.16A.66.66,0,0,1,259.62,327.9Z" style="fill:#00C6FF"></path><path d="M259.62,327.9H270a.66.66,0,0,1,.66.66v6.16a0,0,0,0,1,0,0H259a0,0,0,0,1,0,0v-6.16A.66.66,0,0,1,259.62,327.9Z" style="opacity:0.4;isolation:isolate"></path><path d="M230.06,327.9h10.37a.66.66,0,0,1,.66.66v6.16a0,0,0,0,1,0,0H229.4a0,0,0,0,1,0,0v-6.16A.66.66,0,0,1,230.06,327.9Z" style="fill:#00C6FF"></path><path d="M230.06,327.9h10.37a.66.66,0,0,1,.66.66v6.16a0,0,0,0,1,0,0H229.4a0,0,0,0,1,0,0v-6.16A.66.66,0,0,1,230.06,327.9Z" style="opacity:0.4;isolation:isolate"></path><path d="M244.84,327.9h10.38a.66.66,0,0,1,.66.66v6.16a0,0,0,0,1,0,0H244.18a0,0,0,0,1,0,0v-6.16A.66.66,0,0,1,244.84,327.9Z" style="fill:#00C6FF"></path><path d="M244.84,327.9h10.38a.66.66,0,0,1,.66.66v6.16a0,0,0,0,1,0,0H244.18a0,0,0,0,1,0,0v-6.16A.66.66,0,0,1,244.84,327.9Z" style="opacity:0.30000000000000004;isolation:isolate"></path><path d="M224.1,331.38H276a.61.61,0,0,1,.61.61v27.38a0,0,0,0,1,0,0H223.49a0,0,0,0,1,0,0V332A.61.61,0,0,1,224.1,331.38Z" style="fill:#00C6FF"></path><path d="M249.38,331.38H276a.61.61,0,0,1,.61.61v27.38a0,0,0,0,1,0,0H248.77a0,0,0,0,1,0,0V332A.61.61,0,0,1,249.38,331.38Z" style="opacity:0.2;isolation:isolate"></path><path d="M149.48,299.3h10.38a.66.66,0,0,1,.66.66v6.16a0,0,0,0,1,0,0H148.82a0,0,0,0,1,0,0V300A.66.66,0,0,1,149.48,299.3Z" style="fill:#00C6FF"></path><path d="M149.48,299.3h10.38a.66.66,0,0,1,.66.66v6.16a0,0,0,0,1,0,0H148.82a0,0,0,0,1,0,0V300A.66.66,0,0,1,149.48,299.3Z" style="opacity:0.4;isolation:isolate"></path><path d="M119.92,299.3H130.3a.66.66,0,0,1,.66.66v6.16a0,0,0,0,1,0,0H119.26a0,0,0,0,1,0,0V300A.66.66,0,0,1,119.92,299.3Z" style="fill:#00C6FF"></path><path d="M119.92,299.3H130.3a.66.66,0,0,1,.66.66v6.16a0,0,0,0,1,0,0H119.26a0,0,0,0,1,0,0V300A.66.66,0,0,1,119.92,299.3Z" style="opacity:0.4;isolation:isolate"></path><path d="M134.7,299.3h10.38a.66.66,0,0,1,.66.66v6.16a0,0,0,0,1,0,0H134a0,0,0,0,1,0,0V300A.66.66,0,0,1,134.7,299.3Z" style="fill:#00C6FF"></path><path d="M134.7,299.3h10.38a.66.66,0,0,1,.66.66v6.16a0,0,0,0,1,0,0H134a0,0,0,0,1,0,0V300A.66.66,0,0,1,134.7,299.3Z" style="opacity:0.30000000000000004;isolation:isolate"></path><path d="M114,302.78h51.85a.61.61,0,0,1,.61.61v27.38a0,0,0,0,1,0,0H113.35a0,0,0,0,1,0,0V303.39A.61.61,0,0,1,114,302.78Z" style="fill:#00C6FF"></path><path d="M139.24,302.78h26.57a.61.61,0,0,1,.61.61v27.38a0,0,0,0,1,0,0H138.63a0,0,0,0,1,0,0V303.39A.61.61,0,0,1,139.24,302.78Z" style="opacity:0.2;isolation:isolate"></path><path d="M176.91,299.3h10.38a.66.66,0,0,1,.66.66v6.16a0,0,0,0,1,0,0H176.25a0,0,0,0,1,0,0V300A.66.66,0,0,1,176.91,299.3Z" style="fill:#00C6FF"></path><path d="M176.91,299.3h10.38a.66.66,0,0,1,.66.66v6.16a0,0,0,0,1,0,0H176.25a0,0,0,0,1,0,0V300A.66.66,0,0,1,176.91,299.3Z" style="opacity:0.4;isolation:isolate"></path><path d="M147.35,299.3h10.38a.66.66,0,0,1,.66.66v6.16a0,0,0,0,1,0,0H146.69a0,0,0,0,1,0,0V300A.66.66,0,0,1,147.35,299.3Z" style="fill:#00C6FF"></path><path d="M147.35,299.3h10.38a.66.66,0,0,1,.66.66v6.16a0,0,0,0,1,0,0H146.69a0,0,0,0,1,0,0V300A.66.66,0,0,1,147.35,299.3Z" style="opacity:0.4;isolation:isolate"></path><path d="M162.13,299.3h10.38a.66.66,0,0,1,.66.66v6.16a0,0,0,0,1,0,0H161.47a0,0,0,0,1,0,0V300A.66.66,0,0,1,162.13,299.3Z" style="fill:#00C6FF"></path><path d="M162.13,299.3h10.38a.66.66,0,0,1,.66.66v6.16a0,0,0,0,1,0,0H161.47a0,0,0,0,1,0,0V300A.66.66,0,0,1,162.13,299.3Z" style="opacity:0.30000000000000004;isolation:isolate"></path><path d="M141.39,302.78h51.85a.61.61,0,0,1,.61.61v27.38a0,0,0,0,1,0,0H140.79a0,0,0,0,1,0,0V303.39A.61.61,0,0,1,141.39,302.78Z" style="fill:#00C6FF"></path><path d="M166.67,302.78h26.57a.61.61,0,0,1,.61.61v27.38a0,0,0,0,1,0,0H166.07a0,0,0,0,1,0,0V303.39A.61.61,0,0,1,166.67,302.78Z" style="opacity:0.2;isolation:isolate"></path><path d="M204.34,299.3h10.38a.66.66,0,0,1,.66.66v6.16a0,0,0,0,1,0,0H203.68a0,0,0,0,1,0,0V300A.66.66,0,0,1,204.34,299.3Z" style="fill:#00C6FF"></path><path d="M204.34,299.3h10.38a.66.66,0,0,1,.66.66v6.16a0,0,0,0,1,0,0H203.68a0,0,0,0,1,0,0V300A.66.66,0,0,1,204.34,299.3Z" style="opacity:0.4;isolation:isolate"></path><path d="M174.78,299.3h10.38a.66.66,0,0,1,.66.66v6.16a0,0,0,0,1,0,0H174.12a0,0,0,0,1,0,0V300A.66.66,0,0,1,174.78,299.3Z" style="fill:#00C6FF"></path><path d="M174.78,299.3h10.38a.66.66,0,0,1,.66.66v6.16a0,0,0,0,1,0,0H174.12a0,0,0,0,1,0,0V300A.66.66,0,0,1,174.78,299.3Z" style="opacity:0.4;isolation:isolate"></path><path d="M189.56,299.3h10.38a.66.66,0,0,1,.66.66v6.16a0,0,0,0,1,0,0H188.9a0,0,0,0,1,0,0V300A.66.66,0,0,1,189.56,299.3Z" style="fill:#00C6FF"></path><path d="M189.56,299.3h10.38a.66.66,0,0,1,.66.66v6.16a0,0,0,0,1,0,0H188.9a0,0,0,0,1,0,0V300A.66.66,0,0,1,189.56,299.3Z" style="opacity:0.30000000000000004;isolation:isolate"></path><path d="M168.82,302.78h51.85a.61.61,0,0,1,.61.61v27.38a0,0,0,0,1,0,0H168.22a0,0,0,0,1,0,0V303.39A.61.61,0,0,1,168.82,302.78Z" style="fill:#00C6FF"></path><path d="M194.1,302.78h26.57a.61.61,0,0,1,.61.61v27.38a0,0,0,0,1,0,0H193.5a0,0,0,0,1,0,0V303.39A.61.61,0,0,1,194.1,302.78Z" style="opacity:0.2;isolation:isolate"></path><path d="M231.77,299.3h10.38a.66.66,0,0,1,.66.66v6.16a0,0,0,0,1,0,0H231.11a0,0,0,0,1,0,0V300A.66.66,0,0,1,231.77,299.3Z" style="fill:#00C6FF"></path><path d="M231.77,299.3h10.38a.66.66,0,0,1,.66.66v6.16a0,0,0,0,1,0,0H231.11a0,0,0,0,1,0,0V300A.66.66,0,0,1,231.77,299.3Z" style="opacity:0.4;isolation:isolate"></path><path d="M202.21,299.3h10.38a.66.66,0,0,1,.66.66v6.16a0,0,0,0,1,0,0H201.55a0,0,0,0,1,0,0V300A.66.66,0,0,1,202.21,299.3Z" style="fill:#00C6FF"></path><path d="M202.21,299.3h10.38a.66.66,0,0,1,.66.66v6.16a0,0,0,0,1,0,0H201.55a0,0,0,0,1,0,0V300A.66.66,0,0,1,202.21,299.3Z" style="opacity:0.4;isolation:isolate"></path><path d="M217,299.3h10.38a.66.66,0,0,1,.66.66v6.16a0,0,0,0,1,0,0H216.33a0,0,0,0,1,0,0V300A.66.66,0,0,1,217,299.3Z" style="fill:#00C6FF"></path><path d="M217,299.3h10.38a.66.66,0,0,1,.66.66v6.16a0,0,0,0,1,0,0H216.33a0,0,0,0,1,0,0V300A.66.66,0,0,1,217,299.3Z" style="opacity:0.30000000000000004;isolation:isolate"></path><path d="M196.25,302.78h51.85a.61.61,0,0,1,.61.61v27.38a0,0,0,0,1,0,0H195.65a0,0,0,0,1,0,0V303.39A.61.61,0,0,1,196.25,302.78Z" style="fill:#00C6FF"></path><path d="M221.53,302.78h26.57a.61.61,0,0,1,.61.61v27.38a0,0,0,0,1,0,0H220.93a0,0,0,0,1,0,0V303.39A.61.61,0,0,1,221.53,302.78Z" style="opacity:0.2;isolation:isolate"></path><path d="M259.2,299.3h10.38a.66.66,0,0,1,.66.66v6.16a0,0,0,0,1,0,0H258.54a0,0,0,0,1,0,0V300A.66.66,0,0,1,259.2,299.3Z" style="fill:#00C6FF"></path><path d="M259.2,299.3h10.38a.66.66,0,0,1,.66.66v6.16a0,0,0,0,1,0,0H258.54a0,0,0,0,1,0,0V300A.66.66,0,0,1,259.2,299.3Z" style="opacity:0.4;isolation:isolate"></path><path d="M229.64,299.3H240a.66.66,0,0,1,.66.66v6.16a0,0,0,0,1,0,0H229a0,0,0,0,1,0,0V300A.66.66,0,0,1,229.64,299.3Z" style="fill:#00C6FF"></path><path d="M229.64,299.3H240a.66.66,0,0,1,.66.66v6.16a0,0,0,0,1,0,0H229a0,0,0,0,1,0,0V300A.66.66,0,0,1,229.64,299.3Z" style="opacity:0.4;isolation:isolate"></path><path d="M244.42,299.3H254.8a.66.66,0,0,1,.66.66v6.16a0,0,0,0,1,0,0H243.76a0,0,0,0,1,0,0V300A.66.66,0,0,1,244.42,299.3Z" style="fill:#00C6FF"></path><path d="M244.42,299.3H254.8a.66.66,0,0,1,.66.66v6.16a0,0,0,0,1,0,0H243.76a0,0,0,0,1,0,0V300A.66.66,0,0,1,244.42,299.3Z" style="opacity:0.30000000000000004;isolation:isolate"></path><path d="M223.68,302.78h51.85a.61.61,0,0,1,.61.61v27.38a0,0,0,0,1,0,0H223.08a0,0,0,0,1,0,0V303.39A.61.61,0,0,1,223.68,302.78Z" style="fill:#00C6FF"></path><path d="M249,302.78h26.57a.61.61,0,0,1,.61.61v27.38a0,0,0,0,1,0,0H248.36a0,0,0,0,1,0,0V303.39A.61.61,0,0,1,249,302.78Z" style="opacity:0.2;isolation:isolate"></path><path d="M149.06,270.7h10.38a.66.66,0,0,1,.66.66v6.16a0,0,0,0,1,0,0H148.4a0,0,0,0,1,0,0v-6.16A.66.66,0,0,1,149.06,270.7Z" style="fill:#00C6FF"></path><path d="M149.06,270.7h10.38a.66.66,0,0,1,.66.66v6.16a0,0,0,0,1,0,0H148.4a0,0,0,0,1,0,0v-6.16A.66.66,0,0,1,149.06,270.7Z" style="opacity:0.4;isolation:isolate"></path><path d="M119.5,270.7h10.38a.66.66,0,0,1,.66.66v6.16a0,0,0,0,1,0,0H118.84a0,0,0,0,1,0,0v-6.16A.66.66,0,0,1,119.5,270.7Z" style="fill:#00C6FF"></path><path d="M119.5,270.7h10.38a.66.66,0,0,1,.66.66v6.16a0,0,0,0,1,0,0H118.84a0,0,0,0,1,0,0v-6.16A.66.66,0,0,1,119.5,270.7Z" style="opacity:0.4;isolation:isolate"></path><path d="M134.28,270.7h10.38a.66.66,0,0,1,.66.66v6.16a0,0,0,0,1,0,0H133.62a0,0,0,0,1,0,0v-6.16A.66.66,0,0,1,134.28,270.7Z" style="fill:#00C6FF"></path><path d="M134.28,270.7h10.38a.66.66,0,0,1,.66.66v6.16a0,0,0,0,1,0,0H133.62a0,0,0,0,1,0,0v-6.16A.66.66,0,0,1,134.28,270.7Z" style="opacity:0.30000000000000004;isolation:isolate"></path><path d="M113.54,274.18H165.4a.61.61,0,0,1,.61.61v27.38a0,0,0,0,1,0,0H112.94a0,0,0,0,1,0,0V274.79A.61.61,0,0,1,113.54,274.18Z" style="fill:#00C6FF"></path><path d="M138.82,274.18H165.4a.61.61,0,0,1,.61.61v27.37a0,0,0,0,1,0,0H138.22a0,0,0,0,1,0,0V274.79A.61.61,0,0,1,138.82,274.18Z" style="opacity:0.2;isolation:isolate"></path><path d="M176.49,270.7h10.38a.66.66,0,0,1,.66.66v6.16a0,0,0,0,1,0,0H175.83a0,0,0,0,1,0,0v-6.16A.66.66,0,0,1,176.49,270.7Z" style="fill:#00C6FF"></path><path d="M176.49,270.7h10.38a.66.66,0,0,1,.66.66v6.16a0,0,0,0,1,0,0H175.83a0,0,0,0,1,0,0v-6.16A.66.66,0,0,1,176.49,270.7Z" style="opacity:0.4;isolation:isolate"></path><path d="M146.93,270.7h10.37a.66.66,0,0,1,.66.66v6.16a0,0,0,0,1,0,0H146.27a0,0,0,0,1,0,0v-6.16A.66.66,0,0,1,146.93,270.7Z" style="fill:#00C6FF"></path><path d="M146.93,270.7h10.37a.66.66,0,0,1,.66.66v6.16a0,0,0,0,1,0,0H146.27a0,0,0,0,1,0,0v-6.16A.66.66,0,0,1,146.93,270.7Z" style="opacity:0.4;isolation:isolate"></path><path d="M161.71,270.7h10.37a.66.66,0,0,1,.66.66v6.16a0,0,0,0,1,0,0H161.05a0,0,0,0,1,0,0v-6.16A.66.66,0,0,1,161.71,270.7Z" style="fill:#00C6FF"></path><path d="M161.71,270.7h10.37a.66.66,0,0,1,.66.66v6.16a0,0,0,0,1,0,0H161.05a0,0,0,0,1,0,0v-6.16A.66.66,0,0,1,161.71,270.7Z" style="opacity:0.30000000000000004;isolation:isolate"></path><path d="M141,274.18h51.85a.61.61,0,0,1,.61.61v27.38a0,0,0,0,1,0,0H140.37a0,0,0,0,1,0,0V274.79A.61.61,0,0,1,141,274.18Z" style="fill:#00C6FF"></path><path d="M166.25,274.18h26.57a.61.61,0,0,1,.61.61v27.37a0,0,0,0,1,0,0H165.65a0,0,0,0,1,0,0V274.79A.61.61,0,0,1,166.25,274.18Z" style="opacity:0.2;isolation:isolate"></path><path d="M203.92,270.7H214.3a.66.66,0,0,1,.66.66v6.16a0,0,0,0,1,0,0H203.26a0,0,0,0,1,0,0v-6.16A.66.66,0,0,1,203.92,270.7Z" style="fill:#00C6FF"></path><path d="M203.92,270.7H214.3a.66.66,0,0,1,.66.66v6.16a0,0,0,0,1,0,0H203.26a0,0,0,0,1,0,0v-6.16A.66.66,0,0,1,203.92,270.7Z" style="opacity:0.4;isolation:isolate"></path><path d="M174.36,270.7h10.38a.66.66,0,0,1,.66.66v6.16a0,0,0,0,1,0,0H173.7a0,0,0,0,1,0,0v-6.16A.66.66,0,0,1,174.36,270.7Z" style="fill:#00C6FF"></path><path d="M174.36,270.7h10.38a.66.66,0,0,1,.66.66v6.16a0,0,0,0,1,0,0H173.7a0,0,0,0,1,0,0v-6.16A.66.66,0,0,1,174.36,270.7Z" style="opacity:0.4;isolation:isolate"></path><path d="M189.14,270.7h10.38a.66.66,0,0,1,.66.66v6.16a0,0,0,0,1,0,0H188.48a0,0,0,0,1,0,0v-6.16A.66.66,0,0,1,189.14,270.7Z" style="fill:#00C6FF"></path><path d="M189.14,270.7h10.38a.66.66,0,0,1,.66.66v6.16a0,0,0,0,1,0,0H188.48a0,0,0,0,1,0,0v-6.16A.66.66,0,0,1,189.14,270.7Z" style="opacity:0.30000000000000004;isolation:isolate"></path><path d="M168.4,274.18h51.85a.61.61,0,0,1,.61.61v27.38a0,0,0,0,1,0,0H167.8a0,0,0,0,1,0,0V274.79A.61.61,0,0,1,168.4,274.18Z" style="fill:#00C6FF"></path><path d="M193.68,274.18h26.57a.61.61,0,0,1,.61.61v27.37a0,0,0,0,1,0,0H193.08a0,0,0,0,1,0,0V274.79A.61.61,0,0,1,193.68,274.18Z" style="opacity:0.2;isolation:isolate"></path><path d="M231.35,270.7h10.38a.66.66,0,0,1,.66.66v6.16a0,0,0,0,1,0,0H230.69a0,0,0,0,1,0,0v-6.16A.66.66,0,0,1,231.35,270.7Z" style="fill:#00C6FF"></path><path d="M231.35,270.7h10.38a.66.66,0,0,1,.66.66v6.16a0,0,0,0,1,0,0H230.69a0,0,0,0,1,0,0v-6.16A.66.66,0,0,1,231.35,270.7Z" style="opacity:0.4;isolation:isolate"></path><path d="M201.79,270.7h10.38a.66.66,0,0,1,.66.66v6.16a0,0,0,0,1,0,0H201.13a0,0,0,0,1,0,0v-6.16A.66.66,0,0,1,201.79,270.7Z" style="fill:#00C6FF"></path><path d="M201.79,270.7h10.38a.66.66,0,0,1,.66.66v6.16a0,0,0,0,1,0,0H201.13a0,0,0,0,1,0,0v-6.16A.66.66,0,0,1,201.79,270.7Z" style="opacity:0.4;isolation:isolate"></path><path d="M216.57,270.7h10.38a.66.66,0,0,1,.66.66v6.16a0,0,0,0,1,0,0H215.91a0,0,0,0,1,0,0v-6.16A.66.66,0,0,1,216.57,270.7Z" style="fill:#00C6FF"></path><path d="M216.57,270.7h10.38a.66.66,0,0,1,.66.66v6.16a0,0,0,0,1,0,0H215.91a0,0,0,0,1,0,0v-6.16A.66.66,0,0,1,216.57,270.7Z" style="opacity:0.30000000000000004;isolation:isolate"></path><path d="M195.83,274.18h51.85a.61.61,0,0,1,.61.61v27.38a0,0,0,0,1,0,0H195.23a0,0,0,0,1,0,0V274.79A.61.61,0,0,1,195.83,274.18Z" style="fill:#00C6FF"></path><path d="M221.11,274.18h26.57a.61.61,0,0,1,.61.61v27.38a0,0,0,0,1,0,0H220.51a0,0,0,0,1,0,0V274.79A.61.61,0,0,1,221.11,274.18Z" style="opacity:0.2;isolation:isolate"></path><path d="M258.78,270.7h10.38a.66.66,0,0,1,.66.66v6.16a0,0,0,0,1,0,0H258.12a0,0,0,0,1,0,0v-6.16A.66.66,0,0,1,258.78,270.7Z" style="fill:#00C6FF"></path><path d="M258.78,270.7h10.38a.66.66,0,0,1,.66.66v6.16a0,0,0,0,1,0,0H258.12a0,0,0,0,1,0,0v-6.16A.66.66,0,0,1,258.78,270.7Z" style="opacity:0.4;isolation:isolate"></path><path d="M229.22,270.7H239.6a.66.66,0,0,1,.66.66v6.16a0,0,0,0,1,0,0H228.57a0,0,0,0,1,0,0v-6.16A.66.66,0,0,1,229.22,270.7Z" style="fill:#00C6FF"></path><path d="M229.22,270.7H239.6a.66.66,0,0,1,.66.66v6.16a0,0,0,0,1,0,0H228.57a0,0,0,0,1,0,0v-6.16A.66.66,0,0,1,229.22,270.7Z" style="opacity:0.4;isolation:isolate"></path><path d="M244,270.7h10.38a.66.66,0,0,1,.66.66v6.16a0,0,0,0,1,0,0H243.34a0,0,0,0,1,0,0v-6.16A.66.66,0,0,1,244,270.7Z" style="fill:#00C6FF"></path><path d="M244,270.7h10.38a.66.66,0,0,1,.66.66v6.16a0,0,0,0,1,0,0H243.34a0,0,0,0,1,0,0v-6.16A.66.66,0,0,1,244,270.7Z" style="opacity:0.30000000000000004;isolation:isolate"></path><path d="M223.26,274.18h51.85a.61.61,0,0,1,.61.61v27.38a0,0,0,0,1,0,0H222.66a0,0,0,0,1,0,0V274.79A.61.61,0,0,1,223.26,274.18Z" style="fill:#00C6FF"></path><path d="M248.54,274.18h26.57a.61.61,0,0,1,.61.61v27.38a0,0,0,0,1,0,0H247.94a0,0,0,0,1,0,0V274.79A.61.61,0,0,1,248.54,274.18Z" style="opacity:0.2;isolation:isolate"></path><path d="M148.64,242.11H159a.66.66,0,0,1,.66.66v6.16a0,0,0,0,1,0,0H148a0,0,0,0,1,0,0v-6.16A.66.66,0,0,1,148.64,242.11Z" style="fill:#00C6FF"></path><path d="M148.64,242.11H159a.66.66,0,0,1,.66.66v6.16a0,0,0,0,1,0,0H148a0,0,0,0,1,0,0v-6.16A.66.66,0,0,1,148.64,242.11Z" style="opacity:0.4;isolation:isolate"></path><path d="M119.09,242.11h10.38a.66.66,0,0,1,.66.66v6.16a0,0,0,0,1,0,0H118.43a0,0,0,0,1,0,0v-6.16A.66.66,0,0,1,119.09,242.11Z" style="fill:#00C6FF"></path><path d="M119.09,242.11h10.38a.66.66,0,0,1,.66.66v6.16a0,0,0,0,1,0,0H118.43a0,0,0,0,1,0,0v-6.16A.66.66,0,0,1,119.09,242.11Z" style="opacity:0.4;isolation:isolate"></path><path d="M133.87,242.11h10.38a.66.66,0,0,1,.66.66v6.16a0,0,0,0,1,0,0H133.21a0,0,0,0,1,0,0v-6.16A.66.66,0,0,1,133.87,242.11Z" style="fill:#00C6FF"></path><path d="M133.87,242.11h10.38a.66.66,0,0,1,.66.66v6.16a0,0,0,0,1,0,0H133.21a0,0,0,0,1,0,0v-6.16A.66.66,0,0,1,133.87,242.11Z" style="opacity:0.30000000000000004;isolation:isolate"></path><path d="M113.13,245.59H165a.61.61,0,0,1,.61.61v27.38a0,0,0,0,1,0,0H112.52a0,0,0,0,1,0,0V246.19A.61.61,0,0,1,113.13,245.59Z" style="fill:#00C6FF"></path><path d="M138.41,245.59H165a.61.61,0,0,1,.61.61v27.38a0,0,0,0,1,0,0H137.8a0,0,0,0,1,0,0V246.19A.61.61,0,0,1,138.41,245.59Z" style="opacity:0.2;isolation:isolate"></path><path d="M176.08,242.11h10.38a.66.66,0,0,1,.66.66v6.16a0,0,0,0,1,0,0H175.42a0,0,0,0,1,0,0v-6.16A.66.66,0,0,1,176.08,242.11Z" style="fill:#00C6FF"></path><path d="M176.08,242.11h10.38a.66.66,0,0,1,.66.66v6.16a0,0,0,0,1,0,0H175.42a0,0,0,0,1,0,0v-6.16A.66.66,0,0,1,176.08,242.11Z" style="opacity:0.4;isolation:isolate"></path><path d="M146.52,242.11h10.38a.66.66,0,0,1,.66.66v6.16a0,0,0,0,1,0,0H145.86a0,0,0,0,1,0,0v-6.16A.66.66,0,0,1,146.52,242.11Z" style="fill:#00C6FF"></path><path d="M146.52,242.11h10.38a.66.66,0,0,1,.66.66v6.16a0,0,0,0,1,0,0H145.86a0,0,0,0,1,0,0v-6.16A.66.66,0,0,1,146.52,242.11Z" style="opacity:0.4;isolation:isolate"></path><path d="M161.3,242.11h10.38a.66.66,0,0,1,.66.66v6.16a0,0,0,0,1,0,0H160.64a0,0,0,0,1,0,0v-6.16A.66.66,0,0,1,161.3,242.11Z" style="fill:#00C6FF"></path><path d="M161.3,242.11h10.38a.66.66,0,0,1,.66.66v6.16a0,0,0,0,1,0,0H160.64a0,0,0,0,1,0,0v-6.16A.66.66,0,0,1,161.3,242.11Z" style="opacity:0.30000000000000004;isolation:isolate"></path><path d="M140.56,245.59h51.85a.61.61,0,0,1,.61.61v27.38a0,0,0,0,1,0,0H140a0,0,0,0,1,0,0V246.19A.61.61,0,0,1,140.56,245.59Z" style="fill:#00C6FF"></path><path d="M165.84,245.59h26.57a.61.61,0,0,1,.61.61v27.38a0,0,0,0,1,0,0H165.23a0,0,0,0,1,0,0V246.19A.61.61,0,0,1,165.84,245.59Z" style="opacity:0.2;isolation:isolate"></path><path d="M203.51,242.11h10.38a.66.66,0,0,1,.66.66v6.16a0,0,0,0,1,0,0H202.85a0,0,0,0,1,0,0v-6.16A.66.66,0,0,1,203.51,242.11Z" style="fill:#00C6FF"></path><path d="M203.51,242.11h10.38a.66.66,0,0,1,.66.66v6.16a0,0,0,0,1,0,0H202.85a0,0,0,0,1,0,0v-6.16A.66.66,0,0,1,203.51,242.11Z" style="opacity:0.4;isolation:isolate"></path><path d="M173.95,242.11h10.38a.66.66,0,0,1,.66.66v6.16a0,0,0,0,1,0,0H173.29a0,0,0,0,1,0,0v-6.16A.66.66,0,0,1,173.95,242.11Z" style="fill:#00C6FF"></path><path d="M173.95,242.11h10.38a.66.66,0,0,1,.66.66v6.16a0,0,0,0,1,0,0H173.29a0,0,0,0,1,0,0v-6.16A.66.66,0,0,1,173.95,242.11Z" style="opacity:0.4;isolation:isolate"></path><path d="M188.73,242.11H199.1a.66.66,0,0,1,.66.66v6.16a0,0,0,0,1,0,0H188.07a0,0,0,0,1,0,0v-6.16A.66.66,0,0,1,188.73,242.11Z" style="fill:#00C6FF"></path><path d="M188.73,242.11H199.1a.66.66,0,0,1,.66.66v6.16a0,0,0,0,1,0,0H188.07a0,0,0,0,1,0,0v-6.16A.66.66,0,0,1,188.73,242.11Z" style="opacity:0.30000000000000004;isolation:isolate"></path><path d="M168,245.59h51.85a.61.61,0,0,1,.61.61v27.38a0,0,0,0,1,0,0H167.38a0,0,0,0,1,0,0V246.19A.61.61,0,0,1,168,245.59Z" style="fill:#00C6FF"></path><path d="M193.27,245.59h26.57a.61.61,0,0,1,.61.61v27.38a0,0,0,0,1,0,0H192.66a0,0,0,0,1,0,0V246.19A.61.61,0,0,1,193.27,245.59Z" style="opacity:0.2;isolation:isolate"></path><path d="M230.94,242.11h10.38a.66.66,0,0,1,.66.66v6.16a0,0,0,0,1,0,0H230.28a0,0,0,0,1,0,0v-6.16A.66.66,0,0,1,230.94,242.11Z" style="fill:#00C6FF"></path><path d="M230.94,242.11h10.38a.66.66,0,0,1,.66.66v6.16a0,0,0,0,1,0,0H230.28a0,0,0,0,1,0,0v-6.16A.66.66,0,0,1,230.94,242.11Z" style="opacity:0.4;isolation:isolate"></path><path d="M201.38,242.11h10.38a.66.66,0,0,1,.66.66v6.16a0,0,0,0,1,0,0H200.72a0,0,0,0,1,0,0v-6.16A.66.66,0,0,1,201.38,242.11Z" style="fill:#00C6FF"></path><path d="M201.38,242.11h10.38a.66.66,0,0,1,.66.66v6.16a0,0,0,0,1,0,0H200.72a0,0,0,0,1,0,0v-6.16A.66.66,0,0,1,201.38,242.11Z" style="opacity:0.4;isolation:isolate"></path><path d="M216.16,242.11h10.38a.66.66,0,0,1,.66.66v6.16a0,0,0,0,1,0,0H215.5a0,0,0,0,1,0,0v-6.16A.66.66,0,0,1,216.16,242.11Z" style="fill:#00C6FF"></path><path d="M216.16,242.11h10.38a.66.66,0,0,1,.66.66v6.16a0,0,0,0,1,0,0H215.5a0,0,0,0,1,0,0v-6.16A.66.66,0,0,1,216.16,242.11Z" style="opacity:0.30000000000000004;isolation:isolate"></path><path d="M195.42,245.59h51.85a.61.61,0,0,1,.61.61v27.38a0,0,0,0,1,0,0H194.81a0,0,0,0,1,0,0V246.19A.61.61,0,0,1,195.42,245.59Z" style="fill:#00C6FF"></path><path d="M220.7,245.59h26.57a.61.61,0,0,1,.61.61v27.38a0,0,0,0,1,0,0H220.09a0,0,0,0,1,0,0V246.19A.61.61,0,0,1,220.7,245.59Z" style="opacity:0.2;isolation:isolate"></path><path d="M148.23,213.51H158.6a.66.66,0,0,1,.66.66v6.16a0,0,0,0,1,0,0H147.57a0,0,0,0,1,0,0v-6.16A.66.66,0,0,1,148.23,213.51Z" style="fill:#00C6FF"></path><path d="M148.23,213.51H158.6a.66.66,0,0,1,.66.66v6.16a0,0,0,0,1,0,0H147.57a0,0,0,0,1,0,0v-6.16A.66.66,0,0,1,148.23,213.51Z" style="opacity:0.4;isolation:isolate"></path><path d="M118.67,213.51H129a.66.66,0,0,1,.66.66v6.16a0,0,0,0,1,0,0H118a0,0,0,0,1,0,0v-6.16A.66.66,0,0,1,118.67,213.51Z" style="fill:#00C6FF"></path><path d="M118.67,213.51H129a.66.66,0,0,1,.66.66v6.16a0,0,0,0,1,0,0H118a0,0,0,0,1,0,0v-6.16A.66.66,0,0,1,118.67,213.51Z" style="opacity:0.4;isolation:isolate"></path><path d="M133.45,213.51h10.38a.66.66,0,0,1,.66.66v6.16a0,0,0,0,1,0,0H132.79a0,0,0,0,1,0,0v-6.16A.66.66,0,0,1,133.45,213.51Z" style="fill:#00C6FF"></path><path d="M133.45,213.51h10.38a.66.66,0,0,1,.66.66v6.16a0,0,0,0,1,0,0H132.79a0,0,0,0,1,0,0v-6.16A.66.66,0,0,1,133.45,213.51Z" style="opacity:0.30000000000000004;isolation:isolate"></path><path d="M112.71,217h51.85a.61.61,0,0,1,.61.61V245a0,0,0,0,1,0,0H112.1a0,0,0,0,1,0,0V217.6A.61.61,0,0,1,112.71,217Z" style="fill:#00C6FF"></path><path d="M138,217h26.57a.61.61,0,0,1,.61.61V245a0,0,0,0,1,0,0H137.38a0,0,0,0,1,0,0V217.6A.61.61,0,0,1,138,217Z" style="opacity:0.2;isolation:isolate"></path><path d="M175.66,213.51H186a.66.66,0,0,1,.66.66v6.16a0,0,0,0,1,0,0H175a0,0,0,0,1,0,0v-6.16A.66.66,0,0,1,175.66,213.51Z" style="fill:#00C6FF"></path><path d="M175.66,213.51H186a.66.66,0,0,1,.66.66v6.16a0,0,0,0,1,0,0H175a0,0,0,0,1,0,0v-6.16A.66.66,0,0,1,175.66,213.51Z" style="opacity:0.4;isolation:isolate"></path><path d="M146.1,213.51h10.38a.66.66,0,0,1,.66.66v6.16a0,0,0,0,1,0,0H145.44a0,0,0,0,1,0,0v-6.16A.66.66,0,0,1,146.1,213.51Z" style="fill:#00C6FF"></path><path d="M146.1,213.51h10.38a.66.66,0,0,1,.66.66v6.16a0,0,0,0,1,0,0H145.44a0,0,0,0,1,0,0v-6.16A.66.66,0,0,1,146.1,213.51Z" style="opacity:0.4;isolation:isolate"></path><path d="M160.88,213.51h10.38a.66.66,0,0,1,.66.66v6.16a0,0,0,0,1,0,0H160.22a0,0,0,0,1,0,0v-6.16A.66.66,0,0,1,160.88,213.51Z" style="fill:#00C6FF"></path><path d="M160.88,213.51h10.38a.66.66,0,0,1,.66.66v6.16a0,0,0,0,1,0,0H160.22a0,0,0,0,1,0,0v-6.16A.66.66,0,0,1,160.88,213.51Z" style="opacity:0.30000000000000004;isolation:isolate"></path><path d="M140.14,217H192a.61.61,0,0,1,.61.61V245a0,0,0,0,1,0,0H139.53a0,0,0,0,1,0,0V217.6A.61.61,0,0,1,140.14,217Z" style="fill:#00C6FF"></path><path d="M165.42,217H192a.61.61,0,0,1,.61.61V245a0,0,0,0,1,0,0H164.81a0,0,0,0,1,0,0V217.6A.61.61,0,0,1,165.42,217Z" style="opacity:0.2;isolation:isolate"></path><path d="M203.09,213.51h10.38a.66.66,0,0,1,.66.66v6.16a0,0,0,0,1,0,0H202.43a0,0,0,0,1,0,0v-6.16A.66.66,0,0,1,203.09,213.51Z" style="fill:#00C6FF"></path><path d="M203.09,213.51h10.38a.66.66,0,0,1,.66.66v6.16a0,0,0,0,1,0,0H202.43a0,0,0,0,1,0,0v-6.16A.66.66,0,0,1,203.09,213.51Z" style="opacity:0.4;isolation:isolate"></path><path d="M173.53,213.51H183.9a.66.66,0,0,1,.66.66v6.16a0,0,0,0,1,0,0H172.87a0,0,0,0,1,0,0v-6.16A.66.66,0,0,1,173.53,213.51Z" style="fill:#00C6FF"></path><path d="M173.53,213.51H183.9a.66.66,0,0,1,.66.66v6.16a0,0,0,0,1,0,0H172.87a0,0,0,0,1,0,0v-6.16A.66.66,0,0,1,173.53,213.51Z" style="opacity:0.4;isolation:isolate"></path><path d="M188.31,213.51h10.38a.66.66,0,0,1,.66.66v6.16a0,0,0,0,1,0,0H187.65a0,0,0,0,1,0,0v-6.16A.66.66,0,0,1,188.31,213.51Z" style="fill:#00C6FF"></path><path d="M188.31,213.51h10.38a.66.66,0,0,1,.66.66v6.16a0,0,0,0,1,0,0H187.65a0,0,0,0,1,0,0v-6.16A.66.66,0,0,1,188.31,213.51Z" style="opacity:0.30000000000000004;isolation:isolate"></path><path d="M167.57,217h51.85a.61.61,0,0,1,.61.61V245a0,0,0,0,1,0,0H167a0,0,0,0,1,0,0V217.6A.61.61,0,0,1,167.57,217Z" style="fill:#00C6FF"></path><path d="M192.85,217h26.57a.61.61,0,0,1,.61.61V245a0,0,0,0,1,0,0H192.24a0,0,0,0,1,0,0V217.6A.61.61,0,0,1,192.85,217Z" style="opacity:0.2;isolation:isolate"></path><path d="M230.52,213.51h10.38a.66.66,0,0,1,.66.66v6.16a0,0,0,0,1,0,0H229.86a0,0,0,0,1,0,0v-6.16A.66.66,0,0,1,230.52,213.51Z" style="fill:#00C6FF"></path><path d="M230.52,213.51h10.38a.66.66,0,0,1,.66.66v6.16a0,0,0,0,1,0,0H229.86a0,0,0,0,1,0,0v-6.16A.66.66,0,0,1,230.52,213.51Z" style="opacity:0.4;isolation:isolate"></path><path d="M201,213.51h10.37a.66.66,0,0,1,.66.66v6.16a0,0,0,0,1,0,0H200.3a0,0,0,0,1,0,0v-6.16A.66.66,0,0,1,201,213.51Z" style="fill:#00C6FF"></path><path d="M201,213.51h10.37a.66.66,0,0,1,.66.66v6.16a0,0,0,0,1,0,0H200.3a0,0,0,0,1,0,0v-6.16A.66.66,0,0,1,201,213.51Z" style="opacity:0.4;isolation:isolate"></path><path d="M215.74,213.51h10.38a.66.66,0,0,1,.66.66v6.16a0,0,0,0,1,0,0H215.08a0,0,0,0,1,0,0v-6.16A.66.66,0,0,1,215.74,213.51Z" style="fill:#00C6FF"></path><path d="M215.74,213.51h10.38a.66.66,0,0,1,.66.66v6.16a0,0,0,0,1,0,0H215.08a0,0,0,0,1,0,0v-6.16A.66.66,0,0,1,215.74,213.51Z" style="opacity:0.30000000000000004;isolation:isolate"></path><path d="M195,217h51.85a.61.61,0,0,1,.61.61V245a0,0,0,0,1,0,0H194.39a0,0,0,0,1,0,0V217.6A.61.61,0,0,1,195,217Z" style="fill:#00C6FF"></path><path d="M220.28,217h26.57a.61.61,0,0,1,.61.61V245a0,0,0,0,1,0,0H219.67a0,0,0,0,1,0,0V217.6A.61.61,0,0,1,220.28,217Z" style="opacity:0.2;isolation:isolate"></path><path d="M258.37,242.11h10.38a.66.66,0,0,1,.66.66v6.16a0,0,0,0,1,0,0H257.71a0,0,0,0,1,0,0v-6.16A.66.66,0,0,1,258.37,242.11Z" style="fill:#00C6FF"></path><path d="M258.37,242.11h10.38a.66.66,0,0,1,.66.66v6.16a0,0,0,0,1,0,0H257.71a0,0,0,0,1,0,0v-6.16A.66.66,0,0,1,258.37,242.11Z" style="opacity:0.4;isolation:isolate"></path><path d="M228.81,242.11h10.38a.66.66,0,0,1,.66.66v6.16a0,0,0,0,1,0,0H228.15a0,0,0,0,1,0,0v-6.16A.66.66,0,0,1,228.81,242.11Z" style="fill:#00C6FF"></path><path d="M228.81,242.11h10.38a.66.66,0,0,1,.66.66v6.16a0,0,0,0,1,0,0H228.15a0,0,0,0,1,0,0v-6.16A.66.66,0,0,1,228.81,242.11Z" style="opacity:0.4;isolation:isolate"></path><path d="M243.59,242.11H254a.66.66,0,0,1,.66.66v6.16a0,0,0,0,1,0,0H242.93a0,0,0,0,1,0,0v-6.16A.66.66,0,0,1,243.59,242.11Z" style="fill:#00C6FF"></path><path d="M243.59,242.11H254a.66.66,0,0,1,.66.66v6.16a0,0,0,0,1,0,0H242.93a0,0,0,0,1,0,0v-6.16A.66.66,0,0,1,243.59,242.11Z" style="opacity:0.30000000000000004;isolation:isolate"></path><path d="M222.85,245.59H274.7a.61.61,0,0,1,.61.61v27.38a0,0,0,0,1,0,0H222.24a0,0,0,0,1,0,0V246.19A.61.61,0,0,1,222.85,245.59Z" style="fill:#00C6FF"></path><path d="M248.13,245.59H274.7a.61.61,0,0,1,.61.61v27.38a0,0,0,0,1,0,0H247.52a0,0,0,0,1,0,0V246.19A.61.61,0,0,1,248.13,245.59Z" style="opacity:0.2;isolation:isolate"></path></g><g id="freepik--Character--inject-2"><path d="M306.49,203c-1.69.39-10.67,13.75-12.34,13.75s-20.88-8.77-20.88-8.77l-3.34,4.39S286.21,227,293.1,227.78s22.35-12.95,22.35-12.95Z" style="fill:#00C6FF"></path><path d="M315.44,214.83s-.3.28-.86.76a99.13,99.13,0,0,1-11.79,8.72c-3.59,2.18-7.19,3.78-9.69,3.47-6.89-.83-23.18-15.45-23.18-15.45l3.35-4.38s19.21,8.76,20.88,8.76S304.8,203.35,306.49,203l4,5.34Z" style="fill:#fff;opacity:0.5;isolation:isolate"></path><path d="M314.58,215.59a99.13,99.13,0,0,1-11.79,8.72c1.66-9,7.71-16,7.71-16Z" style="opacity:0.2;isolation:isolate"></path><path d="M329.57,241s-10.34,59.68-13,84.16C313.14,357.1,297.87,404,297.87,404l6.39,1.56s21.89-39.94,25.77-75.67c17.32-36.69,18.14-81.59,18.14-81.59Z" style="fill:#eec1bb"></path><path d="M348.55,239.9s2.23,60.53,4.7,85c3.23,32-2,81-2,81l6.58.2s13.15-43.61,9.56-79.36c9.36-39.48.87-83.58.87-83.58Z" style="fill:#eec1bb"></path><path d="M327,243.18l-6.2,38.6,23.7,5.87,2-4.75,2.06,4.8,27.11-5.92s.09-27.67-10-46Z" style="fill:#00C6FF"></path><polygon points="326.22 236.41 326.97 243.18 365.68 235.73 363.32 228.89 326.22 236.41" style="fill:#2e353a"></polygon><path d="M344.19,232.46c-.51-.32-10.27,1.44-10.85,2.42,0,0,.73,6.72,1.28,7.23s9.79-1.87,10.66-2S344.7,232.78,344.19,232.46Zm.05,7.12c-.72.13-8.31,2.08-8.76,1.66s-1.05-5.93-1.05-5.93c.47-.81,8.5-2.26,8.91-2S345,239.44,344.24,239.58Z" style="fill:#fff"></path><path d="M342.91,235.38l-1.92.36a.72.72,0,0,0-.58.78v0a.71.71,0,0,0,.86.63l1.92-.39a.73.73,0,0,0,.55-.89A.72.72,0,0,0,342.91,235.38Z" style="fill:#fff"></path><path d="M360.23,404.48c0-.79-9.69-.17-9.69-.17s-6,6.05-11.73,7.41-2.55,4.83,3.91,4.83h16C363.29,416.55,360.42,412.64,360.23,404.48Z" style="fill:#263238"></path><path d="M344.6,406.55a.92.92,0,0,1-.23-1,1,1,0,0,1,.51-.65,3.92,3.92,0,0,1,2.17-.24c-.78-.42-1.47-.93-1.5-1.44q0-.49.63-.81a1.5,1.5,0,0,1,1.26,0c1.31.55,2.12,2.81,2.15,2.9a.23.23,0,0,1,0,.2l0,.05h0a.22.22,0,0,1-.09.07,12.15,12.15,0,0,1-4,1.22A1.3,1.3,0,0,1,344.6,406.55Zm.54-1.24a.57.57,0,0,0-.28.34c-.1.38,0,.48.06.51.46.37,2.23-.16,3.66-.76C347.49,405.16,345.83,404.91,345.14,405.31Zm1.26-2.47c-.13.06-.35.19-.34.32,0,.44,1.41,1.19,2.84,1.73a4.26,4.26,0,0,0-1.66-2.07.92.92,0,0,0-.39-.09A1.06,1.06,0,0,0,346.4,402.84Z" style="fill:#00C6FF"></path><path d="M306.39,404.48c0-.79-9.69-.17-9.69-.17s-5.95,6.05-11.73,7.41-2.55,4.83,3.91,4.83h16C309.45,416.55,306.59,412.64,306.39,404.48Z" style="fill:#263238"></path><path d="M290.76,406.55a.92.92,0,0,1-.23-1,1,1,0,0,1,.51-.65,3.92,3.92,0,0,1,2.17-.24c-.78-.42-1.47-.93-1.5-1.44q0-.49.63-.81a1.5,1.5,0,0,1,1.26,0c1.31.55,2.12,2.81,2.15,2.9a.23.23,0,0,1,0,.2l0,.05h0a.22.22,0,0,1-.09.07,12.15,12.15,0,0,1-4,1.22A1.3,1.3,0,0,1,290.76,406.55Zm.54-1.24a.57.57,0,0,0-.28.34c-.09.38,0,.48.07.51.45.37,2.22-.16,3.65-.76C293.65,405.16,292,404.91,291.3,405.31Zm1.26-2.47c-.13.06-.35.19-.34.32,0,.44,1.41,1.19,2.84,1.73a4.21,4.21,0,0,0-1.66-2.07.92.92,0,0,0-.39-.09A1.06,1.06,0,0,0,292.56,402.84Z" style="fill:#00C6FF"></path><polygon points="319.97 279.15 345.73 285.69 344.75 288.76 319.83 282.77 319.97 279.15" style="fill:#00C6FF"></polygon><polygon points="346.84 285.69 376.49 278.32 376.77 282.35 347.95 288.48 346.84 285.69" style="fill:#00C6FF"></polygon><polygon points="319.97 279.15 345.73 285.69 344.75 288.76 319.83 282.77 319.97 279.15" style="fill:#fff;opacity:0.6000000000000001;isolation:isolate"></polygon><polygon points="346.84 285.69 376.49 278.32 376.77 282.35 347.95 288.48 346.84 285.69" style="fill:#fff;opacity:0.6000000000000001;isolation:isolate"></polygon><path d="M346.49,282.9l-3.69-10.85-9.39-7.52S334.81,279.49,346.49,282.9Z" style="opacity:0.2;isolation:isolate"></path><path d="M276.85,190.24h10.37a.66.66,0,0,1,.66.66v6.16a0,0,0,0,1,0,0H276.19a0,0,0,0,1,0,0v-6.16A.66.66,0,0,1,276.85,190.24Z" transform="translate(-23.03 38.79) rotate(-7.56)" style="fill:#263238"></path><path d="M276.85,190.24h10.37a.66.66,0,0,1,.66.66v6.16a0,0,0,0,1,0,0H276.19a0,0,0,0,1,0,0v-6.16A.66.66,0,0,1,276.85,190.24Z" transform="translate(-23.03 38.79) rotate(-7.56)" style="opacity:0.4;isolation:isolate"></path><path d="M247.55,194.12h10.37a.66.66,0,0,1,.66.66v6.16a0,0,0,0,1,0,0H246.89a0,0,0,0,1,0,0v-6.16A.66.66,0,0,1,247.55,194.12Z" transform="translate(-23.79 34.97) rotate(-7.56)" style="fill:#263238"></path><path d="M247.55,194.12h10.37a.66.66,0,0,1,.66.66v6.16a0,0,0,0,1,0,0H246.89a0,0,0,0,1,0,0v-6.16A.66.66,0,0,1,247.55,194.12Z" transform="translate(-23.79 34.97) rotate(-7.56)" style="opacity:0.4;isolation:isolate"></path><path d="M262.2,192.18h10.37a.66.66,0,0,1,.66.66V199a0,0,0,0,1,0,0H261.54a0,0,0,0,1,0,0v-6.16a.66.66,0,0,1,.66-.66Z" transform="translate(-23.41 36.88) rotate(-7.56)" style="fill:#263238"></path><path d="M262.2,192.18h10.37a.66.66,0,0,1,.66.66V199a0,0,0,0,1,0,0H261.54a0,0,0,0,1,0,0v-6.16a.66.66,0,0,1,.66-.66Z" transform="translate(-23.41 36.88) rotate(-7.56)" style="opacity:0.30000000000000004;isolation:isolate"></path><path d="M243.31,195.54h51.85a.61.61,0,0,1,.61.61v27.38a0,0,0,0,1,0,0H242.7a0,0,0,0,1,0,0V196.14a.61.61,0,0,1,.61-.61Z" transform="translate(-25.23 37.24) rotate(-7.56)" style="fill:#263238"></path><path d="M268.48,193.88h26.57a.61.61,0,0,1,.61.61v27.38a0,0,0,0,1,0,0H267.87a0,0,0,0,1,0,0V194.48A.61.61,0,0,1,268.48,193.88Z" transform="translate(-24.9 38.88) rotate(-7.56)" style="opacity:0.2;isolation:isolate"></path><path d="M306.49,203c4.57-4,30.05-15.06,39-15.06s22.76,40.72,22.76,40.72l-46.36,11.9s-2.09-6.89-6.47-17.54S306.49,203,306.49,203Z" style="fill:#00C6FF"></path><path d="M368.28,228.62l-46.36,11.9s-2.09-6.9-6.48-17.54-8.95-20-8.95-20c4.57-4,30.05-15,39-15a4.52,4.52,0,0,1,2.5.92c3.1,2.11,6.53,7.65,9.67,14A241.7,241.7,0,0,1,368.28,228.62Z" style="fill:#fff;opacity:0.7000000000000001;isolation:isolate"></path><path d="M339.17,223.35a2.69,2.69,0,0,1,0,2.07l3.78-1.12a1.64,1.64,0,0,0,1.07-2.21l-1.73-4.44a3.09,3.09,0,0,0,2.31.25,2.63,2.63,0,0,0,1.71-3.55,3.2,3.2,0,0,0-3.83-1.89,2.61,2.61,0,0,0-1.66,1.42l-1.73-4.44a2,2,0,0,0-2.38-1.18l-3.78,1.13a3.13,3.13,0,0,1,1.46,1.62,2.62,2.62,0,0,1-1.71,3.54,3.19,3.19,0,0,1-3.82-1.89,2.69,2.69,0,0,1,0-2.07l-3.78,1.12a1.63,1.63,0,0,0-1.06,2.2l1.73,4.44a3.16,3.16,0,0,0-2.32-.24,2.63,2.63,0,0,0-1.71,3.54,3.21,3.21,0,0,0,3.83,1.9,2.65,2.65,0,0,0,1.67-1.42l1.72,4.44a2,2,0,0,0,2.39,1.18l3.78-1.13a3.19,3.19,0,0,1-1.47-1.62,2.64,2.64,0,0,1,1.71-3.55A3.22,3.22,0,0,1,339.17,223.35Z" style="fill:#00C6FF"></path><path d="M357.69,202.79c-2.59,6.34-7.59,14.69-15.87,14-10.83-.91,1.44-20.81,6.2-28C351.12,190.93,354.55,196.47,357.69,202.79Z" style="opacity:0.2;isolation:isolate"></path><path d="M307.72,216.23l-11-.14a9.58,9.58,0,0,0-2.64-2.79c-1.67-1.11-9.75-2.36-9.75-2.36s-.69,8.35,0,9.6,7.66,2,9.61,2.09a2.37,2.37,0,0,0,2.5-1.11l10.58.27Z" style="fill:#eec1bb"></path><path d="M345.52,187.9c-7.59,0-7.31,18.37-10.86,22.76s-33.41,3.76-33.41,3.76l1.46,9.18s25.06.63,32.57.21,14.83-15.87,16.29-22.55S349.69,187.9,345.52,187.9Z" style="fill:#00C6FF"></path><path d="M345.52,187.9c-7.59,0-7.31,18.37-10.86,22.76s-33.41,3.76-33.41,3.76l1.46,9.18s25.06.63,32.57.21,14.83-15.87,16.29-22.55S349.69,187.9,345.52,187.9Z" style="fill:#fff;opacity:0.6000000000000001;isolation:isolate"></path><polygon points="299.23 213.44 304.52 213.58 305.63 224.72 300.48 225 299.23 213.44" style="fill:#00C6FF"></polygon><polygon points="299.23 213.44 304.52 213.58 305.63 224.72 300.48 225 299.23 213.44" style="fill:#fff;opacity:0.7000000000000001;isolation:isolate"></polygon><path d="M323.21,199.48c6.39-5.53,6.51-9.91,6.51-9.91-7.21-1.23-8.34-10.92-8.34-10.92L314,185.8a29.34,29.34,0,0,1,2.67,3.32c3.46,5.06,1.19,6.64,1.19,6.64C318.24,199.51,323.21,199.48,323.21,199.48Z" style="fill:#eec1bb"></path><path d="M314,185.8a29.34,29.34,0,0,1,2.67,3.32c5.68-3.77,4.69-10.47,4.69-10.47Z" style="opacity:0.2;isolation:isolate"></path><path d="M296,172.1s3.34,8.91,0,13.92c0,0,21.16,4.18,25.89-8.35S296.17,149.69,296,172.1Z" style="fill:#263238"></path><path d="M305.84,158.75c-8.31,2.84-9.46,8.2-7.15,17,2.9,11,7.88,17.76,17.49,11.92C329.23,179.72,319.65,154,305.84,158.75Z" style="fill:#eec1bb"></path><path d="M303.91,173.42a18.62,18.62,0,0,1-1.24,4.28,2.4,2.4,0,0,0,2.51.19Z" style="fill:#d4827d"></path><path d="M308.76,171c.22.68.77,1.12,1.23,1s.65-.82.44-1.51-.77-1.13-1.23-1S308.55,170.32,308.76,171Z" style="fill:#2e353a"></path><path d="M309.4,169.47l-1.68-.11S308.86,170.38,309.4,169.47Z" style="fill:#2e353a"></path><path d="M300.16,173.57c.22.68.77,1.12,1.23,1s.65-.82.43-1.51-.76-1.13-1.22-1S300,172.88,300.16,173.57Z" style="fill:#2e353a"></path><path d="M300.8,172l-1.68-.11S300.26,172.94,300.8,172Z" style="fill:#2e353a"></path><path d="M310.91,165.76a.35.35,0,0,1-.21-.07,4.21,4.21,0,0,0-3.67-.25.36.36,0,0,1-.47-.2.36.36,0,0,1,.19-.47,4.93,4.93,0,0,1,4.38.33.37.37,0,0,1,.08.51A.36.36,0,0,1,310.91,165.76Z" style="fill:#2e353a"></path><path d="M297.78,169.3a.31.31,0,0,1-.18-.05.36.36,0,0,1-.13-.49,4.41,4.41,0,0,1,3.11-2.36.35.35,0,0,1,.39.32.36.36,0,0,1-.32.4,3.75,3.75,0,0,0-2.55,2A.37.37,0,0,1,297.78,169.3Z" style="fill:#2e353a"></path><path d="M319.72,169.65s-6.23-5.5-7.44-11c0,0-18.77-1.1-13.87,15.89,0,0-6.68-14.29,7.49-19.51s21.26,15.71,16,24.46C321.91,179.52,323.58,173.1,319.72,169.65Z" style="fill:#2e353a"></path><path d="M319,171.87a3.86,3.86,0,0,1,2.78-4.68c2.68-.59,5.71,4.27-.26,7.74C320.62,175.42,319.8,174.7,319,171.87Z" style="fill:#eec1bb"></path><path d="M307.3,181.51a.36.36,0,0,1-.33-.22.37.37,0,0,1,.19-.48s3.17-1.36,3.68-4.45a.37.37,0,0,1,.42-.3.36.36,0,0,1,.3.41,7.13,7.13,0,0,1-4.12,5A.32.32,0,0,1,307.3,181.51Z" style="fill:#2e353a"></path><path d="M296,172.1s-5.29.7-5.85-7.38,8.07-15.17,24.22-13.92,23.25,18.93,20.19,24.78-15,7.24-15,7.24.42-12.25-3.2-19.07-4.17-1.12-4.17-1.12S299.51,159.85,296,172.1Z" style="fill:#263238"></path><path d="M315.07,193.46l13-7.47a10.66,10.66,0,0,0,6.84,3.81s-2,11.86-9,12.93-11.5-4.67-11.5-4.67S316.56,195.1,315.07,193.46Z" style="fill:#00C6FF"></path><path d="M315.07,193.46l13-7.47a10.66,10.66,0,0,0,6.84,3.81s-2,11.86-9,12.93-11.5-4.67-11.5-4.67S316.56,195.1,315.07,193.46Z" style="fill:#fff;opacity:0.6000000000000001;isolation:isolate"></path><path d="M354.87,239.89s3.74,5.38,14.06,7a70.69,70.69,0,0,0-3.66-9.27Z" style="opacity:0.2;isolation:isolate"></path><polygon points="330.18 243.78 326.29 251.48 327.41 244.22 330.18 243.78" style="opacity:0.2;isolation:isolate"></polygon><path d="M321.26,168.22l-8.4,2.19a4.05,4.05,0,0,0-.33-.81,4.18,4.18,0,0,0-7.8,2.65,1.41,1.41,0,0,0-1.1-.12,1,1,0,0,0-.43.31,3.7,3.7,0,0,0-.26-.62,4.24,4.24,0,1,0,.44,1.36.86.86,0,0,1,.44-.56,1.33,1.33,0,0,1,1.09.35,5.22,5.22,0,0,0,.25.61,4.18,4.18,0,0,0,7.8-2.65l8.43-2.2.06,0a.25.25,0,0,0,.13-.3A.27.27,0,0,0,321.26,168.22ZM301,177a3.66,3.66,0,1,1,1.48-5A3.67,3.67,0,0,1,301,177Zm9.58-2.22a3.66,3.66,0,1,1,1.48-5A3.66,3.66,0,0,1,310.58,174.81Z" style="fill:#00C6FF"></path></g></svg>