<svg xmlns="http://www.w3.org/2000/svg" viewBox="0 0 500 500"><g id="freepik--background-simple--inject-2"><path d="M268.27,162.18c-44.6-34.32-119.54-113.33-165.33-42.13-45.44,70.68,41.67,158.46,96.55,182.39,55.48,24.21,204.7,24,191.8-65.53C382.41,175.35,317.53,200.1,268.27,162.18Z" style="fill:#00C6FF"></path><path d="M268.27,162.18c-44.6-34.32-119.54-113.33-165.33-42.13-45.44,70.68,41.67,158.46,96.55,182.39,55.48,24.21,204.7,24,191.8-65.53C382.41,175.35,317.53,200.1,268.27,162.18Z" style="fill:#fff;opacity:0.9"></path></g><g id="freepik--Shadow--inject-2"><ellipse id="freepik--path--inject-2" cx="250" cy="416.24" rx="193.89" ry="11.32" style="fill:#f5f5f5"></ellipse></g><g id="freepik--setup-analytics--inject-2"><path d="M240.59,239.39H150.51A11.52,11.52,0,0,1,139.27,229l-4.51-55.38a9.47,9.47,0,0,1,9.55-10.4h90.07a11.52,11.52,0,0,1,11.24,10.4L250.13,229A9.46,9.46,0,0,1,240.59,239.39Z" style="fill:#fff"></path><path d="M240.59,239.82H150.51A11.93,11.93,0,0,1,138.84,229l-4.51-55.39a9.9,9.9,0,0,1,10-10.86h90.07a11.93,11.93,0,0,1,11.67,10.79L250.56,229a9.9,9.9,0,0,1-10,10.86Zm-96.28-76.17a9,9,0,0,0-9.12,9.92L139.7,229a11.06,11.06,0,0,0,10.81,10h90.08A9,9,0,0,0,249.7,229l-4.51-55.39a11.06,11.06,0,0,0-10.81-10Z" style="fill:#00C6FF"></path><path d="M216.14,223.22a28,28,0,0,1-13.24,8L201.41,227c11.09-3,18.6-13.38,17.6-25.67a28.9,28.9,0,0,0-9.31-18.78l2.87-3.13C225.57,191.41,227.18,211.19,216.14,223.22Z" style="fill:#e0e0e0"></path><path d="M212.57,179.39l-2.87,3.13a28.72,28.72,0,0,0-19.42-7.78,24.33,24.33,0,0,0-18.14,7.79l-3.39-3.14a28.54,28.54,0,0,1,21.17-9.08A33.6,33.6,0,0,1,212.57,179.39Z" style="fill:#263238"></path><path d="M202.9,231.24c-10.45,2.85-22.13-.21-30.58-8-13-12-14.61-31.81-3.57-43.83l3.39,3.14a24.48,24.48,0,0,0-6.25,18.77c1.19,14.67,14.05,26.56,28.72,26.56a26,26,0,0,0,6.8-.89Z" style="fill:#00C6FF"></path><rect x="110.67" y="73.69" width="7.22" height="0.87" style="fill:#00C6FF"></rect><rect x="87.22" y="73.69" width="16.44" height="0.87" style="fill:#00C6FF"></rect><path d="M180.14,153.29H90.07A11.51,11.51,0,0,1,78.83,142.9L74.32,87.51a9.46,9.46,0,0,1,9.55-10.39h90.07a11.52,11.52,0,0,1,11.24,10.39l4.51,55.39A9.46,9.46,0,0,1,180.14,153.29Z" style="fill:#fff"></path><path d="M180.14,153.73H90.07A11.93,11.93,0,0,1,78.4,142.94L73.89,87.55a9.9,9.9,0,0,1,10-10.86h90.07a11.93,11.93,0,0,1,11.67,10.79l4.51,55.39a9.9,9.9,0,0,1-10,10.86ZM83.87,77.55a9,9,0,0,0-9.12,9.93l4.51,55.39a11.06,11.06,0,0,0,10.81,10h90.07a9,9,0,0,0,9.12-9.92l-4.51-55.39a11.07,11.07,0,0,0-10.81-10Z" style="fill:#00C6FF"></path><polygon points="82.47 93.01 130.2 93.01 129.81 88.3 82.08 88.3 82.47 93.01" style="fill:#e0e0e0"></polygon><polygon points="177.93 93.01 130.2 93.01 129.81 88.3 177.55 88.3 177.93 93.01" style="fill:#00C6FF"></polygon><polygon points="83.47 105.29 97.08 105.29 96.7 100.57 83.08 100.57 83.47 105.29" style="fill:#e0e0e0"></polygon><polygon points="178.93 105.29 97.08 105.29 96.7 100.57 178.55 100.57 178.93 105.29" style="fill:#00C6FF"></polygon><polygon points="84.47 117.56 126.95 117.56 126.57 112.85 84.08 112.85 84.47 117.56" style="fill:#e0e0e0"></polygon><polygon points="179.93 117.56 126.95 117.56 126.57 112.85 179.55 112.85 179.93 117.56" style="fill:#00C6FF"></polygon><polygon points="85.47 129.84 157.98 129.84 157.59 125.13 85.08 125.13 85.47 129.84" style="fill:#e0e0e0"></polygon><polygon points="180.93 129.84 157.98 129.84 157.59 125.13 180.54 125.13 180.93 129.84" style="fill:#00C6FF"></polygon><polygon points="86.46 142.12 120 142.12 119.62 137.4 86.08 137.4 86.46 142.12" style="fill:#e0e0e0"></polygon><polygon points="181.93 142.12 120 142.12 119.62 137.4 181.54 137.4 181.93 142.12" style="fill:#00C6FF"></polygon><path d="M303.28,153.29H213.21A11.51,11.51,0,0,1,202,142.9l-4.51-55.39A9.46,9.46,0,0,1,207,77.12h90.08a11.52,11.52,0,0,1,11.24,10.39l4.51,55.39A9.46,9.46,0,0,1,303.28,153.29Z" style="fill:#fff"></path><path d="M303.28,153.73H213.21a12,12,0,0,1-11.68-10.79L197,87.55a9.9,9.9,0,0,1,10-10.86h90.08a11.93,11.93,0,0,1,11.67,10.79l4.51,55.39a9.9,9.9,0,0,1-10,10.86ZM207,77.55a9,9,0,0,0-9.11,9.93l4.51,55.39a11.06,11.06,0,0,0,10.81,10h90.07a9,9,0,0,0,9.12-9.92l-4.51-55.39a11.07,11.07,0,0,0-10.81-10Z" style="fill:#00C6FF"></path><polygon points="258.13 142.12 256.54 142.12 252.16 88.3 253.75 88.3 258.13 142.12" style="fill:#e0e0e0"></polygon><polygon points="260.53 119.75 250.5 119.75 248.78 98.73 258.82 98.73 260.53 119.75" style="fill:#00C6FF"></polygon><polygon points="238.38 142.12 236.79 142.12 232.41 88.3 234 88.3 238.38 142.12" style="fill:#e0e0e0"></polygon><polygon points="241.17 124.42 231.13 124.42 229.63 105.99 239.66 105.99 241.17 124.42" style="fill:#00C6FF"></polygon><polygon points="218.64 142.12 217.05 142.12 212.67 88.3 214.26 88.3 218.64 142.12" style="fill:#e0e0e0"></polygon><polygon points="220.19 109.26 210.16 109.26 209.13 96.61 219.16 96.61 220.19 109.26" style="fill:#263238"></polygon><polygon points="277.87 142.12 276.28 142.12 271.9 88.3 273.49 88.3 277.87 142.12" style="fill:#e0e0e0"></polygon><polygon points="281.24 131.69 271.21 131.69 268.53 98.73 278.56 98.73 281.24 131.69" style="fill:#263238"></polygon><polygon points="297.62 142.12 296.02 142.12 291.64 88.3 293.23 88.3 297.62 142.12" style="fill:#e0e0e0"></polygon><polygon points="301.31 135.64 291.28 135.64 289.13 109.24 299.16 109.24 301.31 135.64" style="fill:#00C6FF"></polygon><path d="M206.89,324.77H116.81a11.53,11.53,0,0,1-11.24-10.39L101.07,259a9.46,9.46,0,0,1,9.54-10.39h90.08A11.53,11.53,0,0,1,211.93,259l4.51,55.39A9.47,9.47,0,0,1,206.89,324.77Z" style="fill:#fff"></path><path d="M206.89,325.2H116.81a11.94,11.94,0,0,1-11.67-10.79L100.63,259a9.9,9.9,0,0,1,10-10.86h90.08A11.94,11.94,0,0,1,212.36,259l4.51,55.38a9.9,9.9,0,0,1-10,10.86ZM110.61,249A9,9,0,0,0,101.5,259L106,314.34a11.06,11.06,0,0,0,10.8,10h90.08a9,9,0,0,0,9.11-9.93L211.5,259a11.07,11.07,0,0,0-10.81-10Z" style="fill:#00C6FF"></path><polygon points="122.8 285.36 142.21 307.79 164.48 273.45 178.24 291.2 181.6 286.02 204.11 312.99 117.67 312.96 122.8 285.36" style="fill:#00C6FF"></polygon><polygon points="187.61 286.76 178.59 306.08 149.81 260.38 136.26 289.4 131.91 282.51 117.68 312.99 204.1 312.94 187.61 286.76" style="fill:#e0e0e0"></polygon></g><g id="freepik--Character--inject-2"><path d="M372.88,159.06c2.41,4.52,4.48,9,6.43,13.64a126.57,126.57,0,0,1,5,14.39c.35,1.24.65,2.52.94,3.8a13.53,13.53,0,0,1,.4,2.71,14.78,14.78,0,0,1-.15,2.72,26.3,26.3,0,0,1-3,8.28,55.92,55.92,0,0,1-9.35,12.45,2.83,2.83,0,0,1-4.54-3.28l.07-.13A99.32,99.32,0,0,0,374.44,201a20,20,0,0,0,1.23-5.7,5,5,0,0,0-.08-.95,1.16,1.16,0,0,0-.08-.29l-.19-.59c-.33-1.08-.67-2.16-1.07-3.24-1.52-4.34-3.39-8.7-5.34-13s-4-8.69-6.08-12.86l0-.09a5.67,5.67,0,0,1,10.09-5.18Z" style="fill:#00C6FF"></path><path d="M369.75,213.21,365,214.72l5.62,6.57a11,11,0,0,0,2.94-4.67,2.31,2.31,0,0,0-.9-2.49l-.8-.58A2.36,2.36,0,0,0,369.75,213.21Z" style="fill:#7f3e3b"></path><polygon points="358.4 218.77 364.42 223.55 370.6 221.29 364.98 214.72 358.4 218.77" style="fill:#7f3e3b"></polygon><path d="M337.85,125.61c-.12.59-.53,1-.92.93s-.6-.62-.48-1.21.53-1,.92-.93S338,125,337.85,125.61Z" style="fill:#263238"></path><path d="M337.37,126.63a21.82,21.82,0,0,1-3.85,4.49,3.47,3.47,0,0,0,2.72,1.1Z" style="fill:#630f0f"></path><path d="M340.68,122.77a.36.36,0,0,0,.26-.6,3.51,3.51,0,0,0-3-1.17.36.36,0,1,0,.12.7h0a2.81,2.81,0,0,1,2.37,1A.35.35,0,0,0,340.68,122.77Z" style="fill:#263238"></path><path d="M354.28,136.38c-1.07,5.48-1.72,13.06,2.11,16.72,0,0-1.5,5.55-11.67,5.55-11.19,0-5.38-4.87-5.38-4.87,4.65-1.45,4.61-6.74,3.54-11Z" style="fill:#7f3e3b"></path><path d="M337.37,152.92s1.64-3.86,3.3-4.53,12.28-2.41,14.72-.87,4.1,6.48,4.1,6.48Z" style="fill:#00C6FF"></path><path d="M348.59,409c-1,0-1.89-.13-2.2-.57a.66.66,0,0,1,0-.77.85.85,0,0,1,.57-.41c1.24-.34,3.86,1.15,4,1.21a.17.17,0,0,1,.08.18.17.17,0,0,1-.14.15A13.55,13.55,0,0,1,348.59,409Zm-1.19-1.45a1.22,1.22,0,0,0-.34,0,.49.49,0,0,0-.35.25c-.12.22-.08.32,0,.39.35.48,2.24.49,3.63.3A8,8,0,0,0,347.4,407.53Z" style="fill:#00C6FF"></path><path d="M350.85,408.77h-.07c-.91-.41-2.7-2-2.56-2.87,0-.2.17-.45.66-.5a1.31,1.31,0,0,1,1,.3c1,.79,1.16,2.8,1.17,2.89a.21.21,0,0,1-.08.16A.17.17,0,0,1,350.85,408.77Zm-1.83-3h-.1c-.32,0-.34.16-.35.2-.08.51,1.13,1.78,2.06,2.34a4.22,4.22,0,0,0-1-2.31A.92.92,0,0,0,349,405.74Z" style="fill:#00C6FF"></path><polygon points="359.08 408.59 351.6 408.59 350.85 391.26 358.33 391.26 359.08 408.59" style="fill:#7f3e3b"></polygon><path d="M351.64,407.73h8.18a.66.66,0,0,1,.64.51l1.47,6.65a1.08,1.08,0,0,1-1.07,1.33c-2.95-.05-7.21-.22-10.92-.22-4.33,0-4.86.24-9.94.24-3.07,0-3.92-3.11-2.64-3.39,5.86-1.28,7.42-1.42,12.48-4.54A3.46,3.46,0,0,1,351.64,407.73Z" style="fill:#263238"></path><path d="M369.79,153.12c7,1.61,11.64,20.54,11.64,20.54l-11.71,8.8A22.35,22.35,0,0,1,361,169.54C358.62,160.16,362.62,151.48,369.79,153.12Z" style="fill:#263238"></path><path d="M363.78,166.29c3.81,3.77,6.27,9.72,6.57,15.69l-.62.48a22.34,22.34,0,0,1-8.7-12.92c-.14-.56-.27-1.12-.37-1.67Z" style="opacity:0.2"></path><rect x="344.44" y="191.02" width="61.2" height="45.51" transform="translate(-52.55 154.45) rotate(-21.78)" style="fill:#00C6FF"></rect><rect x="344.48" y="191.19" width="60.3" height="45.51" transform="translate(-52.64 154.3) rotate(-21.78)" style="fill:#fff;opacity:0.5"></rect><g style="opacity:0.5"><rect x="343.69" y="205.15" width="5.71" height="4.05" transform="translate(-52.14 143.4) rotate(-21.78)" style="fill:#00C6FF"></rect><rect x="352.44" y="201.65" width="5.71" height="4.05" transform="translate(-50.21 146.4) rotate(-21.78)" style="fill:#00C6FF"></rect><rect x="361.19" y="198.16" width="5.71" height="4.05" transform="translate(-48.29 149.39) rotate(-21.78)" style="fill:#00C6FF"></rect><rect x="369.95" y="194.66" width="5.71" height="4.05" transform="translate(-46.37 152.39) rotate(-21.78)" style="fill:#00C6FF"></rect><rect x="378.7" y="191.16" width="5.71" height="4.05" transform="translate(-44.45 155.39) rotate(-21.78)" style="fill:#00C6FF"></rect><rect x="387.45" y="187.66" width="5.71" height="4.05" transform="translate(-42.52 158.4) rotate(-21.78)" style="fill:#00C6FF"></rect><rect x="346.17" y="211.36" width="5.71" height="4.05" transform="translate(-54.26 144.76) rotate(-21.78)" style="fill:#00C6FF"></rect><rect x="354.92" y="207.86" width="5.71" height="4.05" transform="translate(-52.34 147.76) rotate(-21.78)" style="fill:#00C6FF"></rect><rect x="363.67" y="204.36" width="5.71" height="4.05" transform="translate(-50.42 150.76) rotate(-21.78)" style="fill:#00C6FF"></rect><rect x="372.43" y="200.86" width="5.71" height="4.05" transform="translate(-48.49 153.76) rotate(-21.78)" style="fill:#00C6FF"></rect><rect x="381.18" y="197.37" width="5.71" height="4.05" transform="translate(-46.57 156.75) rotate(-21.78)" style="fill:#00C6FF"></rect><rect x="389.93" y="193.87" width="5.71" height="4.05" transform="translate(-44.65 159.75) rotate(-21.78)" style="fill:#00C6FF"></rect><rect x="348.65" y="217.56" width="5.71" height="4.05" transform="translate(-56.39 146.12) rotate(-21.78)" style="fill:#00C6FF"></rect><rect x="357.4" y="214.06" width="5.71" height="4.05" transform="translate(-54.47 149.12) rotate(-21.78)" style="fill:#00C6FF"></rect><rect x="366.15" y="210.57" width="5.71" height="4.05" transform="translate(-52.54 152.12) rotate(-21.78)" style="fill:#00C6FF"></rect><rect x="374.91" y="207.07" width="5.71" height="4.05" transform="translate(-50.62 155.12) rotate(-21.78)" style="fill:#00C6FF"></rect><rect x="383.66" y="203.57" width="5.71" height="4.05" transform="translate(-48.7 158.12) rotate(-21.78)" style="fill:#00C6FF"></rect><rect x="392.41" y="200.07" width="5.71" height="4.05" transform="translate(-46.77 161.12) rotate(-21.78)" style="fill:#00C6FF"></rect><rect x="351.13" y="223.77" width="5.71" height="4.05" transform="translate(-58.51 147.49) rotate(-21.78)" style="fill:#00C6FF"></rect><rect x="359.88" y="220.27" width="5.71" height="4.05" transform="translate(-56.59 150.49) rotate(-21.78)" style="fill:#00C6FF"></rect><rect x="368.63" y="216.77" width="5.71" height="4.05" transform="translate(-54.67 153.48) rotate(-21.78)" style="fill:#00C6FF"></rect><rect x="377.39" y="213.27" width="5.71" height="4.05" transform="translate(-52.74 156.48) rotate(-21.78)" style="fill:#00C6FF"></rect><rect x="386.14" y="209.77" width="5.71" height="4.05" transform="translate(-50.82 159.48) rotate(-21.78)" style="fill:#00C6FF"></rect><rect x="394.89" y="206.28" width="5.71" height="4.05" transform="translate(-48.9 162.48) rotate(-21.78)" style="fill:#00C6FF"></rect><rect x="353.61" y="229.97" width="5.71" height="4.05" transform="translate(-60.64 148.85) rotate(-21.78)" style="fill:#00C6FF"></rect><rect x="362.36" y="226.47" width="5.71" height="4.05" transform="translate(-58.72 151.85) rotate(-21.78)" style="fill:#00C6FF"></rect><rect x="371.11" y="222.97" width="5.71" height="4.05" transform="translate(-56.79 154.85) rotate(-21.78)" style="fill:#00C6FF"></rect><rect x="379.86" y="219.48" width="5.71" height="4.05" transform="translate(-54.87 157.85) rotate(-21.78)" style="fill:#00C6FF"></rect><rect x="388.62" y="215.98" width="5.71" height="4.05" transform="translate(-52.95 160.85) rotate(-21.78)" style="fill:#00C6FF"></rect><rect x="397.37" y="212.48" width="5.71" height="4.05" transform="translate(-51.02 163.84) rotate(-21.78)" style="fill:#00C6FF"></rect><rect x="356.09" y="236.18" width="5.71" height="4.05" transform="translate(-62.76 150.21) rotate(-21.78)" style="fill:#00C6FF"></rect><rect x="364.84" y="232.68" width="5.71" height="4.05" transform="translate(-60.84 153.21) rotate(-21.78)" style="fill:#00C6FF"></rect><rect x="373.59" y="229.18" width="5.71" height="4.05" transform="translate(-58.92 156.21) rotate(-21.78)" style="fill:#00C6FF"></rect><rect x="382.34" y="225.68" width="5.71" height="4.05" transform="translate(-57 159.21) rotate(-21.78)" style="fill:#00C6FF"></rect><rect x="391.1" y="222.18" width="5.71" height="4.05" transform="translate(-55.07 162.2) rotate(-21.78)" style="fill:#00C6FF"></rect><rect x="399.85" y="218.68" width="5.71" height="4.05" transform="translate(-53.15 165.21) rotate(-21.78)" style="fill:#00C6FF"></rect></g><path d="M390.31,194.7a1.59,1.59,0,0,1,2.95-1.18,1.59,1.59,0,1,1-2.95,1.18Z" style="fill:#fff"></path><path d="M389,216.81a1.58,1.58,0,1,1,2.06.89A1.58,1.58,0,0,1,389,216.81Z" style="fill:#fff"></path><path d="M369,217.6a1.59,1.59,0,1,1,2.06.89A1.58,1.58,0,0,1,369,217.6Z" style="fill:#fff"></path><path d="M356.46,237a1.59,1.59,0,1,1,2.06.88A1.59,1.59,0,0,1,356.46,237Z" style="fill:#fff"></path><path d="M357.94,237a.53.53,0,0,1-.32-.1.58.58,0,0,1-.18-.81L370,216.7a.59.59,0,0,1,.47-.27l19.45-.77,1.29-21.58a.59.59,0,0,1,1.17.07l-1.31,22.11a.59.59,0,0,1-.57.55l-19.68.78-12.38,19.15A.59.59,0,0,1,357.94,237Z" style="fill:#fff"></path><path d="M325.46,160.63c-1.53,8.08-2.49,24.69,2,57.57h40c-.72-5.7-3.59-36.12,2.34-65.08a105.57,105.57,0,0,0-13.4-1.69,146.32,146.32,0,0,0-17,0c-1.88.17-3.72.44-5.36.73A10.61,10.61,0,0,0,325.46,160.63Z" style="fill:#263238"></path><path d="M331.76,173.08l-7.52.6c-.27,9.73.4,23.93,3.18,44.52h.36C332.29,203.37,338.27,182.17,331.76,173.08Z" style="opacity:0.2"></path><polygon points="350.85 391.27 351.23 400.2 358.72 400.2 358.34 391.27 350.85 391.27" style="opacity:0.2"></polygon><path d="M357.84,128.37c-1.92,7.18-2.69,11.47-7.11,14.46-6.66,4.48-15-.67-15.22-8.27-.23-6.85,2.95-17.43,10.65-18.88A10.14,10.14,0,0,1,357.84,128.37Z" style="fill:#7f3e3b"></path><path d="M341,128.42l-3.89,1,3.62-9.39a10.6,10.6,0,0,1-.33-7.24,2.12,2.12,0,0,1,2-1.46c8.06-.15,16.49,4.37,20.73,7.79a2.09,2.09,0,0,1,.47,2.72,23.6,23.6,0,0,1-3.65,4.23c-.08,2.63-4.37,14.5-6.74,15.84s-6.92.79-8.13-1.38S339.81,135.5,341,128.42Z" style="fill:#263238"></path><path d="M344.64,128.57a8.42,8.42,0,0,1-2.9,4.54c-1.91,1.5-3.4.12-3.32-2.09.07-2,1.15-5.16,3.28-5.81S345.14,126.4,344.64,128.57Z" style="fill:#7f3e3b"></path><path d="M413.08,406.4c0-1,.12-1.89.55-2.21a.67.67,0,0,1,.78,0,.92.92,0,0,1,.41.56c.35,1.24-1.12,3.87-1.19,4a.16.16,0,0,1-.18.09.17.17,0,0,1-.14-.14A13.32,13.32,0,0,1,413.08,406.4Zm1.45-1.2a1.16,1.16,0,0,0,0-.34.49.49,0,0,0-.25-.35c-.22-.12-.33-.08-.39,0-.48.35-.48,2.24-.27,3.63A8.12,8.12,0,0,0,414.53,405.2Z" style="fill:#00C6FF"></path><path d="M413.3,408.65a.25.25,0,0,1,0-.07c.4-.9,2-2.7,2.85-2.57.2,0,.45.17.5.65a1.28,1.28,0,0,1-.3,1c-.77,1-2.79,1.17-2.87,1.18a.16.16,0,0,1-.16-.07A.15.15,0,0,1,413.3,408.65Zm3-1.84s0-.07,0-.11c0-.32-.16-.34-.2-.34-.51-.08-1.77,1.14-2.32,2.07a4.21,4.21,0,0,0,2.3-1A1,1,0,0,0,416.33,406.81Z" style="fill:#00C6FF"></path><polygon points="413.42 408.7 406.11 409.22 402.01 391.75 409.31 391.23 413.42 408.7" style="fill:#7f3e3b"></polygon><path d="M413.39,407l-8.14-.72a.64.64,0,0,0-.68.45l-2.06,6.5a1.09,1.09,0,0,0,1,1.42c2.94.21,7.2.41,10.89.74,4.31.38,1.52.37,6.58.82,3.06.27,4.19-2.75,2.93-3.14-5.72-1.8-6.76-3-8.73-5.33A2.52,2.52,0,0,0,413.39,407Z" style="fill:#263238"></path><polygon points="402.01 391.75 404.13 400.76 411.43 400.24 409.32 391.24 402.01 391.75" style="opacity:0.2"></polygon><path d="M341.62,218.2s17.21,57.5,23.75,78.84c7.15,23.37,34.37,100.9,34.37,100.9l13.2-2.9s-18.65-66.61-26.38-99.21c-5.94-25-19.11-77.63-19.11-77.63Z" style="fill:#00C6FF"></path><path d="M397.42,393.86c-.06,0,1.3,5.15,1.3,5.15l15.87-1.7-.07-4.72Z" style="fill:#263238"></path><path d="M351.15,244.85c9.53,1.25,13.32,34.46,14.75,53.94-.18-.62-.37-1.2-.54-1.76-3.56-11.65-10.31-34.1-15.71-52.07A3.24,3.24,0,0,1,351.15,244.85Z" style="opacity:0.30000000000000004"></path><path d="M327.42,218.2s5.77,56,8.26,78.79C338.26,320.7,348,398.47,348,398.47h12.68s-1.54-76.35-2.05-99.67c-.56-25.42-4.88-80.6-4.88-80.6Z" style="fill:#00C6FF"></path><path d="M346,393.42c-.06,0,.71,5.26.71,5.26h15.42l.42-4.69Z" style="fill:#263238"></path><path d="M273.27,270.88a22.44,22.44,0,1,0,7-30.95A22.43,22.43,0,0,0,273.27,270.88Zm35-22a18.89,18.89,0,1,1-26.06-5.9A18.89,18.89,0,0,1,308.23,248.84Z" style="fill:#263238"></path><path d="M309.13,262.74A17.31,17.31,0,1,1,296.07,242,17.33,17.33,0,0,1,309.13,262.74Z" style="fill:#00C6FF;opacity:0.2"></path><path d="M311.84,244.23l2.11,3.34a1.08,1.08,0,0,1-.34,1.49h0a1.09,1.09,0,0,1-1.5-.34l-2.1-3.33a1.09,1.09,0,0,1,.34-1.5h0A1.07,1.07,0,0,1,311.84,244.23Z" style="fill:#263238"></path><path d="M325.45,234.74q-3.65,2.5-7.22,5.09c-2.39,1.74-4.75,3.51-7,5.39a1.5,1.5,0,0,0,1.58,2.51c2.68-1.26,5.3-2.63,7.9-4s5.16-2.85,7.7-4.32q3.25-1.89,6.46-3.86a1.3,1.3,0,0,0,.42-1.79L333.51,231a1.3,1.3,0,0,0-1.8-.4C329.61,232,327.52,233.33,325.45,234.74Z" style="fill:#263238"></path><path d="M336.6,163.43q-1.83,9-3.9,17.95l-4.14,17.86c-1.35,5.82-2.5,11.72-3.55,17.71l-3.14,18v0a2.82,2.82,0,0,1-5.6-.39c-.22-6.25-.12-12.43.23-18.65a182.62,182.62,0,0,1,2-18.68c1-6.12,2.07-12.17,3.25-18.21s2.43-12.06,3.82-18a5.67,5.67,0,0,1,11.08,2.41Z" style="fill:#00C6FF"></path><path d="M321,233.33a2.08,2.08,0,0,0-2-.59l-1.62.39a2.06,2.06,0,0,0-1.57,1.74l-.47,3.61a4.55,4.55,0,0,0,.62,3l2.24,3.7a2.5,2.5,0,0,0,2.52.94l2.33-.49a2.52,2.52,0,0,0,1.87-3.24l-.61-1.88A11.56,11.56,0,0,0,321,233.33Z" style="fill:#7f3e3b"></path><path d="M344.39,160c3.64,9.65-8.94,23.42-8.94,23.42l-15.93-5.27s1.22-13.17,6.75-20.6C333.09,148.34,341.62,152.61,344.39,160Z" style="fill:#263238"></path></g></svg>