<svg xmlns="http://www.w3.org/2000/svg" viewBox="0 0 500 500"><g id="freepik--background-simple--inject-1"><path d="M95.7,300.53c2,71.24,133.21,63.41,195.05,33.27C369,295.67,401,236.21,377.82,167.66c-23-67.92-112.43-82.56-161.27-35.31-24.07,23.3-36.82,55.7-60.63,79.55C127.65,240.22,94.43,256,95.7,300.53Z" style="fill:#00C6FF"></path><path d="M95.7,300.53c2,71.24,133.21,63.41,195.05,33.27C369,295.67,401,236.21,377.82,167.66c-23-67.92-112.43-82.56-161.27-35.31-24.07,23.3-36.82,55.7-60.63,79.55C127.65,240.22,94.43,256,95.7,300.53Z" style="fill:#fff;opacity:0.9"></path></g><g id="freepik--Shadow--inject-1"><ellipse id="freepik--path--inject-1" cx="250" cy="416.24" rx="193.89" ry="11.32" style="fill:#f5f5f5"></ellipse></g><g id="freepik--Character--inject-1"><polygon points="253.91 405.42 245.56 406.36 242.48 387.42 250.83 386.48 253.91 405.42" style="fill:#ffc3bd"></polygon><polygon points="291.29 407.24 282.95 407.24 280.88 387.93 289.22 387.93 291.29 407.24" style="fill:#ffc3bd"></polygon><path d="M282.27,406.27h10.16a.73.73,0,0,1,.71.57l1.65,7.41a1.22,1.22,0,0,1-1.22,1.48c-3.27-.05-5.66-.24-9.78-.24-2.53,0-10.17.26-13.67.26s-4-3.46-2.52-3.77c6.42-1.41,11.26-3.35,13.32-5.2A2,2,0,0,1,282.27,406.27Z" style="fill:#263238"></path><path d="M245.43,404.93l9-1a.72.72,0,0,1,.77.49l2.47,7.17a1.21,1.21,0,0,1-1,1.61c-3.27.32-8,.66-12.11,1.13-4.8.54-5.6,1.83-11.25,1.69-3.43-.08-4.3-3.56-2.86-3.84,6.56-1.27,7.82-2.26,13-6.35A3.82,3.82,0,0,1,245.43,404.93Z" style="fill:#263238"></path><path d="M252.79,162.25c-2.8,2.31-5.56,4.32-8.41,6.38s-5.76,4-8.76,5.83-6.07,3.62-9.3,5.23A67.3,67.3,0,0,1,216.06,184c-.93.29-1.84.54-2.89.79a27.87,27.87,0,0,1-3.11.5c-1.88.21-3.64.29-5.4.38-3.51.16-7,.15-10.4.13-6.88-.08-13.7-.41-20.56-1l-.1-6.26c6.73-.86,13.49-1.61,20.18-2.36,3.34-.37,6.68-.77,9.93-1.2,1.63-.22,3.24-.48,4.72-.76a19.16,19.16,0,0,0,1.9-.44c.58-.2,1.3-.43,2-.7a68.21,68.21,0,0,0,8.31-4.06c2.77-1.59,5.53-3.3,8.25-5.11s5.43-3.69,8.12-5.6,5.36-3.94,7.88-5.86Z" style="fill:#ffc3bd"></path><path d="M260.94,155.13c-1.2,7.88-17.79,19.93-17.79,19.93l-11.91-14.77a197.7,197.7,0,0,1,16.57-15.76C253.16,140.15,262.24,146.55,260.94,155.13Z" style="fill:#00C6FF"></path><path d="M175.9,179.18l-4.73-3.37-.52,10.65s2.62,0,3.63-1.92Z" style="fill:#ffc3bd"></path><polygon points="166.89 172.71 165.92 183.14 170.65 186.46 171.17 175.81 166.89 172.71" style="fill:#ffc3bd"></polygon><polygon points="242.49 387.43 244.07 397.19 252.42 396.25 250.84 386.49 242.49 387.43" style="opacity:0.2"></polygon><polygon points="289.22 387.93 280.88 387.93 281.95 397.89 290.29 397.89 289.22 387.93" style="opacity:0.2"></polygon><path d="M289.34,144.78a4.76,4.76,0,0,1,3.58,5.81,195.86,195.86,0,0,0-4.08,22.79c-.79,6.46-1.26,12.63-1.55,18.22-.7,13.1-.41,23.09-.8,26.48L242,215c-4.52-35.4.77-58,3.75-67.17a7.94,7.94,0,0,1,6.5-5.44c1.71-.22,3.75-.44,5.91-.57.75,0,1.52-.07,2.29-.09A165.41,165.41,0,0,1,279.38,143c1.19.14,2.39.32,3.56.5C285.27,143.91,287.5,144.37,289.34,144.78Z" style="fill:#263238"></path><path d="M279,121.61c-1.62,6-3.59,17.06.38,21.42-10.31,6.94-16.89,16.7-18.79,14.58-1-1.11-1.42-14-.12-15.9,6.9-1.15,7.08-6.19,6.23-11Z" style="fill:#ffc3bd"></path><path d="M278.58,140.54s-16.81,7.44-19,24.06c4.62-5.36,14.85-11.19,14.85-11.19l-4.51-1.29a46.07,46.07,0,0,1,8.86-2.39c-.5-2.3,2.17-6.88,2.17-6.88Z" style="fill:#00C6FF"></path><path d="M263.42,140.27s2.23,9.5-3.87,24.33c-.95-5.66-4.94-15.13-4.94-15.13l4.12,1.11s-.21-1.91-3.54-4.46c1.24-2.38,5.12-5.19,5.12-5.19Z" style="fill:#00C6FF"></path><path d="M274,125.32l-7.28,5.38a19,19,0,0,1,.35,3.4c2.62-.19,6.38-2.79,6.84-5.49A9.08,9.08,0,0,0,274,125.32Z" style="opacity:0.2"></path><path d="M257.64,104.23c-4.07.17-6.31,7.18-2.19,13S263.11,104,257.64,104.23Z" style="fill:#263238"></path><path d="M277.69,110.4c.48,8.26,1.18,13.07-2.45,17.77-5.47,7.08-16.05,4.55-19-3.4-2.64-7.16-3-19.47,4.65-23.69A11.29,11.29,0,0,1,277.69,110.4Z" style="fill:#ffc3bd"></path><path d="M278.9,116.74c-6.26-4-8.47-9.27-8.95-11.92-2.43.57-14.49,6.12-18.2,0s1-9.72,7.9-5.95c-3.07-5.42-.28-8.07,9.37-8.31s8.35,5.36,8.35,5.36,7.3-3.18,9.89,2.42C290.25,104.78,284.73,115.77,278.9,116.74Z" style="fill:#263238"></path><path d="M275.72,94.44c.09,0,3.65.86,7.76-3.27-.73,3.52-7.11,5.87-7.11,5.87Z" style="fill:#263238"></path><path d="M280.51,106.53c-3.84-1.33-8.5,4.37-6.78,11.25S285.7,108.32,280.51,106.53Z" style="fill:#263238"></path><path d="M282.69,117.27a7.82,7.82,0,0,1-3.2,5.08c-2.26,1.58-4.3-.22-4.43-2.83-.12-2.35.92-6,3.55-6.54S283.1,114.75,282.69,117.27Z" style="fill:#ffc3bd"></path><path d="M254.55,308.91c2-24.38,16.7-91.89,16.7-91.89L242,215s-11.28,67-12.14,92.44c-.9,26.45,9.74,85.22,9.74,85.22l14-1.6S252.53,333.4,254.55,308.91Z" style="fill:#00C6FF"></path><path d="M254.55,308.91c2-24.38,16.7-91.89,16.7-91.89L242,215s-11.28,67-12.14,92.44c-.9,26.45,9.74,85.22,9.74,85.22l14-1.6S252.53,333.4,254.55,308.91Z" style="fill:#fff;opacity:0.5"></path><path d="M260.23,239.88c-5.9,7.54-6,34-3.72,53.58,2.17-14.12,5.59-32,8.6-47Z" style="opacity:0.2"></path><path d="M257.78,216.08s3.16,71.38,6.68,95.55C268.31,338.1,278.1,396,278.1,396h15.27s-2.51-54.49-4.53-80.5c-2.29-29.62-2.35-97.38-2.35-97.38Z" style="fill:#00C6FF"></path><path d="M257.78,216.08s3.16,71.38,6.68,95.55C268.31,338.1,278.1,396,278.1,396h15.27s-2.51-54.49-4.53-80.5c-2.29-29.62-2.35-97.38-2.35-97.38Z" style="fill:#fff;opacity:0.5"></path><polygon points="276.27 396.29 294.25 396.29 294.25 390.92 274.15 390.57 276.27 396.29" style="fill:#00C6FF"></polygon><polygon points="238.98 394.22 255.7 392.32 255.09 386.92 236.37 388.75 238.98 394.22" style="fill:#00C6FF"></polygon><path d="M265.53,114.18c.08.67-.21,1.26-.65,1.31s-.85-.45-.94-1.12.21-1.25.65-1.3S265.45,113.52,265.53,114.18Z" style="fill:#263238"></path><path d="M258,115.09c.08.67-.21,1.25-.65,1.31s-.85-.45-.93-1.12.21-1.25.64-1.3S257.9,114.42,258,115.09Z" style="fill:#263238"></path><path d="M260.42,115.14a24.11,24.11,0,0,1-2.51,6.09,3.89,3.89,0,0,0,3.27.21Z" style="fill:#ed847e"></path><path d="M267.58,111.46a.39.39,0,0,1-.4-.1,3.16,3.16,0,0,0-2.67-1A.4.4,0,0,1,264,110a.38.38,0,0,1,.32-.46,3.89,3.89,0,0,1,3.38,1.23.39.39,0,0,1,0,.56A.46.46,0,0,1,267.58,111.46Z" style="fill:#263238"></path><path d="M264.68,124.11h0a6.06,6.06,0,0,0,4.32-3.55.21.21,0,0,0-.12-.27.22.22,0,0,0-.28.13,5.73,5.73,0,0,1-4,3.27.23.23,0,0,0-.16.26A.23.23,0,0,0,264.68,124.11Z" style="fill:#263238"></path><path d="M254.43,112.88a.33.33,0,0,1-.24,0,.4.4,0,0,1-.25-.5,3.94,3.94,0,0,1,2.55-2.55.39.39,0,0,1,.48.29.38.38,0,0,1-.28.47h0a3.14,3.14,0,0,0-2,2A.36.36,0,0,1,254.43,112.88Z" style="fill:#263238"></path><path d="M279.51,407.73a2.51,2.51,0,0,1-1.6-.43,1.18,1.18,0,0,1-.41-1,.61.61,0,0,1,.34-.56c.92-.48,3.61,1.18,3.91,1.37a.18.18,0,0,1,.09.2.19.19,0,0,1-.15.16A9.72,9.72,0,0,1,279.51,407.73ZM278.27,406a.58.58,0,0,0-.25.05.24.24,0,0,0-.13.23.81.81,0,0,0,.27.72c.46.38,1.55.44,3,.15A8.07,8.07,0,0,0,278.27,406Z" style="fill:#00C6FF"></path><path d="M281.65,407.43a.18.18,0,0,1-.1,0c-.86-.47-2.53-2.3-2.35-3.22a.65.65,0,0,1,.63-.52,1.06,1.06,0,0,1,.84.25c1,.79,1.17,3.2,1.17,3.3a.17.17,0,0,1-.09.18A.17.17,0,0,1,281.65,407.43ZM280,404.05h-.08c-.26,0-.28.15-.29.2-.11.55,1,1.93,1.81,2.58a4.68,4.68,0,0,0-1-2.61A.69.69,0,0,0,280,404.05Z" style="fill:#00C6FF"></path><path d="M244.75,406.16h0c-1.3.42-3.64,1-4.64.31a1.08,1.08,0,0,1-.47-.91.63.63,0,0,1,.26-.56c.94-.66,4.47.64,4.86.79a.21.21,0,0,1,.13.19A.19.19,0,0,1,244.75,406.16Zm-4.61-.86,0,0a.26.26,0,0,0-.1.23.71.71,0,0,0,.31.6c.56.4,1.93.32,3.73-.19C242.63,405.49,240.72,405,240.14,405.3Z" style="fill:#00C6FF"></path><path d="M244.75,406.16a.22.22,0,0,1-.16,0c-1.05-.33-3.23-1.9-3.18-2.85,0-.23.13-.52.66-.63a1.42,1.42,0,0,1,1.13.21c1.15.75,1.63,3,1.65,3a.22.22,0,0,1-.06.19Zm-2.81-3c-.13.07-.14.15-.14.19,0,.57,1.48,1.82,2.57,2.32a4.62,4.62,0,0,0-1.39-2.43,1,1,0,0,0-.82-.16A.68.68,0,0,0,241.94,403.15Z" style="fill:#00C6FF"></path><path d="M296.36,156.8c-.21,3.26-.59,6.29-1,9.42s-.93,6.2-1.52,9.3a109.59,109.59,0,0,1-5.13,18.58l-1,2.33-.25.58-.06.15-.1.22L287,198a10.09,10.09,0,0,1-1.38,2,12.19,12.19,0,0,1-3,2.48,17.87,17.87,0,0,1-2.87,1.39,37.53,37.53,0,0,1-10.26,2.15,86,86,0,0,1-19.08-.71l.23-6.26,4.41-.5c1.48-.17,2.95-.4,4.41-.6,2.92-.43,5.81-.91,8.57-1.55a32.65,32.65,0,0,0,7.37-2.44,4.08,4.08,0,0,0,1.61-1.23c0-.15-.29.48.08-.52l.66-1.93a126,126,0,0,0,3.7-16.86c.48-2.9.88-5.83,1.28-8.77s.71-5.93,1-8.74Z" style="fill:#ffc3bd"></path><path d="M297.1,150.76c4.08,6.84.6,28.36.6,28.36l-21.4-4s-1.16-12.32,2.92-21.78C283.65,143.08,292.16,142.46,297.1,150.76Z" style="fill:#00C6FF"></path><path d="M244.68,218.3l-11.35-52.8a10.68,10.68,0,0,0-9.93-8.17H179.92a10.7,10.7,0,0,1,9.93,8.17l11.34,52.8a10.7,10.7,0,0,0,9.93,8.17h43.49A10.69,10.69,0,0,1,244.68,218.3Z" style="fill:#263238"></path><path d="M244.68,218.3l-11.35-52.8a10.68,10.68,0,0,0-9.93-8.17H179.92a10.7,10.7,0,0,1,9.93,8.17l11.34,52.8a10.7,10.7,0,0,0,9.93,8.17h43.49A10.69,10.69,0,0,1,244.68,218.3Z" style="fill:#00C6FF;opacity:0.7000000000000001"></path><rect x="156.02" y="227.77" width="12.39" height="1" transform="matrix(0.09, -1, 1, 0.09, -79.97, 368.85)" style="fill:#00C6FF"></rect><rect x="158.35" y="241.43" width="5.21" height="1" transform="translate(-94.72 380.01) rotate(-84.73)" style="fill:#00C6FF"></rect><path d="M179.92,157.33H223.4a9.13,9.13,0,0,0-8.91,8.17L203.21,288.18a9.14,9.14,0,0,1-8.92,8.17H167.15a7.34,7.34,0,0,1-7.43-8.17L171,165.5A9.14,9.14,0,0,1,179.92,157.33Z" style="fill:#00C6FF"></path><path d="M186.86,288.18a7.34,7.34,0,0,0,7.43,8.17H150.8a7.33,7.33,0,0,1-7.42-8.17Z" style="fill:#263238"></path><path d="M186.86,288.18a7.34,7.34,0,0,0,7.43,8.17H150.8a7.33,7.33,0,0,1-7.42-8.17Z" style="fill:#00C6FF;opacity:0.7000000000000001"></path><g style="opacity:0.5"><path d="M207,171.08H177.52a1.6,1.6,0,0,1-1.61-1.78h0a2,2,0,0,1,1.94-1.78h29.43a1.6,1.6,0,0,1,1.61,1.78h0A2,2,0,0,1,207,171.08Z" style="fill:#fff"></path><path d="M206.08,180.7H176.65a1.6,1.6,0,0,1-1.62-1.78h0a2,2,0,0,1,1.94-1.78H206.4a1.6,1.6,0,0,1,1.62,1.78h0A2,2,0,0,1,206.08,180.7Z" style="fill:#fff"></path><path d="M198,190.33H175.77a1.6,1.6,0,0,1-1.61-1.78h0a2,2,0,0,1,1.94-1.78h22.21a1.6,1.6,0,0,1,1.62,1.78h0A2,2,0,0,1,198,190.33Z" style="fill:#fff"></path><path d="M182.43,200H174.9a1.6,1.6,0,0,1-1.62-1.77h0a2,2,0,0,1,1.94-1.78h7.54a1.6,1.6,0,0,1,1.61,1.78h0A2,2,0,0,1,182.43,200Z" style="fill:#fff"></path><path d="M203.45,209.58H174a1.6,1.6,0,0,1-1.61-1.78h0a2,2,0,0,1,1.94-1.78h29.42a1.6,1.6,0,0,1,1.62,1.78h0A2,2,0,0,1,203.45,209.58Z" style="fill:#fff"></path><path d="M191,219.21H173.15a1.6,1.6,0,0,1-1.62-1.78h0a2,2,0,0,1,1.94-1.78h17.84a1.61,1.61,0,0,1,1.62,1.78h0A2,2,0,0,1,191,219.21Z" style="fill:#fff"></path><path d="M201.7,228.83H172.27a1.6,1.6,0,0,1-1.61-1.78h0a2,2,0,0,1,1.94-1.78H202a1.61,1.61,0,0,1,1.62,1.78h0A2,2,0,0,1,201.7,228.83Z" style="fill:#fff"></path><path d="M193.61,238.46H171.4a1.6,1.6,0,0,1-1.62-1.78h0a2,2,0,0,1,1.94-1.78h22.21a1.6,1.6,0,0,1,1.62,1.78h0A2,2,0,0,1,193.61,238.46Z" style="fill:#fff"></path><path d="M178.06,248.09h-7.54a1.61,1.61,0,0,1-1.62-1.78h0a2,2,0,0,1,1.95-1.78h7.53a1.6,1.6,0,0,1,1.62,1.78h0A2,2,0,0,1,178.06,248.09Z" style="fill:#fff"></path><path d="M199.07,257.71H169.65a1.6,1.6,0,0,1-1.62-1.78h0a2,2,0,0,1,1.94-1.78H199.4a1.6,1.6,0,0,1,1.61,1.78h0A2,2,0,0,1,199.07,257.71Z" style="fill:#fff"></path><path d="M186.61,267.34H168.77a1.6,1.6,0,0,1-1.62-1.78h0a2,2,0,0,1,1.94-1.78h17.84a1.6,1.6,0,0,1,1.62,1.78h0A2,2,0,0,1,186.61,267.34Z" style="fill:#fff"></path><path d="M197.32,277H167.9a1.6,1.6,0,0,1-1.62-1.78h0a2,2,0,0,1,1.94-1.77h29.43a1.6,1.6,0,0,1,1.61,1.77h0A2,2,0,0,1,197.32,277Z" style="fill:#fff"></path></g><path d="M253.23,199.62l-6.39-5.55-3,10.22s6.49,3.52,8.73.29Z" style="fill:#ffc3bd"></path><polygon points="239.89 193.67 237.81 202.24 243.85 204.29 246.84 194.07 239.89 193.67" style="fill:#ffc3bd"></polygon></g></svg>