<svg id="Layer_1" data-name="Layer 1" xmlns="http://www.w3.org/2000/svg" viewBox="0 0 330 330"><defs><style>.cls-1{fill:#00c6ff;}.cls-2{fill:#0058a1;}.cls-3{fill:#fff;}</style></defs><line class="cls-1" x1="194.78" y1="194.46" x2="278.81" y2="279.67"/><path class="cls-1" d="M278.81,298.63a18.91,18.91,0,0,1-13.41-5.55l-99.24-99.24A19,19,0,1,1,193,167l99.23,99.23a19,19,0,0,1-13.41,32.38Z"/><circle class="cls-1" cx="163.82" cy="159.27" r="126.56"/><circle class="cls-2" cx="163.82" cy="159.27" r="94.77"/><path class="cls-3" d="M142.88,183.21a9.56,9.56,0,0,1-6.78-2.81l-28.28-28.29a9.57,9.57,0,0,1,0-13.55l28.28-28.29a9.59,9.59,0,0,1,13.56,13.56l-21.51,21.5,21.51,21.51a9.59,9.59,0,0,1-6.78,16.37Z"/><path class="cls-3" d="M184.75,211.07A9.59,9.59,0,0,1,178,194.7l21.51-21.5L178,151.69a9.59,9.59,0,0,1,13.56-13.56l28.28,28.29a9.58,9.58,0,0,1,0,13.56l-28.28,28.28A9.56,9.56,0,0,1,184.75,211.07Z"/></svg>